<svg width="24" height="25" viewBox="0 0 24 25" fill="none" xmlns="http://www.w3.org/2000/svg">
<g clip-path="url(#clip0_518_35755)">
<path d="M5.5 17.5C6.32843 17.5 7 16.8284 7 16C7 15.1716 6.32843 14.5 5.5 14.5C4.67157 14.5 4 15.1716 4 16C4 16.8284 4.67157 17.5 5.5 17.5Z" fill="#141414"/>
<path d="M19 3.5H5C3.67441 3.50159 2.40356 4.02888 1.46622 4.96622C0.528882 5.90356 0.00158786 7.17441 0 8.5L0 16.5C0.00158786 17.8256 0.528882 19.0964 1.46622 20.0338C2.40356 20.9711 3.67441 21.4984 5 21.5H19C20.3256 21.4984 21.5964 20.9711 22.5338 20.0338C23.4711 19.0964 23.9984 17.8256 24 16.5V8.5C23.9984 7.17441 23.4711 5.90356 22.5338 4.96622C21.5964 4.02888 20.3256 3.50159 19 3.5ZM5 5.5H19C19.7956 5.5 20.5587 5.81607 21.1213 6.37868C21.6839 6.94129 22 7.70435 22 8.5H2C2 7.70435 2.31607 6.94129 2.87868 6.37868C3.44129 5.81607 4.20435 5.5 5 5.5ZM19 19.5H5C4.20435 19.5 3.44129 19.1839 2.87868 18.6213C2.31607 18.0587 2 17.2956 2 16.5V10.5H22V16.5C22 17.2956 21.6839 18.0587 21.1213 18.6213C20.5587 19.1839 19.7956 19.5 19 19.5Z" fill="#141414"/>
</g>
<defs>
<clipPath id="clip0_518_35755">
<rect width="24" height="24" fill="white" transform="translate(0 0.5)"/>
</clipPath>
</defs>
</svg>
