<svg width="24" height="25" viewBox="0 0 24 25" fill="none" xmlns="http://www.w3.org/2000/svg">
<path d="M19 0.5H5C3.67441 0.501588 2.40356 1.02888 1.46622 1.96622C0.528882 2.90356 0.00158786 4.17441 0 5.5L0 6.5C0.000290807 6.92174 0.0895008 7.33868 0.261809 7.72362C0.434117 8.10856 0.685652 8.45284 1 8.734V19.5C1.00159 20.8256 1.52888 22.0964 2.46622 23.0338C3.40356 23.9711 4.67441 24.4984 6 24.5H18C19.3256 24.4984 20.5964 23.9711 21.5338 23.0338C22.4711 22.0964 22.9984 20.8256 23 19.5V8.734C23.3143 8.45284 23.5659 8.10856 23.7382 7.72362C23.9105 7.33868 23.9997 6.92174 24 6.5V5.5C23.9984 4.17441 23.4711 2.90356 22.5338 1.96622C21.5964 1.02888 20.3256 0.501588 19 0.5V0.5ZM2 5.5C2 4.70435 2.31607 3.94129 2.87868 3.37868C3.44129 2.81607 4.20435 2.5 5 2.5H19C19.7956 2.5 20.5587 2.81607 21.1213 3.37868C21.6839 3.94129 22 4.70435 22 5.5V6.5C22 6.76522 21.8946 7.01957 21.7071 7.20711C21.5196 7.39464 21.2652 7.5 21 7.5H3C2.73478 7.5 2.48043 7.39464 2.29289 7.20711C2.10536 7.01957 2 6.76522 2 6.5V5.5ZM21 19.5C21 20.2956 20.6839 21.0587 20.1213 21.6213C19.5587 22.1839 18.7956 22.5 18 22.5H6C5.20435 22.5 4.44129 22.1839 3.87868 21.6213C3.31607 21.0587 3 20.2956 3 19.5V9.5H21V19.5Z" fill="#141414"/>
</svg>
