<svg width="1440" height="378" viewBox="0 0 1440 378" fill="none" xmlns="http://www.w3.org/2000/svg">
<g style="mix-blend-mode:overlay" clip-path="url(#clip0_506_25142)">
<path d="M-0.000531677 158.808C16.0194 156.457 31.4799 158.629 46.1461 165.281C54.4469 169.044 62.3786 173.658 70.3773 178.092C86.5427 187.051 102.686 196.077 118.739 205.238C123.55 207.982 128.371 207.802 133.45 206.638C135.318 206.212 137.276 205.742 139.144 205.887C143.127 206.19 146.897 207.444 148.698 211.397C150.522 215.417 149.962 219.516 147.143 222.876C140.352 230.972 133.607 239.17 124.814 245.273C119.22 249.159 113.515 252.877 107.899 256.718C97.5731 263.762 87.1356 270.66 77.0225 277.996C72.9616 280.952 69.5383 284.827 65.9808 288.444C63.0498 291.423 59.6154 291.266 57.1878 287.682C54.8609 284.244 55.0622 280.549 56.5277 276.887C59.1343 270.336 63.0946 264.613 68.6433 260.324C74.1698 256.057 80.0206 252.127 86.0281 248.588C92.4942 244.78 99.4637 241.802 105.975 238.061C113.101 233.974 119.97 229.438 126.917 225.037C128.091 224.287 129.098 223.268 130.362 222.226C106.512 214.566 85.7596 201.464 64.7391 188.899C55.0511 183.109 45.363 177.342 34.5452 173.792C23.9286 170.309 13.1667 169.044 2.09145 170.948C1.40904 171.071 0.693067 170.992 -0.0117188 171.004C-0.000531677 166.938 -0.000531677 162.873 -0.000531677 158.808Z" fill="#0E3572" fill-opacity="0.4"/>
<path d="M0 194.207C12.977 198.194 26.4127 199.583 39.77 201.453C42.0522 201.778 44.3456 202.483 46.4711 203.401C54.2014 206.727 56.1032 214.41 50.5544 220.771C48.3282 223.324 45.4419 225.418 42.5668 227.266C36.6824 231.062 30.5855 234.534 24.6004 238.173C23.2355 239.002 21.9378 239.976 20.6737 241.611C22.8776 241.813 25.0926 242.205 27.2965 242.171C32.7781 242.07 38.2598 241.746 43.7303 241.533C48.1939 241.354 52.7247 241.32 55.1523 246.023C57.5575 250.693 55.2194 254.59 52.2772 257.95C48.2051 262.609 43.9764 267.178 39.4792 271.411C24.936 285.096 10.8738 299.161 0.861405 316.709C0.682411 317.034 0.302051 317.247 0.0111871 317.505C0.0111871 306.922 0.0111871 296.339 0.0111871 285.756C10.9745 276.137 21.9379 266.528 32.7557 257.032C28.1691 257.032 23.4145 257.289 18.6936 256.976C11.6346 256.505 4.74332 255.296 0.0111871 249.126C0.0111871 245.06 0.0111871 240.984 0.0111871 236.919C10.5382 226.683 23.8844 220.938 36.5817 214.074C30.9099 213.256 25.3275 212.909 19.8123 212.136C13.1896 211.218 6.61156 209.953 0.0223741 208.833C0 203.984 0 199.09 0 194.207Z" fill="#0E3572" fill-opacity="0.4"/>
<path d="M1284.5 212.674C1285.06 211.408 1285.46 210.512 1285.85 209.616C1287.65 205.518 1289.41 201.408 1291.27 197.331C1295.44 188.149 1301.68 180.679 1309.85 174.733C1318.64 168.327 1327.27 161.686 1336.06 155.292C1348.84 145.986 1357.98 133.689 1364.04 119.366C1370.64 103.767 1368.29 88.2565 1359.81 74.0006C1354.75 65.5008 1345.73 61.5365 1336.78 58.3225C1318.14 51.6369 1301.34 56.3851 1287.96 69.8123C1276.42 81.3805 1273.29 96.4427 1277.93 112.524C1278.67 115.055 1280.33 117.317 1281.87 120.318C1282.98 118.75 1283.55 117.855 1284.21 117.026C1288.75 111.292 1293.14 105.424 1297.95 99.9367C1299.89 97.7194 1302.63 96.0284 1305.31 94.6733C1308.64 92.9823 1312.28 93.9454 1314.19 96.3755C1316.1 98.7944 1315.96 101.784 1313.4 105.043C1303.29 117.922 1295.13 131.965 1288.44 146.859C1286.29 151.652 1284.94 156.815 1283.26 161.821C1283.03 162.481 1282.87 163.232 1282.95 163.903C1283.31 167.353 1281.75 168.82 1278.12 168.316C1274.48 167.812 1270.94 164.676 1270.59 160.174C1270.25 155.605 1270.57 150.823 1271.56 146.344C1272.83 140.521 1275.06 134.91 1276.93 129.064C1276.55 128.896 1276.03 128.583 1275.46 128.426C1269.76 126.813 1265.67 123.174 1262.75 118.146C1258.89 111.494 1256.85 104.271 1256.82 96.6107C1256.78 81.9069 1261.43 68.6924 1272.1 58.5913C1286.61 44.8617 1303.92 36.6979 1324.36 37.3138C1340 37.7841 1354.22 43.0139 1367 52.0064C1377.54 59.42 1382.43 70.2715 1385.24 82.4108C1389.65 101.471 1386.5 119.03 1375.81 135.492C1366.34 150.073 1355.44 163.097 1340.83 172.829C1333.72 177.555 1327.09 182.975 1320.1 187.88C1313.26 192.673 1307.87 198.642 1304.61 206.335C1301.33 214.096 1298.26 221.946 1295.26 229.819C1294.34 232.238 1292.99 233.917 1290.46 234.377C1287.6 234.903 1285.07 233.917 1283.54 231.521C1278.83 224.208 1271.71 219.818 1264.22 216.336C1243.73 206.806 1223.25 207.489 1203.13 217.724C1201.11 218.755 1199.37 220.311 1197.34 221.308C1189.45 225.149 1181.39 224.074 1173.6 221.252C1157.01 215.227 1143.13 205.305 1133.36 190.444C1117.86 166.849 1110.97 141.349 1118.07 113.23C1122.85 94.315 1133.94 80.4622 1151.88 72.4888C1164.79 66.7551 1177.6 67.7182 1190.15 73.855C1190.52 74.0342 1190.86 74.2582 1191.23 74.415C1191.41 74.4934 1191.63 74.471 1192.24 74.5605C1192.46 73.2503 1192.63 71.9065 1192.92 70.585C1194.54 63.2499 1196.17 55.9148 1197.89 48.602C1198.21 47.2358 1198.85 45.9144 1199.52 44.6713C1201.51 40.987 1205.26 39.352 1209.02 40.3934C1212.48 41.3453 1214.87 44.4361 1214.48 48.5685C1213.79 55.8476 1212.67 63.0931 1211.71 70.3498C1209.68 85.5688 1207.7 100.799 1205.59 116.007C1204.93 120.721 1204.1 125.447 1202.94 130.061C1202.01 133.734 1198.53 134.597 1196.06 131.707C1194.41 129.781 1192.99 127.239 1192.54 124.787C1191.71 120.217 1191.45 115.514 1191.35 110.844C1191.21 104.539 1191.37 98.2233 1191.6 91.9297C1191.68 89.6787 1190.82 88.7493 1188.78 88.0325C1177.46 84.0122 1167.35 85.4904 1157.47 92.7696C1142.97 103.453 1137.3 118.146 1137.57 135.201C1137.99 162.033 1151.72 195.752 1188.55 209.034C1190.58 209.773 1191.61 209.74 1192.87 207.634C1195.99 202.393 1200.85 198.966 1206.37 196.637C1233.65 185.147 1261.59 189.638 1281.82 210.176C1282.6 210.927 1283.4 211.655 1284.5 212.674Z" fill="#0E3572" fill-opacity="0.4"/>
<path d="M433.757 511.544C429.875 512.328 426.541 513.123 423.151 513.649C408.418 515.956 394.401 513.436 381.032 507.053C366.053 499.897 358.725 487.691 358.132 471.329C357.405 451.004 364.956 433.713 378.448 418.953C383.012 413.959 388.192 409.378 393.673 405.392C426.664 381.404 463.402 366.924 503.956 361.986C524.529 359.488 545.124 356.969 565.518 353.34C589.033 349.163 610.781 339.734 631.757 328.446C640.595 323.697 645.584 316.553 646.199 306.642C646.524 301.502 646.121 296.294 645.584 291.154C645.371 289.071 643.772 287.167 643.078 285.084C642.575 283.561 641.87 281.579 642.44 280.359C643.022 279.115 645.125 277.749 646.445 277.861C648.616 278.029 650.987 278.959 652.744 280.269C656.223 282.867 657.744 286.865 658.796 290.964C661.66 302.162 660.899 313.171 656.805 323.933C653.381 332.947 646.613 338.972 638.536 343.698C623.031 352.78 606.72 359.97 589.47 365.121C568.225 371.482 546.422 374.595 524.45 376.745C501.248 379.008 478.192 381.886 456.131 390.094C436.151 397.519 417.603 407.553 400.732 420.521C385.932 431.899 376.457 446.636 374.913 465.764C373.772 479.963 378.504 488.094 391.503 493.839C399.882 497.534 408.608 499.695 417.871 498.923C418.542 498.867 419.202 498.688 419.281 498.676C417.603 492.954 415.567 487.433 414.414 481.733C411.942 469.426 414.884 458.014 421.731 447.723C430.457 434.586 441.632 424.161 456.388 417.945C457.205 417.598 458.044 416.243 458.089 415.314C458.234 412.268 458.066 409.21 457.921 406.164C457.764 402.693 458.872 399.938 462.149 398.415C465.204 396.993 469.41 397.687 471.547 400.643C473.393 403.208 475.015 406.276 475.608 409.345C477.409 418.617 478.785 427.99 480.082 437.353C481.436 447.129 482.51 456.939 483.729 466.727C483.83 467.511 483.897 468.429 484.333 469.034C486.459 472.001 486.269 476.29 483.796 478.396C481.19 480.613 476.95 480.243 474.657 476.951C472.419 473.737 470.338 470.176 469.242 466.458C466.21 456.233 463.716 445.852 461.02 435.527C460.74 434.475 460.539 433.411 460.237 432.056C459.498 432.414 458.984 432.526 458.67 432.84C451.757 439.839 444.418 446.491 438.064 453.983C428.924 464.744 428.555 477.321 432.593 490.311C432.985 491.554 433.6 492.775 434.338 493.85C435.815 495.978 438.478 495.798 439.775 493.592C439.831 493.503 439.854 493.402 439.898 493.312C442.505 488.474 444.877 486.985 448.557 487.836C452.036 488.654 454.475 492.047 453.882 497.008C453.032 504.052 451.801 511.107 450.079 517.983C443.657 543.583 439.182 569.519 435.547 595.634C435.11 598.748 434.338 601.827 433.678 604.907C433.175 607.236 432.135 609.174 429.438 609.442C426.731 609.711 424.628 608.334 423.968 605.96C422.782 601.693 421.552 597.281 421.451 592.902C421.071 575.432 423.397 558.186 426.865 541.108C428.644 532.34 430.915 523.672 432.962 514.959C433.209 513.996 433.421 513.011 433.757 511.544Z" fill="#0E3572" fill-opacity="0.4"/>
<path d="M804.083 524.422C802.975 527.211 802.136 529.831 800.917 532.25C799.653 534.77 798.355 537.413 796.476 539.451C792.157 544.109 786.251 543.885 781.686 539.462C778.744 536.606 776.797 533.28 775.791 529.327C771.663 513.022 770.197 496.47 771.327 479.695C771.573 475.988 771.864 472.281 772.166 468.093C771.058 468.776 770.354 469.112 769.75 469.593C763.026 475.025 756.269 480.411 749.635 485.943C747.465 487.758 745.552 489.897 743.617 491.98C740.059 495.821 735.92 497.03 731.87 495.306C727.932 493.615 725.639 489.953 726.422 484.756C727.272 479.056 728.492 473.323 730.36 467.891C735.595 452.661 744.456 439.312 752.913 425.762C760.912 412.939 769.526 400.587 781.418 391.024C787.425 386.197 793.891 381.93 800.246 377.563C801.7 376.566 803.546 375.883 805.291 375.625C807.573 375.278 809.542 376.309 810.437 378.571C811.287 380.721 810.638 382.647 808.804 383.98C796.241 393.14 787.112 405.414 779.08 418.36C771.103 431.216 764.234 444.766 756.907 458.025C756.336 459.067 755.922 460.187 755.039 462.158C756.549 461.217 757.254 460.769 757.97 460.343C765.487 455.931 772.916 451.34 780.556 447.163C785.266 444.587 790.983 447.353 792.258 452.751C792.985 455.864 793.03 459.201 792.963 462.426C792.728 475.238 792.325 488.038 792.012 500.849C791.978 502.025 792.169 503.212 792.325 505.239C793.992 503.111 795.111 501.599 796.319 500.177C801.554 494.051 807.942 494.387 812.417 501.073C814.957 504.88 817.25 508.845 819.834 512.619C828.963 525.923 841.291 534.994 856.673 539.775C864.336 542.161 872.111 544.199 879.83 546.371C880.669 546.607 881.542 546.685 883.22 546.987C875.736 533.997 872.346 520.547 872.357 505.9C871.172 506.135 870.344 506.336 869.494 506.471C866.495 506.963 863.497 507.781 860.488 507.87C848.73 508.229 840.888 502.226 838.181 490.793C835.731 480.479 836.033 469.974 836.581 459.503C836.984 451.788 837.879 444.105 838.528 436.401C838.684 434.575 838.796 432.75 838.819 430.913C838.897 423.354 837.834 422.245 830.272 423.365C826.289 423.959 822.329 425.09 818.514 426.411C813.044 428.293 807.719 430.6 802.304 432.671C800.984 433.175 799.518 433.993 798.243 433.803C796.285 433.511 793.712 433.007 792.728 431.63C791.743 430.264 792.169 427.688 792.426 425.695C792.549 424.743 793.545 423.735 794.395 423.074C804.899 414.922 815.807 407.486 829.433 405.638C832.129 405.268 834.926 405.235 837.633 405.504C848.753 406.59 856.024 413.152 857.132 424.261C857.837 431.384 857.065 438.652 856.875 445.863C856.573 457.152 856.136 468.429 855.89 479.717C855.834 482.035 856.36 484.364 856.617 486.683C856.93 489.381 858.553 490.793 861.148 490.535C864.862 490.165 868.576 489.583 872.223 488.766C873.04 488.586 873.812 487.108 874.147 486.078C875.736 481.262 877.056 476.357 878.712 471.564C879.293 469.885 880.379 468.283 881.564 466.928C883.601 464.61 886.341 463.849 889.339 464.644C892.371 465.439 894.307 467.544 894.754 470.601C895.112 472.987 895.011 475.462 894.989 477.892C894.911 488.665 894.351 499.449 894.844 510.189C895.101 515.777 896.857 521.376 898.491 526.796C903.189 542.385 908.671 557.671 916.737 571.927C917.799 573.808 918.336 576.149 918.538 578.321C919.064 584.033 914.477 588.221 909.062 586.44C905.673 585.32 902.093 583.159 899.889 580.415C896.51 576.193 894.038 571.176 891.599 566.294C890.492 564.077 889.541 563.304 886.912 563.293C859.302 563.293 834.243 556.148 814.118 536.102C810.616 532.631 807.651 528.61 804.083 524.422Z" fill="#0E3572" fill-opacity="0.4"/>
<path d="M839.902 166.793C837.777 157.947 837.184 150.107 838.09 142.145C840.473 121.103 848.74 103.487 866.069 90.329C894.786 68.514 925.226 49.7114 958.53 35.7803C971.809 30.2258 985.647 26.3174 1000.08 25.5111C1005.78 25.1864 1011.58 26.2726 1017.32 26.8102C1018.4 26.911 1019.49 27.3589 1020.51 27.8069C1023.2 28.9939 1025.76 30.4833 1025.52 33.9549C1025.26 37.5273 1022.37 38.5464 1019.5 38.9831C1012.06 40.0918 1004.54 40.6741 997.148 41.9956C975.848 45.8143 955.957 53.5638 936.872 63.7098C916.086 74.7628 896.285 87.1934 877.636 101.64C863.429 112.637 856.705 126.904 855.296 144.228C854.949 148.461 855.005 152.762 855.24 157.017C855.542 162.325 857.265 167.017 861.214 170.959C865.8 175.528 864.189 182.595 857.947 184.286C854.177 185.305 849.68 185.607 845.988 184.555C837.027 181.979 828.145 178.91 819.62 175.159C792.413 163.176 764.49 153.153 736.276 143.948C728.423 141.384 720.022 140.477 711.889 138.73C709.819 138.282 707.693 137.778 705.836 136.837C702.894 135.348 701.317 132.75 701.518 129.368C701.731 125.986 703.588 123.432 706.709 122.492C709.36 121.696 712.291 121.876 715.088 121.506C718.064 121.114 721.23 121.092 723.959 120.017C736.735 114.977 748.291 107.888 758.483 98.5712C770.117 87.9437 781.964 77.5513 793.621 66.935C797.593 63.3178 801.34 59.4207 805.066 55.5347C808.31 52.1527 812.304 51.1897 815.738 53.2166C818.826 55.042 819.911 58.256 818.893 62.5787C815.615 76.409 816.298 90.4746 816.409 104.495C816.409 104.854 816.655 105.212 816.946 106.03C817.942 104.876 818.77 104.025 819.486 103.084C826.679 93.6102 833.895 84.1473 840.976 74.5837C841.536 73.8334 841.558 71.9744 841.01 71.2465C838.873 68.4132 836.434 65.8151 834.063 63.161C833.324 62.3323 832.429 61.6268 831.657 60.8205C826.209 55.0868 827.384 48.7036 834.711 45.8255C839.231 44.0449 843.963 42.7459 848.695 41.6036C859.748 38.9383 871.036 37.1241 881.317 31.872C882.212 31.4128 883.118 30.9761 883.823 30.6289C879.706 20.5501 875.656 10.6281 871.371 0.157355C877.077 0.157355 882.391 0.112561 887.693 0.235746C888.174 0.246945 888.89 1.26602 889.081 1.93794C891.62 11.0425 895.826 19.3183 900.872 27.2917C904.194 32.5439 902.326 36.6314 896.442 38.6248C896.061 38.7591 895.647 38.8375 895.289 39.0167C880.534 46.363 864.838 50.8425 848.852 54.4821C848.102 54.6501 847.409 55.0756 846.592 55.4228C848.919 58.9839 851.257 62.2875 853.304 65.7703C856.851 71.8064 856.28 74.1693 852.029 79.7798C840.562 94.9428 829.33 110.285 818.009 125.56C817.953 125.638 817.908 125.728 817.853 125.818C815.447 129.446 812.785 130.823 809.529 130.118C806.375 129.435 804.462 127.016 803.98 122.592C803.22 115.515 802.381 108.426 802.056 101.326C801.732 94.2373 801.989 87.115 801.989 80.0038C801.654 79.8806 801.307 79.7686 800.971 79.6455C800.289 80.1046 799.562 80.4966 798.946 81.0341C790.086 88.8172 781.092 96.4547 772.422 104.45C763.483 112.704 753.952 120.061 743.279 125.93C742.675 126.265 742.105 126.669 741.299 127.184C774.033 140.342 806.542 153.4 839.902 166.793Z" fill="#0E3572" fill-opacity="0.4"/>
<path d="M185.023 328.278C185.202 328.076 185.392 327.942 185.459 327.774C187.898 322.04 192.339 319.621 197.116 321.458C201.949 323.305 204.511 329.431 202.699 334.762C201.535 338.177 199.119 340.417 195.841 341.66C183.278 346.408 166.956 342.242 166.106 322.443C165.267 302.913 187.249 285.118 207.654 293.931C221.392 299.867 235.13 318.445 228.451 338.726C226.438 344.829 223.462 350.776 219.983 356.196C213.136 366.868 202.251 370.821 190.225 372.445C175.29 374.461 163.398 369.366 153.934 357.73C148.274 350.776 143.922 343.194 140.946 334.762C139.928 331.895 138.664 329.118 137.388 326.351C136.27 323.899 134.211 322.981 131.884 324.336C126.291 327.594 120.675 330.853 115.417 334.605C112.061 337.001 109.32 340.271 106.3 343.138C105.27 344.124 104.286 345.165 103.178 346.05C97.0815 350.955 89.5973 348.234 88.7024 340.451C88.2325 336.385 88.4786 332.029 89.4295 328.065C94.3183 307.851 105.595 292.128 123.405 281.232C136.113 273.46 150.254 269.72 164.651 266.864C183.792 263.079 202.978 259.54 222.131 255.833C235.152 253.314 245.836 247.009 253.521 236.001C254.394 234.758 255.244 233.481 255.971 232.148C260.939 223.089 256.531 213.256 246.283 211.554C235.04 209.695 224.435 212.271 214.792 218.273C211.145 220.546 208.896 224.04 208.124 228.43C207.52 231.835 205.686 232.529 202.676 230.737C198.101 227.994 196.143 222.226 197.944 216.526C199.577 211.375 202.866 207.343 207.297 204.443C220.15 196.033 234.19 192.886 249.192 196.693C269.027 201.733 277.596 222.809 267.035 240.301C257.638 255.867 244.068 266.416 226.505 271.052C206.368 276.361 186.041 280.963 165.781 285.79C153.364 288.746 141.282 292.509 130.274 299.183C122.957 303.618 117.05 309.441 112.71 316.978C113.638 316.452 114.567 315.937 115.484 315.399C120.53 312.488 125.698 309.878 131.616 309.329C138.25 308.714 143.788 311.009 147.323 316.653C149.728 320.483 151.585 324.75 153.106 329.028C155.903 336.901 160.132 343.754 165.233 350.361C177.539 366.286 204.075 358.144 209.668 344.314C214.557 332.231 213.662 322.421 205.115 315.074C201.457 311.928 197.295 310.203 192.451 312.006C187.384 313.887 184.296 317.594 183.267 322.902C182.898 324.952 182.83 327.012 185.023 328.278Z" fill="#0E3572" fill-opacity="0.4"/>
<path d="M903.961 178.988C906.344 176.838 908.727 174.654 911.143 172.526C912.127 171.664 913.123 170.712 914.275 170.141C916.58 169.021 918.907 169.145 920.641 171.239C922.341 173.288 921.972 175.505 920.249 177.32C915.987 181.788 911.613 186.144 907.272 190.534C906.131 191.687 904.912 192.774 903.804 193.95C901.981 195.898 899.967 197.5 897.148 196.66C893.893 195.697 890.85 194.409 889.641 190.68C888.802 188.104 887.728 185.584 886.498 183.176C883.377 177.062 882.101 170.511 881.766 163.758C881.162 151.316 883.119 139.412 889.653 128.572C892.696 123.521 896.533 119.243 901.858 116.511C906.377 114.193 911.109 113.454 916.021 115.077C920.484 116.544 922.599 119.546 922.889 124.092C922.968 125.414 923.516 126.858 924.277 127.945C944.536 156.591 964.852 185.181 985.134 213.805C986.365 215.541 987.853 217.288 988.412 219.27C988.938 221.118 988.602 223.312 988.244 225.283C987.987 226.728 987.081 228.049 986.454 229.427C984.474 233.783 980.369 235.015 976.554 232.383C975.715 231.812 974.853 231.263 974.037 230.659C969.517 227.266 964.886 226.728 959.035 227.366C933.182 230.2 912.183 243.257 891.733 257.737C886.173 261.668 880.815 265.89 875.232 269.787C866.865 275.633 859.19 282.229 852.12 289.597C838.338 303.976 822.553 316.093 806.141 327.169C788.611 339.006 768.877 345.199 747.465 344.796C723.155 344.336 706.833 331.906 697.022 310.281C693.51 302.521 692.234 294.122 691.809 285.633C691.742 284.222 691.832 282.777 692.022 281.377C692.436 278.421 693.868 276.17 696.933 275.453C700.032 274.737 702.728 275.789 704.35 278.432C705.715 280.65 706.71 283.158 707.482 285.655C709.026 290.605 710.055 295.712 711.733 300.617C716.812 315.5 730.617 330.293 754.065 327.617C770.533 325.747 785.546 320.013 798.679 310.147C814.274 298.433 829.981 286.775 843.114 272.139C844.737 270.324 846.504 268.6 848.417 267.099C868.487 251.354 888.243 235.172 910.942 223.167C922.8 216.884 935.095 211.912 948.53 210.389C955.5 209.594 962.525 209.079 969.361 212.495C968.857 211.699 968.387 210.882 967.861 210.098C950.645 184.789 933.416 159.502 916.188 134.193C914.264 131.36 912.228 131.08 909.823 133.578C908.771 134.664 907.809 135.907 907.127 137.251C900.795 149.804 898.804 162.873 902.686 176.592C902.853 177.174 903.066 177.745 903.301 178.305C903.368 178.451 903.558 178.563 903.961 178.988Z" fill="#0E3572" fill-opacity="0.4"/>
<path d="M421.238 0.963235C416.685 6.34979 412.445 12.0499 407.5 17.0557C398.707 25.9475 389.601 34.5368 380.405 43.0142C362.193 59.801 345.311 77.7749 330.063 97.3165C315.565 115.906 304.523 136.187 298.728 159.156C298.382 160.533 298.203 161.955 297.99 163.355C297.934 163.736 298.024 164.139 298.08 165.024C299.769 164.43 301.335 164.094 302.689 163.366C309.759 159.581 316.852 155.818 323.81 151.82C333.151 146.456 342.28 140.723 351.688 135.493C353.903 134.261 356.968 133.813 359.519 134.104C363.222 134.518 363.96 136.769 362.875 140.275C360.571 147.744 357.696 155.158 356.51 162.806C354.351 176.76 358.512 189.224 368.021 199.773C368.29 200.075 368.614 200.333 368.916 200.602C375.058 205.876 378.112 205.809 383.817 200.187C389.154 194.935 393.517 188.978 396.917 182.303C398.204 179.783 398.461 177.398 398.17 174.498C396.738 159.951 389.187 148.909 379.197 138.964C369.285 129.098 357.584 128.326 344.976 131.461C344.081 131.685 343.253 132.906 342.772 133.858C341.967 135.448 338.353 135.706 336.574 134.149C334.639 132.458 334.326 129.658 335.981 126.892C338.375 122.883 342 120.307 346.307 118.728C352.113 116.612 358.132 115.716 364.296 116.309C366.276 116.5 367.137 115.895 367.976 114.171C370.986 107.888 373.481 101.471 373.973 94.4497C374.118 92.2995 374.756 89.679 371.344 89.3207C368.234 88.9847 365.303 90.9333 364.844 93.5314C364.24 96.9246 359.183 100.06 355.29 99.4443C351.106 98.7836 348.164 95.256 349.026 91.1685C350.793 82.6911 356.778 77.7525 364.363 74.7176C371.489 71.8732 378.246 73.1722 383.929 78.346C388.594 82.6015 389.713 88.2568 388.975 94.2929C387.901 102.983 384.589 110.755 379.029 117.53C378.638 118 378.246 118.471 377.877 118.952C377.765 119.098 377.732 119.322 377.586 119.736C388.393 125.739 395.698 135.134 401.683 145.684C408.093 156.983 411.55 169.089 410.678 182.18C409.346 202.058 395.038 220.311 376.087 226.482C367.439 229.293 360.246 226.863 354.485 219.035C349.305 211.98 346.889 203.805 345.289 195.35C342.929 182.897 343.298 170.455 345.625 158.036C345.793 157.14 345.949 156.233 346.072 155.326C346.095 155.146 345.972 154.945 345.815 154.452C344.719 155.057 343.678 155.617 342.649 156.21C333.476 161.451 324.436 166.961 315.073 171.844C310.352 174.307 305.172 176.166 299.981 177.387C292.15 179.224 286.277 174.811 285.964 166.782C285.774 161.989 286.49 157.005 287.687 152.347C294.142 127.127 305.81 104.562 322.658 84.6508C335.165 69.8686 348.511 55.9935 363.099 43.227C378.694 29.5646 393.707 15.2527 409.022 1.2656C409.693 0.649672 410.733 0.179328 411.628 0.134534C414.571 -0.0110488 417.513 0.0785405 420.466 0.0785405C420.701 0.380904 420.97 0.67207 421.238 0.963235Z" fill="#0E3572" fill-opacity="0.4"/>
<path d="M151.104 177.857C158.979 177.935 166.385 176.2 173.578 173.019C186.097 167.487 197.161 159.984 206.659 150.051C217.297 138.931 227.366 127.407 235.588 114.316C238.117 110.296 241.148 106.522 244.404 103.061C248.733 98.4361 254.181 95.2557 260.502 94.4494C263.22 94.1023 266.476 94.651 268.903 95.9165C273.099 98.1114 273.266 103.33 269.608 106.376C268.926 106.947 267.673 106.88 266.666 107.003C265.145 107.182 263.411 106.824 262.135 107.44C256.094 110.363 251.921 115.335 248.129 120.71C243.151 127.765 238.531 135.168 232.892 141.663C217.063 159.894 198.682 174.99 176.241 184.52C153.934 193.994 131.772 192.225 110.439 181.788C80.7481 167.263 62.2782 143.488 55.2415 111.079C52.4112 98.0666 54.0445 85.5465 60.6113 73.8775C63.2962 69.1069 66.1378 64.3474 69.4827 60.0359C84.451 40.6735 111.803 33.7415 134.323 43.3499C154.236 51.8497 164.506 75.5685 156.563 95.7149C154.314 101.415 151.26 107.003 147.591 111.897C139.357 122.872 123.371 127.866 110.673 124.103C102.093 121.55 96.9246 115.671 94.978 107.059C92.9644 98.1786 94.4075 89.9924 101.176 83.4187C107.027 77.741 115.797 77.0243 121.883 81.4366C125.183 83.8219 126.693 87.4055 125.955 90.6307C125.53 92.5233 124.557 93.2176 122.711 92.8032C121.223 92.4673 119.746 92.1089 118.247 91.8289C114.567 91.1234 111.624 92.792 110.282 96.3084C107.731 103.028 112.027 109.31 119.176 109.299C135.565 109.299 147.904 92.8704 143.653 77.0243C139.133 60.1479 126.727 54.2014 110.752 56.0828C98.7033 57.505 89.4628 63.4851 83.1309 73.9783C78.8015 81.1566 74.3603 88.3126 73.8121 96.9131C73.5212 101.437 73.5995 106.118 74.4498 110.553C77.7835 127.978 85.1782 143.108 98.8711 155.113C111.815 166.468 126.011 174.699 143.217 177.174C145.823 177.544 148.475 177.633 151.104 177.857Z" fill="#0E3572" fill-opacity="0.4"/>
<path d="M304.467 359.522C322.747 350.082 341.027 340.641 359.642 331.033C359.351 330.484 358.781 329.577 358.389 328.591C356.834 324.638 354.932 320.752 353.914 316.665C352.594 311.401 354.798 307.28 358.881 305.858C363.121 304.391 367.63 306.34 369.677 311.39C371.724 316.452 373.145 321.783 374.487 327.091C375.763 332.108 376.546 337.248 377.62 342.321C377.899 343.676 378.425 344.975 378.906 346.498C391.782 339.398 404.357 332.466 417.088 325.444C415.823 320.427 410.588 316.094 405.095 316.038C401.672 316.004 398.953 314.044 398.226 311.077C397.466 308.008 398.752 304.962 401.828 303.428C404.178 302.263 406.829 301.703 409.178 300.539C416.551 296.877 423.878 293.125 431.15 289.273C438.947 285.14 444.742 286.697 448.165 294.883C450.817 301.233 452.696 307.93 454.508 314.582C456.914 323.406 458.927 332.343 461.086 341.235C461.4 342.511 461.713 343.81 461.836 345.121C462.116 348.088 461.232 350.608 458.513 352.109C455.683 353.665 452.707 353.284 450.626 351.056C448.311 348.57 445.984 345.736 444.82 342.623C441.766 334.448 439.227 326.083 436.732 317.717C435.345 313.081 434.428 308.299 433.186 303.126C429.203 305.13 425.545 306.978 422.044 308.736C424.572 313.574 427.145 318.053 429.304 322.723C432.503 329.655 431.016 334.056 423.979 336.99C411.908 342.007 400.497 348.144 389.881 355.782C388.247 356.958 386.39 357.887 384.544 358.716C376.49 362.322 369.677 359.858 365.773 351.896C364.71 349.734 363.938 347.427 362.931 344.93C361.857 345.49 360.873 345.96 359.944 346.498C345.971 354.617 332.044 362.814 318.004 370.821C314.401 372.871 310.609 374.763 306.682 376.018C298.113 378.739 289.969 374.595 287.362 365.972C286.154 361.975 285.718 357.54 285.953 353.352C286.579 341.884 287.776 330.439 288.694 318.994C289.275 311.793 289.779 304.593 290.271 297.392C291.054 285.891 295.506 279.552 306.694 276.719C318.798 273.662 331.137 271.568 343.421 269.272C357.897 266.562 372.496 264.434 386.894 261.343C394.277 259.753 401.314 256.573 408.541 254.21C410.633 253.527 412.848 252.776 414.996 252.776C418.676 252.776 421.193 256.338 420.075 259.798C419.459 261.691 418.363 263.482 417.199 265.117C416.707 265.8 415.521 266.125 414.593 266.338C412.713 266.763 410.622 266.629 408.921 267.391C395.653 273.371 381.334 275.711 367.507 279.743C348.69 285.241 330.041 291.3 311.381 297.28C310.385 297.605 309.378 299.441 309.255 300.673C307.935 313.216 306.783 325.78 305.597 338.334C304.948 345.199 304.288 352.064 303.628 358.928C303.908 359.141 304.188 359.332 304.467 359.522Z" fill="#0E3572" fill-opacity="0.4"/>
<path d="M575.083 439.178C575.083 435.18 575.251 429.581 575.05 423.992C574.692 414.306 579.043 407.62 587.96 404.384C600.657 399.77 613.455 395.413 626.365 391.427C646.848 385.111 667.6 379.657 687.95 372.938C699.674 369.063 710.827 363.441 722.216 358.57C725.035 357.36 727.764 357.17 730.237 359.242C732.664 361.269 732.821 363.9 732.004 366.756C727.462 382.804 722.999 398.874 718.378 414.899C716.823 420.274 715.235 425.683 713.031 430.801C710.324 437.072 705.771 441.642 699.249 444.43C685.421 450.343 671.493 456.11 658.103 462.908C639.979 472.102 622.326 482.203 604.46 491.89C602.234 493.099 600.019 494.421 597.659 495.306C589.973 498.195 583.183 495.429 580.889 487.59C578.887 480.714 577.858 473.491 577.041 466.346C576.068 457.868 575.777 449.313 575.083 439.178ZM594.795 477.444C608.074 469.784 620.335 462.717 633.39 455.192C629.989 451.765 626.947 448.573 623.769 445.527C621.868 443.713 619.597 442.269 617.751 440.387C615.222 437.812 614.741 434.452 616.129 431.686C617.572 428.819 620.805 426.882 624.25 427.475C626.477 427.856 629.016 428.595 630.616 430.051C635.46 434.474 640.237 439.055 644.41 444.105C647.922 448.372 647.531 448.697 652.475 445.987C652.733 445.841 652.934 445.606 653.527 445.102C651.133 442.224 648.75 439.368 646.378 436.49C644.51 434.217 642.351 432.111 640.886 429.603C637.675 424.138 640.651 417.979 646.871 416.747C650.652 415.997 654.165 417.004 656.615 419.804C658.908 422.425 660.832 425.515 662.298 428.696C663.886 432.167 664.759 435.975 666.056 440.018C668.316 439.133 670.543 438.226 672.791 437.375C678.799 435.102 684.828 432.974 691.395 433.243C695.736 433.422 697.559 431.798 698.253 427.52C698.734 424.519 699.338 421.518 700.166 418.595C704.361 403.723 708.646 388.885 712.886 374.024C712.953 373.778 712.796 373.475 712.673 372.826C710.234 373.89 707.941 374.92 705.636 375.883C684.191 384.864 662.868 394.182 641.232 402.681C626.924 408.303 612.907 414.406 599.292 421.551C596.831 422.839 595.712 424.407 595.656 427.195C595.522 433.601 594.94 439.995 594.851 446.39C594.683 456.536 594.795 466.682 594.795 477.444Z" fill="#0E3572" fill-opacity="0.4"/>
<path d="M1381.28 247.849C1367.09 256.113 1353.36 264.132 1338.91 272.553C1340.61 273.729 1341.46 274.334 1342.35 274.916C1355.05 283.326 1365.8 293.718 1374.32 306.362C1380.4 315.377 1381.61 325.097 1378.42 335.501C1374.66 347.718 1365.33 352.825 1353.11 349.118C1351.96 348.771 1350.83 348.357 1349.35 347.853C1348.69 351.38 1348.36 354.718 1347.43 357.887C1345.72 363.71 1344.36 369.802 1341.6 375.133C1334.57 388.649 1323.87 391.158 1311.01 383.028C1305.64 379.635 1301.45 380.698 1298.48 386.298C1299.11 386.779 1299.78 387.227 1300.37 387.776C1302.2 389.467 1302.15 391.348 1300.32 393.017C1294.9 397.911 1286.56 395.413 1284.89 388.336C1283.82 383.778 1285.1 379.657 1287.71 375.928C1295.21 365.199 1307.87 362.837 1318.71 370.104C1324.62 374.069 1325.93 374.035 1329.65 367.809C1331.91 364.046 1333.62 359.779 1334.69 355.513C1336.15 349.611 1336.78 343.496 1337.76 337.472C1338.33 333.989 1339.45 330.842 1343.3 329.845C1347.02 328.882 1349.8 330.573 1352.04 333.44C1352.54 334.078 1353.1 334.672 1353.7 335.221C1359.23 340.327 1364.41 338.871 1366.42 331.727C1368.26 325.22 1367.35 319.251 1363.23 313.82C1355.45 303.562 1345.37 296.149 1334.09 290.213C1331.13 288.657 1328.03 287.29 1325.23 285.476C1316.38 279.72 1316.17 270.336 1325.13 264.826C1334.04 259.35 1343.52 254.814 1352.54 249.517C1361.38 244.332 1369.98 238.744 1378.61 233.19C1379.88 232.372 1380.93 230.939 1381.65 229.561C1383.42 226.157 1386.07 224.22 1389.87 224.253C1393.79 224.287 1396.92 226.19 1398.21 229.841C1399.4 233.246 1400.17 236.919 1400.41 240.525C1401.36 255.441 1402.09 270.38 1402.81 285.308C1404.43 318.333 1406.01 351.347 1407.57 384.372C1407.87 390.777 1408.3 397.194 1408.06 403.577C1407.93 407.116 1406.9 410.756 1405.58 414.07C1405.03 415.448 1402.6 416.904 1401.11 416.825C1399.65 416.747 1397.58 415.022 1397.03 413.555C1395.72 410.084 1394.66 406.366 1394.39 402.67C1393.36 388.773 1392.92 374.842 1391.84 360.955C1390.16 339.566 1388.19 318.199 1386.24 296.832C1384.85 281.635 1383.27 266.461 1381.77 251.275C1381.63 250.212 1381.45 249.148 1381.28 247.849Z" fill="#0E3572" fill-opacity="0.4"/>
<path d="M1296.54 307.526C1295.97 326.452 1293.9 342.914 1286.51 358.301C1282.79 366.062 1278.18 373.263 1272.22 379.455C1260.38 391.763 1259.55 406.209 1263.99 421.529C1265.96 428.304 1270.34 433.523 1277.02 436.49C1279.89 437.767 1282.77 439.066 1285.61 440.443C1288.73 441.955 1289.18 444.587 1286.28 446.457C1284.25 447.767 1281.63 448.663 1279.22 448.798C1264.98 449.581 1252.38 440.958 1248.15 426.669C1242.62 407.911 1245.42 390.016 1258.85 375.603C1279.31 353.642 1284.28 327.527 1282.24 299.027C1281.88 293.965 1281.18 288.892 1280.16 283.92C1275.98 263.516 1262.33 251.477 1243.73 244.758C1232.69 240.771 1223.34 245.519 1216.52 257.009C1215.52 258.7 1215.3 261.164 1215.49 263.202C1216.87 278.051 1224.74 288.948 1236.77 297.134C1239.82 299.217 1243.41 299.374 1246.76 298.198C1250.65 296.832 1254.42 295.006 1258.1 293.114C1261.33 291.445 1262.48 291.927 1262.74 295.611C1263.24 302.924 1260.56 308.68 1254.49 312.868C1244.23 319.957 1232.36 320.069 1222.35 312.644C1205.45 300.124 1196.73 283.337 1196.82 262.149C1196.84 256.035 1198.79 250.604 1202.52 245.755C1216.47 227.624 1237.4 222.898 1257.35 234.063C1279.37 246.393 1292.52 264.971 1295.03 290.493C1295.63 296.865 1296.16 303.248 1296.54 307.526Z" fill="#0E3572" fill-opacity="0.4"/>
<path d="M952.836 403.387C960.074 399.725 967.346 396.153 974.494 392.312C975.468 391.785 975.971 390.038 976.318 388.762C977.727 383.465 978.835 378.089 980.39 372.837C981.005 370.754 982.247 368.738 983.623 367.025C986.655 363.229 991.611 361.885 995.996 363.497C1000.59 365.188 1003.19 368.716 1003.12 373.487C1003.08 376.846 1002.66 380.687 1001.01 383.465C994.665 394.092 993.926 406.019 992.058 417.71C990.246 429.054 988.601 440.421 986.823 451.765C986.699 452.583 986.163 453.938 985.737 453.971C984.876 454.039 983.601 453.624 983.131 452.952C981.397 450.489 979.182 448.014 978.499 445.214C977.045 439.234 976.072 433.075 975.58 426.938C975.099 420.991 975.479 414.978 975.479 408.27C973.79 409.009 972.828 409.39 971.888 409.849C966.317 412.559 960.902 415.717 955.118 417.833C951.348 419.211 946.963 419.827 942.969 419.457C936.76 418.897 933.337 413.533 934.434 407.329C934.769 405.448 935.34 403.544 936.179 401.83C939.714 394.619 943.327 387.451 947.03 380.318C955.846 363.318 962.099 345.412 965.903 326.676C966.798 322.253 967.089 317.538 966.641 313.059C965.735 303.977 959.783 298.769 950.666 298.758C939.725 298.747 929.746 302.476 920.192 307.482C914.006 310.729 908.547 314.884 904.419 320.651C899.306 327.818 900 331.928 907.305 336.912C908.726 337.886 910.214 338.804 911.5 339.947C913.67 341.884 913.368 343.9 910.616 344.728C896.767 348.928 885.11 341.346 883.846 328.468C883.398 323.966 884.394 319.666 886.765 315.892C889.238 311.95 891.688 307.773 895.021 304.637C911.276 289.317 930.731 282.251 952.993 284.558C969.516 286.26 980.054 298.489 980.424 315.119C980.658 325.747 977.638 335.826 974.864 345.927C969.919 363.957 962.692 381.079 954.279 397.721C953.474 399.311 952.814 400.968 952.087 402.603C952.31 402.861 952.568 403.118 952.836 403.387Z" fill="#0E3572" fill-opacity="0.4"/>
<path d="M519.192 282.979C525.188 282.106 531.184 281.232 537.382 280.336C537.382 278.735 537.371 277.133 537.382 275.532C537.415 272.038 539.105 269.698 541.924 269.205C544.956 268.667 547.797 270.201 548.692 273.539C549.553 276.753 550.001 280.123 550.202 283.449C550.448 287.582 550.258 291.748 550.258 296.675C553.816 295.275 556.624 294.424 559.185 293.114C563.974 290.661 568.594 287.884 573.337 285.342C575.205 284.345 577.152 283.337 579.177 282.811C581.795 282.139 584.088 283.102 585.24 285.678C586.314 288.097 585.62 290.269 583.652 291.994C582.969 292.588 582.197 293.125 581.381 293.517C572.878 297.649 564.376 301.759 555.852 305.824C554.576 306.429 553.189 306.843 551.824 307.224C543.501 309.554 538.031 305.645 537.449 296.989C537.404 296.294 537.359 295.589 537.304 294.547C533.422 295.634 529.808 296.933 526.072 297.616C520.612 298.612 515.041 299.9 509.56 299.755C498.775 299.464 493.797 291.445 498.328 281.646C500.498 276.954 504.134 272.912 507.3 268.723C508.307 267.391 509.94 266.551 511.282 265.476C511.092 265.151 510.902 264.815 510.712 264.49C509.772 264.434 508.844 264.367 507.904 264.311C502.232 263.964 496.538 263.762 490.888 263.202C488.83 263.001 486.704 262.194 484.859 261.198C478.281 257.625 477.084 249.562 482.699 244.612C485.686 241.981 489.289 239.64 493.025 238.319C506.047 233.716 519.203 229.494 532.381 225.384C541.297 222.596 550.325 220.143 559.364 217.769C561.803 217.131 562.206 216.056 561.568 213.928C560.897 211.688 560.338 209.415 559.778 207.142C558.973 203.827 560.148 201.05 562.754 199.952C565.495 198.799 568.907 199.739 570.205 202.897C572.23 207.836 574.355 212.965 575.026 218.195C576.279 227.96 576.604 237.848 577.107 247.692C577.23 249.988 576.738 252.351 576.212 254.613C575.698 256.841 574.254 258.499 571.827 258.689C569.41 258.88 567.632 257.502 566.882 255.341C565.931 252.575 565.081 249.697 564.768 246.807C564.085 240.357 563.761 233.873 563.269 227.143C547.226 233.425 531.408 239.618 514.795 246.113C516.182 246.471 516.764 246.639 517.346 246.774C519.717 247.345 522.167 247.681 524.438 248.521C532.605 251.533 535.648 259.171 531.408 266.763C529.45 270.269 526.631 273.303 524.069 276.45C522.425 278.477 520.545 280.303 518.778 282.229C518.923 282.475 519.057 282.733 519.192 282.979Z" fill="#0E3572" fill-opacity="0.4"/>
<path d="M685.028 195.137C685.767 197.881 686.606 200.299 687.031 202.786C687.445 205.272 687.78 207.847 687.556 210.333C686.941 217.366 682.545 220.401 675.776 218.676C673.416 218.072 671.123 217.232 668.818 216.459C662.464 214.309 658.414 215.261 654.51 220.726C649.968 227.087 645.885 233.783 641.589 240.323C640.75 241.6 639.978 242.944 638.96 244.053C636.857 246.337 633.679 246.897 631.162 245.62C628.567 244.299 627.426 241.656 628.209 238.33C630.144 230.11 632.494 221.98 634.06 213.704C638.076 192.438 639.899 170.993 638.221 149.334C637.561 140.823 643.077 135.526 651.445 137.352C657.15 138.595 662.699 140.823 668.136 143.041C673.494 145.224 678.752 147.722 683.82 150.499C695.387 156.815 707.425 161.866 720.088 165.505C723.288 166.423 726.376 167.823 729.418 169.212C731.477 170.141 732.808 171.799 732.73 174.251C732.719 174.554 732.707 174.867 732.775 175.158C734.162 180.702 732.707 182.941 727.438 184.632C713.991 188.944 700.634 193.524 686.415 194.666C686.024 194.689 685.655 194.913 685.028 195.137ZM674.535 206.078C674.177 204.701 673.998 203.513 673.561 202.438C672.185 199.056 670.63 195.742 669.277 192.348C667.319 187.443 669.87 183.098 674.971 182.561C675.978 182.46 676.996 182.594 678.014 182.55C686.315 182.169 694.615 181.822 702.905 181.318C705.008 181.183 707.1 180.556 709.159 180.03C711.105 179.537 713.018 178.888 714.942 178.305C701.719 174.912 689.738 169.145 677.566 163.781C670.899 160.847 663.896 158.652 657.038 156.177C656.233 155.886 655.326 155.841 655.024 155.796C652.742 173.904 650.494 191.732 648.2 210.009C655.696 200.423 665.003 203.861 674.535 206.078Z" fill="#0E3572" fill-opacity="0.4"/>
<path d="M1143.91 360.989C1143.72 362.669 1143.62 363.867 1143.44 365.065C1142.23 373.386 1136.32 379.276 1127.98 380.385C1122.89 381.068 1118.69 379.232 1115.66 375.223C1112.98 371.661 1110.83 367.697 1108.24 364.069C1106.18 361.191 1103.88 358.458 1101.49 355.849C1100.25 354.494 1098.69 353.833 1096.56 354.595C1093.91 355.546 1091.02 353.934 1090.34 351.649C1089.65 349.354 1090.99 347.282 1093.96 346.162C1098.58 344.426 1103.19 344.762 1106.94 347.898C1110.64 351 1113.87 354.684 1117.12 358.301C1119.14 360.563 1120.7 363.251 1122.67 365.569C1123.5 366.532 1125.25 367.876 1125.91 367.574C1127.39 366.902 1129.29 365.435 1129.53 364.046C1130.13 360.485 1129.98 356.79 1130.02 353.15C1130.03 351.739 1129.72 350.317 1129.63 348.906C1129.42 345.49 1130.4 342.578 1133.75 341.123C1137.01 339.7 1139.85 340.686 1142.42 343.004C1145.3 345.58 1148.15 348.211 1151.26 350.485C1161.34 357.898 1175.39 357.697 1185.39 350.171C1189.95 346.744 1190.91 343.967 1189.28 338.513C1187.16 331.436 1183.11 325.713 1176.97 321.581C1152.2 304.94 1125.43 302.017 1097.11 310.08C1096.43 310.27 1095.48 310.438 1095.2 310.92C1094.06 312.913 1092.51 313.193 1090.58 312.364C1088.31 311.39 1086.7 309.52 1087.07 307.179C1087.45 304.693 1088.26 301.826 1089.9 300.102C1092.21 297.683 1095.27 295.746 1098.35 294.323C1111.98 287.996 1126.34 287.313 1141.03 289.318C1156.72 291.468 1171.12 296.765 1184.06 306.004C1195.39 314.1 1201.51 325.344 1204.06 338.704C1205.68 347.114 1202.53 353.833 1195.94 359.108C1184.12 368.559 1161.84 372.669 1146.1 362.142C1145.56 361.784 1144.92 361.515 1143.91 360.989Z" fill="#0E3572" fill-opacity="0.4"/>
<path d="M568.963 117.228C571.089 133.869 573.114 149.67 575.194 165.92C579.032 163.949 582.466 162.258 585.8 160.387C586.337 160.085 586.493 158.999 586.728 158.237C587.735 155.001 589.961 153.175 592.836 153.276C595.79 153.377 598.161 155.426 598.698 158.92C599.705 165.404 600.477 171.911 601.316 178.417C603.99 199.101 606.16 219.841 606.44 240.727C606.462 242.843 606.429 245.049 605.825 247.031C605.455 248.263 604.035 249.898 602.949 250.01C601.652 250.156 599.649 249.215 598.945 248.118C597.725 246.214 596.909 243.873 596.573 241.622C594.224 225.732 592.031 209.818 589.816 193.905C588.775 186.469 587.78 179.022 586.684 170.959C583.976 172.997 581.526 174.722 579.199 176.603C570.127 183.927 564.097 181.934 561.904 170.433C559.186 156.154 557.239 141.719 554.331 127.486C552.619 119.064 549.979 110.8 547.238 102.636C544.687 95.0544 549.162 87.9432 557.25 88.212C560.495 88.324 564.063 89.1303 566.838 90.7541C572.856 94.2817 578.976 97.9436 584.099 102.602C593.183 110.856 601.551 119.893 610.21 128.606C610.635 129.031 611.004 129.535 611.329 130.05C613.063 132.861 612.011 135.123 608.767 134.821C604.661 134.44 600.298 134.149 596.618 132.525C589.682 129.457 583.126 125.515 576.459 121.853C574.076 120.565 571.827 119.02 568.963 117.228Z" fill="#0E3572" fill-opacity="0.4"/>
<path d="M1439.55 435.471C1439.55 441.429 1439.62 447.006 1439.47 452.583C1439.45 453.322 1438.57 454.352 1437.83 454.722C1422.06 462.729 1410.35 475.047 1400.71 489.594C1397.19 494.914 1393.46 500.11 1389.85 505.373C1389.39 506.045 1388.96 506.762 1388.68 507.512C1387.64 510.345 1386.02 512.372 1382.65 511.902C1379.74 511.499 1376.95 508.632 1376.61 505.429C1376.27 502.103 1376.16 498.732 1376.1 495.384C1375.88 483.289 1375.71 471.195 1375.51 459.1C1375.5 458.608 1375.43 458.115 1375.35 457.23C1374.47 457.7 1373.78 458.003 1373.17 458.417C1372.07 459.145 1371.03 459.974 1369.92 460.691C1366.46 462.93 1362.81 464.565 1358.84 462.113C1354.9 459.671 1354.6 455.674 1355.05 451.575C1355.58 446.625 1356.31 441.698 1356.85 436.748C1357.01 435.247 1356.86 433.713 1356.85 432.19C1356.82 429.233 1355.13 428.058 1352.38 427.979C1349.94 427.901 1347.49 427.934 1345.09 427.632C1340.89 427.117 1337.48 425.224 1335.96 421.036C1334.47 416.937 1336.03 413.421 1338.72 410.386C1340.07 408.874 1341.72 407.654 1343.2 406.254C1346.38 403.264 1349.69 400.397 1352.66 397.216C1356.87 392.715 1358.45 387.35 1357.29 381.158C1356.43 376.555 1357.88 373.878 1361.15 373.128C1364.61 372.333 1367.74 374.416 1369.05 378.649C1371.74 387.294 1369.89 395.245 1364.5 402.233C1360.97 406.803 1356.78 410.856 1352.89 415.134C1352.09 416.008 1351.26 416.87 1350.15 418.068C1352.76 418.752 1354.89 419.323 1357.03 419.86C1362.74 421.316 1366.34 424.956 1367.09 430.779C1367.68 435.281 1367.54 439.883 1367.69 444.452C1367.74 446.065 1367.7 447.678 1367.7 449.839C1368.87 449.111 1369.75 448.551 1370.64 448.002C1372.36 446.939 1374 445.662 1375.84 444.867C1380.57 442.829 1385.02 444.676 1385.99 449.716C1387.02 455.058 1386.94 460.601 1387.48 466.055C1387.61 467.41 1387.94 469.616 1388.71 469.885C1390.74 470.59 1392.9 470.613 1394.54 468.194C1400.2 459.817 1406.6 452.079 1415.04 446.278C1422.38 441.238 1430.29 437.453 1439.55 435.471Z" fill="#0E3572" fill-opacity="0.4"/>
<path d="M1073.14 47.6956C1061.33 32.0622 1049.61 16.5521 1037.88 1.03072C1038.08 0.728359 1038.29 0.437194 1038.5 0.13483C1044.31 0.13483 1050.14 0.0452407 1055.96 0.235618C1056.79 0.258015 1057.68 1.50107 1058.39 2.31857C1069.31 15.0514 1080.15 27.8403 1091.11 40.5172C1093.83 43.664 1096.98 46.4301 1099.86 49.4425C1101.11 50.764 1102.27 52.2086 1103.3 53.7092C1105.9 57.4944 1105.92 61.4363 1103.5 64.4711C1100.98 67.6516 1096.68 68.4467 1092.42 66.9684C1088.51 65.6134 1084.53 64.2248 1080.47 63.6312C1065.24 61.4027 1051.31 66.0726 1037.79 72.355C1027.45 77.1592 1018.34 83.8336 1010.53 92.1206C999.14 104.215 995.214 118.818 996.925 135.157C997.138 137.173 998.335 139.95 995.739 140.801C993.278 141.619 991.835 139.166 990.783 137.173C990.034 135.751 989.385 134.205 989.072 132.637C985.056 112.737 987.864 94.5956 1002.79 79.5669C1021.68 60.5628 1044.3 49.6665 1071.19 48.0091C1071.86 47.9419 1072.52 47.7851 1073.14 47.6956Z" fill="#0E3572" fill-opacity="0.4"/>
<path d="M1393.96 177.891C1393.42 183.445 1392.98 189.011 1392.29 194.554C1391.84 198.138 1390.3 198.888 1386.75 197.936C1385.93 197.724 1384.75 197.903 1384.05 198.384C1366.56 210.4 1349.1 222.484 1331.65 234.567C1330.49 235.373 1329.4 236.325 1328.21 237.076C1322.83 240.491 1317.38 238.128 1316.35 231.857C1315.79 228.453 1315.74 224.959 1315.08 221.577C1314.82 220.199 1313.78 218.721 1312.67 217.814C1310.1 215.697 1309.47 212.719 1311.73 210.109C1313.24 208.351 1315.06 206.828 1316.86 205.361C1331.83 193.188 1346.73 180.903 1361.89 168.977C1366.4 165.427 1371.59 162.672 1376.68 159.95C1378.93 158.741 1381.67 158.136 1384.24 157.912C1389.1 157.498 1392.09 160.253 1392.68 165.091C1392.91 167.006 1393.19 168.921 1393.28 170.847C1393.38 173.176 1393.3 175.517 1393.3 177.857C1393.54 177.868 1393.75 177.88 1393.96 177.891ZM1329.47 220.782C1334.89 217.299 1340.05 214.107 1345.07 210.703C1356.6 202.875 1368.2 195.204 1381.12 189.761C1381.68 189.526 1382.49 188.821 1382.44 188.406C1382.14 184.811 1381.68 181.239 1381.2 177.152C1379.71 178.081 1378.68 178.675 1377.69 179.335C1363.77 188.697 1349.87 198.048 1335.96 207.433C1333.6 209.023 1331.24 210.613 1328.98 212.349C1328.39 212.808 1327.76 213.838 1327.86 214.488C1328.17 216.459 1328.83 218.374 1329.47 220.782Z" fill="#0E3572" fill-opacity="0.4"/>
<path d="M316.259 0.0784254C312.657 11.4675 308.831 22.2966 305.822 33.3609C302.354 46.1049 299.658 59.0506 296.503 71.8731C295.854 74.5159 294.948 77.1588 293.729 79.5889C291.715 83.5869 287.956 85.457 284.264 84.7739C280.573 84.0796 278.324 81.3023 277.362 76.8341C277.105 75.6358 276.131 74.0232 275.102 73.6424C269.609 71.6043 264.049 69.6893 258.389 68.1775C255.178 67.3152 251.934 68.4239 249.831 71.0219C246.709 74.8631 243.901 78.973 241.149 83.0941C240.478 84.102 240.277 85.625 240.366 86.8681C240.534 89.0518 239.482 89.9925 237.637 90.6196C233.531 92.0194 228.765 90.1493 227.132 85.7482C226.192 83.2061 225.845 80.1601 226.192 77.4612C227.904 64.1908 238.923 52.1858 251.24 49.8341C256.856 48.759 262.382 49.5093 267.808 51.0547C272.462 52.3874 277.06 53.944 282.016 55.5118C282.541 53.664 283.056 51.8386 283.582 50.0133C288.079 34.3911 292.599 18.7802 297.029 3.13566C297.689 0.817537 298.718 -0.111952 301.269 0.0112334C306.247 0.257604 311.225 0.0784254 316.259 0.0784254Z" fill="#0E3572" fill-opacity="0.4"/>
<path d="M694.192 252.967C690.735 251.063 688.978 248.252 689.292 244.735C689.571 241.566 690.399 238.319 691.63 235.373C694.147 229.349 698.353 224.5 703.421 220.446C741.927 189.593 788.152 207.433 806.342 241.734C810.537 249.641 811.969 257.939 807.673 266.282C806.409 268.723 804.474 271.041 802.315 272.743C799.451 275.005 796.497 273.617 795.703 270.022C795.356 268.443 795.155 266.808 795.099 265.184C794.875 259.204 792.336 254.266 788.599 249.752C777.278 236.09 763.115 227.21 745.596 223.973C736.691 222.327 727.965 223.256 719.62 226.84C711.901 230.155 704.886 234.657 698.924 240.592C695.959 243.537 693.095 246.729 694.605 251.555C694.673 251.847 694.393 252.261 694.192 252.967Z" fill="#0E3572" fill-opacity="0.4"/>
<path d="M1317.41 0.0786368C1325.24 0.0786368 1333.06 0.000246212 1340.89 0.13463C1342.86 0.168226 1344.97 0.582577 1346.73 1.40008C1354.65 5.03964 1361.91 9.79908 1367.76 16.2719C1370.57 19.3739 1372.78 23.1591 1374.57 26.9666C1375.57 29.1056 1375.65 31.9612 1375.33 34.3801C1374.78 38.5236 1371.93 40.1474 1368.04 38.6692C1365.42 37.6725 1362.97 36.1495 1360.5 34.7385C1353.37 30.6622 1346.53 25.914 1339.08 22.5208C1321.47 14.4913 1304.28 15.6672 1288.18 26.8546C1285.45 28.7472 1282.83 30.9981 1280.72 33.5402C1279.28 35.276 1278.46 37.7621 1278 40.0355C1277.44 42.7679 1276.74 43.4958 1273.97 42.6783C1268 40.909 1263.68 34.8281 1264.96 28.5344C1265.77 24.4917 1267.57 20.3706 1269.92 16.955C1274.72 9.98945 1281.36 4.87166 1288.96 1.14251C1290.36 0.459391 1292.06 0.145829 1293.63 0.123431C1301.55 0.0338422 1309.48 0.0786368 1317.41 0.0786368Z" fill="#0E3572" fill-opacity="0.4"/>
<path d="M1436.34 369.276C1436.34 373.33 1436.43 376.073 1436.32 378.817C1436.14 383.543 1433.61 386.735 1430.07 386.925C1426.66 387.115 1423.71 384.338 1423.11 379.769C1422.35 374.125 1421.69 368.447 1421.49 362.769C1420.37 330.853 1419.72 298.915 1418.29 267.01C1417.26 244.153 1415.28 221.353 1413.69 198.519C1413.1 189.996 1412.36 181.485 1411.73 172.963C1411.63 171.552 1411.63 170.096 1411.83 168.708C1412.26 165.684 1414.19 163.758 1416.78 163.814C1419.63 163.881 1421.45 165.539 1421.79 168.237C1422.45 173.478 1422.96 178.753 1423.2 184.028C1423.69 194.7 1424.01 205.372 1424.29 216.056C1425.03 243.84 1427.81 271.467 1430.51 299.105C1432.84 322.891 1434.48 346.744 1436.34 369.276Z" fill="#0E3572" fill-opacity="0.4"/>
<path d="M15.2695 94.5503C15.359 81.9182 17.4958 69.7564 22.6978 58.2666C31.5244 38.8257 46.0675 25.7905 66.7413 20.0344C69.5828 19.2505 72.7599 19.4745 75.7692 19.6088C76.9215 19.6648 78.2528 20.5719 79.0918 21.479C80.4902 22.9572 79.9532 24.1107 78.0514 24.917C75.758 25.8913 73.2857 26.7536 71.4063 28.299C66.3162 32.4985 61.3267 36.8548 56.6058 41.4574C42.7002 55.075 37.1738 72.3657 35.6188 91.2131C35.1713 96.566 35.2608 101.986 35.4398 107.362C35.6412 113.375 37.5542 118.93 40.7984 124.014C41.671 125.38 42.566 126.758 43.2708 128.213C44.4454 130.644 44.6803 133.163 42.924 135.414C41.19 137.643 38.7065 138.158 36.0551 137.732C31.6138 137.016 28.2242 134.485 25.3491 131.192C20.5722 125.716 18.1558 119.165 17.1266 112.121C16.2764 106.298 15.8736 100.407 15.2695 94.5503Z" fill="#0E3572" fill-opacity="0.4"/>
<path d="M1062.71 135.896C1067.2 134.642 1071.5 133.007 1075.95 132.301C1082.25 131.305 1088.09 132.984 1092.92 137.318C1097.12 141.081 1098.08 146.434 1095.71 151.507C1091.36 160.835 1077.61 168.507 1067.43 167.286C1056.09 165.931 1047.65 157.196 1046.05 145.135C1044.57 133.981 1047.31 123.521 1051.53 113.364C1056.41 101.651 1063.12 91.1462 1073.3 83.3519C1076.15 81.1682 1079.81 79.5444 1083.33 78.85C1087.57 78.0101 1091.16 80.877 1092.23 84.6062C1093.17 87.9322 1091.28 92.2212 1087.9 94.2706C1087.32 94.6178 1086.43 95.0545 1085.93 94.8529C1083.26 93.7443 1082.01 95.6256 1080.62 97.1934C1071.16 107.787 1065.68 120.319 1062.68 134.059C1062.59 134.451 1062.57 134.866 1062.56 135.269C1062.55 135.448 1062.64 135.638 1062.71 135.896ZM1082.49 148.819C1075.91 147.274 1070.23 148.819 1064.64 151.585C1068.89 157.487 1077.87 156.21 1082.49 148.819Z" fill="#0E3572" fill-opacity="0.4"/>
<path d="M230.834 464.868C220.128 464.207 209.926 461.889 199.981 458.563C174.071 449.895 152.122 435.482 135.89 413.152C127.03 400.968 121.347 387.518 121.481 372.165C121.514 368.682 122.365 365.11 123.394 361.75C124.278 358.85 127.119 357.54 129.647 358.111C132.232 358.704 134.279 361.011 133.887 364.012C131.583 382.076 139.369 396.601 150.355 409.658C166.878 429.301 187.362 443.109 212.644 448.954C222.03 451.127 231.573 451.216 241.104 449.57C242.1 449.402 243.118 449.268 244.125 449.245C247.962 449.145 250.781 451.104 251.463 454.307C252.157 457.521 250.513 460.971 246.888 461.922C241.664 463.3 236.204 463.927 230.834 464.868Z" fill="#0E3572" fill-opacity="0.4"/>
<path d="M578.887 0.179932C585.073 0.179932 590.835 0.179932 597.032 0.179932C597.032 1.44538 597.055 2.62124 597.032 3.7971C596.764 17.3811 599.27 30.5059 603.834 43.2388C610.155 60.8879 622.74 73.3184 637.809 83.5764C644.018 87.8095 650.629 91.4602 656.715 95.8501C659.21 97.6419 661.246 100.453 662.7 103.219C664.132 105.94 662.969 106.657 659.915 106.937C652.721 107.62 646.591 104.921 640.561 101.629C634.945 98.5602 629.24 95.6485 623.747 92.3897C600.478 78.5482 586.438 58.2226 581.337 31.6146C579.569 22.3869 578.394 13.148 578.719 3.7523C578.752 2.65484 578.82 1.55737 578.887 0.179932Z" fill="#0E3572" fill-opacity="0.4"/>
<path d="M21.3906 391.595C16.1886 391.707 10.8747 389.154 6.70197 384.484C5.07984 382.669 3.50247 380.206 3.2116 377.876C1.01894 360.003 9.71129 344.706 27.9015 339.734C33.8083 338.121 39.6031 339.073 45.0401 341.895C53.8779 346.464 57.055 353.788 55.7014 363.632C53.5311 379.511 38.3502 391.001 21.3906 391.595Z" fill="#0E3572" fill-opacity="0.4"/>
<path d="M694.001 0.0898496C696.753 0.0898496 700.064 -0.022137 703.365 0.16824C704.136 0.213035 705.177 1.10893 705.535 1.87044C707.906 6.80905 710.144 11.8037 712.37 16.7983C712.896 17.9853 713.243 19.262 713.757 20.7514C714.54 20.3258 715.167 20.0907 715.682 19.6987C723.882 13.5954 733.189 9.91108 742.944 7.2234C748.393 5.72278 752.879 7.2234 755.944 11.9604C759.58 17.5934 762.992 23.3607 766.381 29.1504C767.757 31.4909 769.145 32.2412 772.008 31.3789C777.434 29.7439 783.061 28.7472 788.599 27.4706C789.572 27.2466 790.534 26.989 790.948 26.8883C789.326 17.9965 787.749 9.35114 786.104 0.325022C791.664 0.325022 796.385 0.325022 801.744 0.325022C803.88 9.31755 806.174 18.534 808.176 27.8065C808.534 29.4639 807.975 31.4797 807.36 33.1483C806.084 36.5975 803.086 37.5606 799.652 36.3063C798.141 35.7464 796.262 35.4216 794.752 35.7912C789.046 37.2134 783.397 38.882 777.803 40.6738C776.125 41.2113 774.537 42.2976 773.138 43.4175C769.726 46.1276 766.158 46.4411 763.014 43.2607C759.814 40.0467 757.074 36.3511 754.366 32.678C751.961 29.4079 749.836 25.9364 747.677 22.4872C746.569 20.7178 745.215 20.1803 743.347 21.1097C736.445 24.5141 729.24 27.4258 722.729 31.4461C712.918 37.5158 707.392 35.9816 703.376 25.1189C700.322 16.7983 697.156 8.50005 694.001 0.0898496Z" fill="#0E3572" fill-opacity="0.4"/>
<path d="M1412.1 0.0784484C1409.96 22.5878 1409.34 44.5595 1413.23 66.7665C1416.56 64.6835 1419.49 62.7014 1422.56 60.9544C1429.9 56.7661 1433.98 59.297 1434.45 67.808C1435.36 84.3484 1436 100.934 1437.92 117.373C1438.51 122.435 1439.3 127.508 1439.61 132.637C1439.8 135.761 1438.81 137.732 1435.73 138.516C1432.67 139.3 1429.23 138.001 1428.01 135.09C1426.81 132.2 1425.75 129.132 1425.35 126.052C1424.57 120.117 1424.22 114.114 1423.87 108.123C1423.23 97.2604 1422.72 86.3977 1422.13 75.535C1422.11 75.1431 1421.99 74.7623 1421.81 73.9C1418.88 75.983 1416.27 77.8979 1414.79 81.0448C1413.19 84.4268 1410.7 85.9386 1407.63 85.513C1404.54 85.0875 1402.28 82.8142 1401.95 79.2418C1399.94 56.9677 1397.33 34.6935 1400.53 12.3074C1401 8.99258 1401.76 5.71138 1402.3 2.39657C1402.6 0.526395 1403.54 -0.10073 1405.4 0.0448525C1407.5 0.201634 1409.62 0.0784484 1412.1 0.0784484Z" fill="#0E3572" fill-opacity="0.4"/>
<path d="M249.684 16.1819C253.499 17.1114 257.537 17.5481 261.073 19.1159C263.69 20.2806 266.207 22.5315 267.807 24.9392C271.085 29.8778 269.083 35.8243 263.59 38.0753C261.106 39.0943 258.298 39.6879 255.613 39.7999C230.006 40.8301 216.906 61.0325 210.686 77.9649C209.937 80.0031 210.865 82.6571 211.022 85.0201C211.078 85.7816 211.458 86.9686 211.145 87.1926C210.552 87.6293 209.511 87.7301 208.728 87.5845C203.649 86.6215 200.595 83.2619 198.738 78.6704C196.389 72.8359 196.814 66.9006 198.47 61.0101C201.983 48.4564 208.605 37.7729 218.159 28.9372C227.008 20.7397 237.636 17.0554 249.684 16.1819Z" fill="#0E3572" fill-opacity="0.4"/>
<path d="M490.81 159.01C490.631 152.795 492.79 147.207 495.576 141.865C497.399 138.36 500.655 136.411 504.291 135.112C522.212 128.695 544.083 143.936 544.228 163.008C544.24 165.012 543.971 167.084 543.445 169.021C540.112 181.161 524.55 191.172 512.099 189.235C505.387 188.182 500.207 184.666 496.594 178.966C492.746 172.874 490.933 166.166 490.81 159.01ZM506.114 157.924C505.857 158.013 505.599 158.103 505.342 158.181C506.685 162.258 507.792 166.446 509.47 170.388C510.622 173.098 513.173 174.408 516.25 173.859C520.478 173.098 524.315 171.295 526.709 167.711C527.862 165.987 528.634 163.165 528.052 161.306C526.553 156.513 522.391 154.161 517.827 152.615C516.54 152.179 515.108 152.056 513.911 151.462C509.246 149.155 506.808 150.398 506.293 155.494C506.226 156.3 506.17 157.117 506.114 157.924Z" fill="#0E3572" fill-opacity="0.4"/>
<path d="M509.549 72.142C509.493 83.3294 506.718 92.8147 499.76 100.755C486.28 116.13 464.845 113.331 455.705 95.0544C448.546 80.7313 451.331 61.3913 462.239 49.7894C476.01 35.1528 497.097 38.8259 505.13 57.2253C505.857 58.8827 506.718 60.5066 507.703 62.0296C509.895 65.4228 510.074 69.0959 509.549 72.142ZM462.82 78.5028C463.346 80.4738 463.883 84.4829 465.46 88.0217C470.416 99.1419 481.76 100.889 490.15 92.098C498.507 83.3518 498.82 72.3883 495.889 62.1304C492.925 51.7604 481.1 47.2697 471.446 55.9935C465.438 61.436 463.167 68.592 462.82 78.5028Z" fill="#0E3572" fill-opacity="0.4"/>
<path d="M726.678 271.993C727.517 267.547 728.333 262.463 729.486 257.469C730.28 254.019 733.67 251.5 737.54 251.679C740.214 251.802 742.955 252.519 745.472 253.493C754.097 256.819 762.655 260.313 771.169 263.897C773.954 265.072 776.807 266.394 779.123 268.264C783.911 272.139 783.027 277.985 777.624 280.941C776.315 281.658 775.219 282.766 774.01 283.673C768.271 288.007 762.622 292.464 756.749 296.597C754.903 297.896 752.486 298.534 750.238 299.105C739.644 301.826 731.007 296.698 728.58 286.025C727.584 281.691 727.349 277.189 726.678 271.993ZM743.492 272.632C744.342 277.033 744.913 280.807 745.875 284.469C746.076 285.241 747.721 286.227 748.616 286.137C754.489 285.611 759.467 282.845 764.837 279.384C757.543 277.077 750.931 274.995 743.492 272.632Z" fill="#0E3572" fill-opacity="0.4"/>
<path d="M707.46 41.6142C715.895 41.8605 723.637 43.6075 730.517 48.2326C739.399 54.2127 740.865 63.1716 734.141 71.4922C728.682 78.245 721.366 81.7278 712.752 82.3213C708.926 82.5901 705.066 82.5677 701.218 82.5117C692.19 82.3661 684.829 76.3972 683.52 68.2782C683.408 67.5727 683.262 66.856 683.33 66.1616C684.37 56.0044 692.38 40.0799 707.46 41.6142ZM709.72 68.4014C709.888 68.1998 710.055 67.9982 710.223 67.7966C711.118 67.6287 712.024 67.5391 712.897 67.2815C715.47 66.52 718.312 65.5569 718.636 62.5893C718.972 59.5208 716.186 58.2218 713.859 56.9675C713.154 56.5868 712.36 56.374 711.588 56.1612C709.25 55.5005 707.136 55.8589 705.569 57.8298C703.981 59.8344 702.862 62.3205 704.451 64.5266C705.67 66.2064 707.93 67.1359 709.72 68.4014Z" fill="#0E3572" fill-opacity="0.4"/>
<path d="M972.649 0.358643C973.32 5.38684 974.305 10.4822 974.595 15.6112C974.853 20.1131 971.53 22.9351 965.735 23.9766C962.838 24.4918 959.951 25.0741 957.032 25.3877C947.679 26.3843 939.132 29.6767 931.033 34.3354C929.802 35.0409 928.46 35.5448 927.151 36.0824C922.676 37.9302 919.902 36.0936 918.134 31.267C917.552 29.6879 917.362 27.8514 917.452 26.1604C917.91 17.6494 918.515 9.16079 919.085 0.369841C936.649 0.358643 954.436 0.358643 972.649 0.358643Z" fill="#0E3572" fill-opacity="0.4"/>
<path d="M1069.98 202.393C1067.94 205.036 1066.27 207.186 1064.61 209.348C1060.19 215.025 1055.05 219.908 1048.74 223.424C1038.68 229.035 1030.77 225.866 1027.59 214.813C1025.28 206.805 1024.97 198.563 1025.65 190.299C1025.99 186.312 1028.27 184.195 1031.58 184.296C1034.76 184.397 1036.68 186.435 1037.03 190.467C1037.56 196.648 1037.7 202.864 1038.4 209.023C1039.25 216.503 1040.74 217.108 1047.04 213.122C1051.84 210.087 1055.79 206.212 1058.7 201.285C1060.14 198.843 1061.61 196.357 1063.4 194.173C1068.47 188.003 1075.2 188.328 1079.52 195.024C1081.44 197.992 1082.74 201.363 1084.48 204.465C1085.66 206.57 1087 208.631 1088.49 210.523C1089.8 212.192 1091.62 212.349 1093.38 211.117C1096 209.292 1098.29 207.242 1098.95 203.827C1099.5 201.005 1101.48 199.56 1103.9 199.985C1106.52 200.445 1107.83 202.27 1107.65 204.756C1107.46 207.612 1107.49 210.669 1104.16 212.27C1103.18 212.741 1102.65 214.141 1101.87 215.07C1095.06 223.211 1086.31 223.693 1079.06 215.977C1076.31 213.054 1074.29 209.437 1072 206.089C1071.33 205.103 1070.85 203.995 1069.98 202.393Z" fill="#0E3572" fill-opacity="0.4"/>
<path d="M846.649 321.894C846.761 317.191 847.869 311.771 851.404 307.112C853.686 304.1 856.528 301.894 860.387 301.3C866.115 300.427 870.142 304.772 868.822 310.393C868.688 310.987 868.498 311.569 868.296 312.14C863.933 324.582 868.017 338.379 878.465 346.52C881.52 348.894 884.82 350.35 888.825 350.339C892.874 350.328 895.358 352.355 895.772 355.412C896.163 358.335 894.116 361.023 890.38 362.21C884.82 363.979 879.293 363.307 873.912 361.437C858.586 356.129 846.638 339.163 846.649 321.894Z" fill="#0E3572" fill-opacity="0.4"/>
<path d="M521.485 0.213623C528.712 0.213623 535.38 0.213623 542.36 0.213623C542.148 2.0502 541.969 3.7188 541.756 5.3874C540.425 15.6678 541.465 25.8586 542.517 36.0941C543.121 41.9174 542.976 47.8415 542.875 53.7096C542.841 55.6694 542.103 57.7076 541.331 59.5665C539.53 63.9452 535.111 65.513 531.442 62.5454C528.869 60.4736 526.643 57.506 525.289 54.4711C519.405 41.3687 517.928 27.5048 519.36 13.3049C519.807 8.98218 520.747 4.70429 521.485 0.213623Z" fill="#0E3572" fill-opacity="0.4"/>
<path d="M1173.7 0.236084C1179.8 0.236084 1185.65 0.236084 1191.71 0.236084C1187.57 18.4675 1182.13 35.8142 1167.82 48.8159C1162.87 53.3065 1157.44 57.0805 1151.04 59.0739C1148.41 59.8914 1145.43 60.1153 1142.67 59.8914C1139.1 59.6002 1136.59 56.8677 1136.05 53.6649C1135.5 50.4733 1137.11 47.4272 1140.41 45.6803C1142.29 44.6836 1144.34 44.0005 1146.2 42.9702C1161.3 34.7168 1170.25 22.0959 1172.94 5.06271C1173.19 3.56209 1173.41 2.05027 1173.7 0.236084Z" fill="#0E3572" fill-opacity="0.4"/>
<path d="M138.888 159.245C128.786 158.629 117.811 155.964 107.889 149.838C105.506 148.371 103.358 146.389 101.456 144.317C99.4982 142.201 99.0843 139.524 100.964 137.06C102.866 134.563 105.461 134.563 108.123 135.661C109.153 136.086 110.126 136.657 111.066 137.251C118.113 141.686 125.81 144.463 133.876 146.411C141.897 148.36 149.37 147.162 156.541 143.209C163.634 139.289 169.138 133.645 174.082 127.374C176.476 124.339 178.691 121.158 181.119 118.168C183.412 115.346 185.93 114.652 188.301 115.895C190.774 117.194 191.848 120.005 190.606 123.331C189.588 126.063 188.469 129.031 186.556 131.103C180.627 137.486 174.698 143.992 168.008 149.525C160.155 156.02 150.668 159.155 138.888 159.245Z" fill="#0E3572" fill-opacity="0.4"/>
<path d="M1020.87 309.15C1027.78 308.355 1034.12 307.694 1040.44 306.877C1048.4 305.858 1056.34 304.66 1064.29 303.652C1066.4 303.383 1068.58 303.26 1070.66 303.517C1071.78 303.652 1073.52 304.637 1073.65 305.455C1073.81 306.552 1073 308.21 1072.08 308.971C1070.71 310.091 1068.96 310.987 1067.22 311.379C1050 315.276 1032.76 319.084 1015.5 322.79C1013.78 323.16 1011.81 322.925 1010.09 322.499C1005.43 321.357 1002.99 317.292 1004.41 312.711C1005.58 308.938 1007.33 305.354 1008.76 301.658C1011.77 293.887 1014.77 286.115 1017.71 278.32C1018.69 275.711 1020.01 273.527 1022.98 272.956C1027.7 272.049 1031.35 275.946 1030.03 281.176C1028.3 287.962 1025.94 294.581 1023.8 301.244C1022.98 303.73 1021.98 306.149 1020.87 309.15Z" fill="#0E3572" fill-opacity="0.4"/>
<path d="M1034.96 382.625C1032.96 382.076 1029.77 381.639 1026.97 380.362C1018.53 376.521 1015.89 366.823 1020.95 359.04C1022.87 356.095 1024.67 353.038 1026.9 350.328C1031.75 344.415 1038.28 342.713 1045.56 344.023C1057.48 346.173 1063.47 358.379 1057.98 369.377C1053.53 378.324 1045.59 381.751 1034.96 382.625ZM1040.25 361.257C1037.56 361.459 1035.31 361.325 1033.22 361.851C1030.77 362.478 1030.99 364.852 1031.53 366.577C1031.74 367.249 1033.88 367.932 1034.84 367.641C1037.52 366.79 1039.27 364.751 1040.25 361.257Z" fill="#0E3572" fill-opacity="0.4"/>
<path d="M1151.07 145.997C1150.95 138.483 1152.25 131.192 1155.47 124.406C1156.93 121.326 1158.79 118.269 1161.13 115.839C1162.91 113.98 1165.59 112.524 1168.11 111.953C1172.84 110.878 1176.04 114.775 1175.22 119.411C1173.73 127.889 1172 136.389 1171.44 144.944C1171.05 151.014 1172.32 157.218 1173.07 163.333C1173.45 166.423 1174.89 169.033 1177.47 171.06C1179.73 172.84 1179.42 174.15 1176.75 175.147C1170.29 177.555 1164.54 176.2 1159.61 171.541C1153.51 165.785 1151.94 158.136 1151.1 150.252C1150.95 148.853 1151.07 147.419 1151.07 145.997Z" fill="#0E3572" fill-opacity="0.4"/>
<path d="M901.208 415.437C902.159 420.376 900.884 422.862 897.494 423.892C894.026 424.945 890.032 423.5 888.399 419.648C886.989 416.288 885.803 412.402 886.061 408.852C886.956 396.097 891.9 384.965 902.081 376.869C905.392 374.226 909.565 372.457 913.603 370.99C917.138 369.702 920.864 370.508 924.052 372.725C926.39 374.349 927.643 376.622 927.106 379.545C926.569 382.457 924.656 384.462 921.837 384.741C917.608 385.167 914.935 387.631 912.865 390.811C909.498 395.974 906.209 401.226 903.401 406.702C902.047 409.3 901.902 412.503 901.208 415.437Z" fill="#0E3572" fill-opacity="0.4"/>
<path d="M178.826 0.29126C173.445 10.4149 171.476 21.1096 170.838 32.1627C170.592 36.3845 167.683 39.5538 163.88 40.4609C160.009 41.3792 155.635 39.9457 153.99 36.1942C148.822 24.4132 144.045 12.453 139.011 0.29126C152.312 0.29126 165.345 0.29126 178.826 0.29126Z" fill="#0E3572" fill-opacity="0.4"/>
<path d="M1057.46 278.477C1065.78 277.727 1073.65 277.033 1081.51 276.305C1084.14 276.058 1086.75 275.599 1089.38 275.487C1091.82 275.386 1095.25 274.681 1095.87 277.761C1096.51 280.93 1093.09 281.602 1090.72 282.195C1085.71 283.449 1080.62 284.39 1075.57 285.51C1067.65 287.268 1059.74 289.071 1051.83 290.874C1048.75 291.568 1045.9 291.266 1043.75 288.758C1041.61 286.26 1042.09 283.438 1043.31 280.728C1048.23 269.809 1053.17 258.913 1058.17 248.028C1058.76 246.763 1059.58 245.508 1060.59 244.568C1062.56 242.72 1064.95 242.35 1067.31 243.784C1069.6 245.161 1070.28 247.39 1069.51 249.865C1068.85 251.981 1067.9 254.019 1067 256.057C1064.23 262.374 1061.4 268.678 1058.62 274.994C1058.17 275.98 1057.92 277.044 1057.46 278.477Z" fill="#0E3572" fill-opacity="0.4"/>
<path d="M1079.79 0.101011C1085.62 0.101011 1090.67 0.0114213 1095.72 0.1906C1096.53 0.224196 1097.6 1.29927 1098.06 2.16156C1100.08 6.0251 1101.74 10.0902 1103.86 13.8978C1109.1 23.3046 1114.52 32.6107 1119.85 41.984C1120.54 43.2159 1121.51 44.5373 1121.55 45.8363C1121.59 47.7065 1121.44 50.0023 1120.4 51.3909C1118.98 53.2947 1116.49 52.8019 1114.51 51.7492C1113.18 51.0437 1111.97 50.0694 1110.84 49.0616C1103.62 42.6671 1097.9 35.0184 1093.02 26.7538C1089.15 20.1914 1085.5 13.4946 1081.95 6.75302C1080.94 4.88284 1080.59 2.6767 1079.79 0.101011Z" fill="#0E3572" fill-opacity="0.4"/>
<path d="M841.1 244.254C840.462 253.46 837.733 261.231 831.412 267.279C829.633 268.981 826.959 270.325 824.543 270.672C820.292 271.277 817.797 267.268 819.677 263.37C821.131 260.347 822.921 257.491 824.319 254.445C827.631 247.267 827.385 240.223 823.033 233.504C820.381 229.405 817.495 225.463 814.911 221.331C813.736 219.438 811.521 216.885 813.703 215.104C815.302 213.805 818.356 214.13 820.773 214.107C821.88 214.096 823.133 214.813 824.096 215.519C834.018 222.786 840.082 232.339 841.1 244.254Z" fill="#0E3572" fill-opacity="0.4"/>
<path d="M254.382 382.501C253.252 388.146 253.745 394.249 256.004 400.363C257.291 403.846 254.226 406.444 250.545 405.537C241.595 403.342 232.657 401.147 223.696 398.997C221.134 398.381 218.673 397.653 218.158 394.607C217.655 391.584 219.624 389.904 221.895 388.571C228.697 384.584 235.51 380.62 242.39 376.756C243.766 375.984 245.421 375.547 246.999 375.289C251.451 374.562 254.516 377.339 254.382 382.501Z" fill="#0E3572" fill-opacity="0.4"/>
<path d="M1420.6 0.191162C1425.46 0.191162 1429.41 0.191162 1434.06 0.191162C1433.77 5.99207 1433.53 11.7146 1433.2 17.4259C1432.86 23.1596 1432.43 28.8933 1431.99 35.411C1434.8 33.6528 1436.9 32.3425 1439.54 30.6963C1439.54 34.1007 1440.74 38.0202 1439.3 39.8344C1436.2 43.7092 1433.7 48.7374 1428.37 50.238C1425.54 51.0331 1423.1 49.6893 1421.75 47.0688C1420.94 45.4786 1420.13 43.6196 1420.13 41.8838C1420.17 28.0758 1420.41 14.2679 1420.6 0.191162Z" fill="#0E3572" fill-opacity="0.4"/>
<path d="M1005.83 225.743C1011.77 225.709 1015.31 230.536 1013.5 235.799C1012.79 237.893 1011.61 239.842 1010.55 241.801C1006.64 249.047 1002.84 256.36 998.659 263.437C997.395 265.565 995.303 267.67 993.088 268.667C989.161 270.425 985.425 267.346 985.704 263.023C985.783 261.724 986.118 260.391 986.622 259.193C990.448 249.999 994.318 240.827 998.234 231.667C999.733 228.128 1002.26 225.843 1005.83 225.743Z" fill="#0E3572" fill-opacity="0.4"/>
<path d="M1230.58 339.04C1236.66 338.356 1242.75 337.572 1248.85 337.046C1250.1 336.934 1251.91 337.393 1252.58 338.267C1253.23 339.107 1253.22 341.1 1252.66 342.13C1248.8 349.253 1247.32 357.081 1245.73 364.864C1245.18 367.507 1243.92 369.41 1241.29 370.093C1238.42 370.844 1235.91 369.914 1234.43 367.417C1232.88 364.819 1231.73 361.974 1230.51 359.186C1228.49 354.538 1226.62 349.835 1224.58 345.199C1222.78 341.1 1225.43 337.886 1230.48 338.166C1230.51 338.446 1230.54 338.737 1230.58 339.04Z" fill="#0E3572" fill-opacity="0.4"/>
<path d="M521.743 93.8896C528.097 93.9231 533.769 97.4619 535.626 102.546C537.517 107.731 535.425 114.17 530.469 118.37C525.726 122.401 519.17 123.107 513.979 120.094C513.196 119.635 512.413 119.109 511.798 118.448C507.032 113.364 508.52 107.709 510.601 102.165C512.749 96.4205 516.407 93.8672 521.743 93.8896ZM519.17 110.296C519.506 110.475 519.83 110.654 520.166 110.822C520.837 109.892 521.989 108.985 522.001 108.045C522.012 107.395 520.446 106.734 519.181 105.783C519.17 107.765 519.17 109.03 519.17 110.296Z" fill="#0E3572" fill-opacity="0.4"/>
<path d="M422.95 50.6739C428.767 50.6515 431.004 54.1007 429.147 58.1098C428.678 59.1177 427.984 60.0136 427.447 60.9991C424.247 66.8672 421.003 72.7129 417.916 78.637C416.651 81.0559 415.119 82.9821 412.21 82.9373C409.469 82.8925 407.747 81.1791 406.807 78.7154C404.816 73.5192 402.791 68.3342 400.956 63.0821C399.927 60.1368 401.057 57.0796 404.122 56.0605C410.745 53.8544 417.546 52.197 422.95 50.6739Z" fill="#0E3572" fill-opacity="0.4"/>
<path d="M1214.42 112.491C1215.9 105.044 1217.27 97.4732 1218.97 89.9925C1219.41 87.9991 1220.69 86.073 1221.98 84.4268C1223.64 82.3102 1226.08 81.8175 1228.6 82.7694C1231.07 83.6989 1232.19 85.7482 1232.07 88.3127C1231.95 90.5412 1231.65 92.7698 1231.22 94.9535C1228.88 106.902 1226.45 118.84 1224.11 130.789C1223.71 132.827 1222.46 133.275 1221.14 132.111C1219.67 130.812 1218.08 129.154 1217.58 127.362C1216.27 122.625 1215.5 117.732 1214.42 112.491Z" fill="#0E3572" fill-opacity="0.4"/>
<path d="M445.849 153.948C445.637 157.375 444.328 159.749 441.408 161.003C438.6 162.224 435.166 161.496 433.152 158.931C431.787 157.207 430.758 155.18 429.818 153.175C427.033 147.206 424.214 141.249 421.73 135.157C420.88 133.074 420.567 130.588 420.712 128.325C421.014 123.656 425.679 121.36 429.617 123.868C431.194 124.865 432.772 126.299 433.622 127.922C437.66 135.638 441.464 143.466 445.279 151.294C445.704 152.19 445.704 153.276 445.849 153.948Z" fill="#0E3572" fill-opacity="0.4"/>
<path d="M22.923 19.0488C26.1001 18.5897 28.7514 18.1417 31.4251 17.8281C33.5954 17.5706 35.9112 17.4586 36.7726 20.0679C37.5557 22.4196 36.1013 23.9874 34.1548 24.9505C26.7713 28.646 18.918 30.9082 10.7514 31.8489C7.24988 32.252 4.8111 28.8588 6.08643 25.1185C8.98388 16.6187 13.0224 8.66763 19.3655 2.11642C22.0056 -0.604857 24.5563 1.08614 27.0957 2.37399C29.322 3.49385 29.6688 5.42002 29.1206 7.54777C28.7514 9.08199 28.1921 10.6386 27.409 12.016C26.1337 14.2894 24.6122 16.4283 22.923 19.0488Z" fill="#0E3572" fill-opacity="0.4"/>
<path d="M268.21 320.237C267.046 329.722 265.916 339.208 264.675 348.682C264.462 350.272 263.914 351.851 263.31 353.352C262.448 355.468 260.916 356.991 258.466 356.857C255.837 356.711 254.506 354.863 253.991 352.534C253.577 350.664 253.297 348.693 253.387 346.789C253.846 337.136 254.405 327.494 255.02 317.852C255.121 316.362 255.524 314.817 256.116 313.44C257.28 310.763 259.417 309.274 262.404 309.61C265.391 309.946 267.158 311.883 267.717 314.727C268.064 316.497 267.952 318.367 268.053 320.192C268.109 320.215 268.165 320.226 268.21 320.237Z" fill="#0E3572" fill-opacity="0.4"/>
<path d="M1255.89 34.0216C1255.56 34.6599 1254.99 35.9477 1254.27 37.1348C1250.89 42.6669 1247.4 48.1431 1244.09 53.7088C1242.61 56.1837 1240.84 57.9083 1237.78 57.5052C1234.84 57.1244 1233.58 55.0527 1232.81 52.421C1231.61 48.2327 1230.26 44.0668 1228.98 39.9009C1227.95 36.5749 1229.07 33.8648 1232.23 32.7561C1237.58 30.8747 1242.97 29.083 1248.39 27.4144C1252.26 26.2273 1256.02 29.2509 1255.89 34.0216Z" fill="#0E3572" fill-opacity="0.4"/>
<path d="M653.494 0.0784137C650.988 3.5724 648.773 6.45045 646.781 9.47409C643.157 14.9838 639.845 20.7287 636.031 26.0929C634.476 28.2766 632.171 30.3932 629.732 31.3339C628.166 31.9386 625.112 30.9083 623.893 29.5645C622.651 28.1982 621.845 25.0738 622.573 23.506C625.895 16.3501 629.833 9.48529 633.502 2.48613C634.453 0.660744 635.751 -0.0447716 637.876 0.0224204C642.843 0.1904 647.811 0.0784137 653.494 0.0784137Z" fill="#0E3572" fill-opacity="0.4"/>
<path d="M175.649 234.388C173.781 236.919 172.315 239.214 170.525 241.241C168.154 243.94 165.032 244.299 162.672 242.462C160.412 240.704 160.144 237.624 161.811 234.791C163.802 231.398 165.748 227.982 167.516 224.477C169.821 219.93 176.164 219.124 179.486 223.088C182.999 227.288 186.489 231.499 190.013 235.687C192.497 238.655 192.698 241.331 190.528 243.212C188.458 245.004 185.93 244.511 183.323 241.902C180.829 239.405 178.278 236.964 175.649 234.388Z" fill="#0E3572" fill-opacity="0.4"/>
<path d="M851.001 380.934C850.99 384.405 849.535 385.85 846.045 386.074C841.402 386.376 836.76 386.724 832.117 387.149C829.421 387.395 826.893 387.172 825.55 384.495C824.13 381.673 825.55 379.422 827.553 377.451C831.726 373.319 835.876 369.175 840.071 365.054C842.129 363.038 845.016 363.139 846.157 365.715C848.305 370.575 849.927 375.659 851.773 380.654C851.515 380.755 851.258 380.844 851.001 380.934Z" fill="#0E3572" fill-opacity="0.4"/>
<path d="M1019.86 160.712C1015.47 160.656 1013.64 158.506 1014.5 155.381C1015.33 152.369 1016.58 149.457 1017.77 146.557C1018.75 144.149 1020 141.831 1020.99 139.423C1022.51 135.739 1027.68 134.798 1029.92 138.225C1032.66 142.458 1034.89 147.05 1037.02 151.641C1038.1 153.982 1037.04 156.378 1034.59 157.095C1029.35 158.629 1023.98 159.727 1019.86 160.712Z" fill="#0E3572" fill-opacity="0.4"/>
<path d="M1111.56 0.0898898C1117.48 0.0898898 1122.34 -0.0108982 1127.2 0.179479C1128.16 0.213075 1129.54 1.14256 1129.94 2.01606C1132.71 8.08573 1135.48 14.1666 1137.81 20.4043C1138.73 22.8456 1139.56 26.5747 1136.76 27.8402C1133.72 29.2176 1131.42 26.2276 1129.66 23.8311C1127.02 20.2251 1124.67 16.4175 1121.95 12.8788C1119.73 9.98951 1117.1 7.42501 1114.72 4.64775C1113.72 3.47189 1112.93 2.10565 1111.56 0.0898898Z" fill="#0E3572" fill-opacity="0.4"/>
<path d="M746.01 401.024C741.736 400.957 739.42 398.314 740.226 395.179C741.647 389.669 743.224 384.181 745.148 378.84C746.468 375.155 750.059 373.733 753.315 374.987C756.324 376.152 757.812 379.556 756.369 383.174C754.422 388.079 752.274 392.928 749.802 397.586C748.918 399.255 746.86 400.285 746.01 401.024Z" fill="#0E3572" fill-opacity="0.4"/>
<path d="M660.105 65.2659C657.263 65.2211 654.959 64.202 653.594 61.5703C652.028 58.5579 651.882 55.467 653.717 52.5778C656.256 48.5911 660.149 46.6985 664.77 46.6873C669.244 46.6761 672.533 50.7524 671.471 55.2655C670.162 60.7976 666.47 65.1987 660.105 65.2659Z" fill="#0E3572" fill-opacity="0.4"/>
<path d="M603.107 287.268C597.749 287.212 594.124 284.065 594.102 279.44C594.079 274.278 598.241 269.854 603.107 269.854C609.159 269.854 613.455 273.393 613.355 278.298C613.254 283.438 608.824 287.324 603.107 287.268Z" fill="#0E3572" fill-opacity="0.4"/>
<path d="M463.089 133.096C463.022 126.657 465.774 124.036 472.654 123.992C477.062 123.958 480.586 127.441 480.608 131.864C480.642 137.038 475.697 142.436 470.831 142.525C466.367 142.604 463.145 138.673 463.089 133.096Z" fill="#0E3572" fill-opacity="0.4"/>
<path d="M306.079 240.043C302.365 240.099 298.114 235.732 298.103 231.846C298.091 227.993 303.45 223.234 307.768 223.256C311.236 223.268 314.134 226.235 313.854 230.2C313.451 236.056 311.538 239.606 306.079 240.043Z" fill="#0E3572" fill-opacity="0.4"/>
<path d="M438.455 31.4348C438.556 35.9926 435.334 39.8002 431.363 39.8002C426.72 39.8114 423.118 36.3734 423.028 31.8491C422.939 27.3697 426.161 23.9205 430.456 23.8757C434.786 23.8309 438.366 27.2241 438.455 31.4348Z" fill="#0E3572" fill-opacity="0.4"/>
<path d="M986.901 0.0787274C990.179 0.0787274 992.696 0.0675287 995.213 0.0899261C995.996 0.101125 996.791 0.179515 998.111 0.257906C997.775 4.5134 997.686 8.6457 997.048 12.6884C996.578 15.6785 994.039 16.8991 991.242 17.1679C989.206 17.3695 987.875 16.104 987.718 14.1666C987.338 9.57519 987.17 4.97254 986.901 0.0787274Z" fill="#0E3572" fill-opacity="0.4"/>
<path d="M915.416 351.123C919.981 351.089 923.851 353.754 923.851 356.924C923.84 360.339 919.265 364.987 915.931 364.964C911.736 364.942 908.301 361.728 908.313 357.819C908.313 353.866 911.199 351.156 915.416 351.123Z" fill="#0E3572" fill-opacity="0.4"/>
<path d="M1209.76 170.835C1209.78 175.225 1207.1 178.081 1202.92 178.092C1199.18 178.103 1195.75 174.677 1195.72 170.869C1195.69 167.341 1199.47 163.176 1202.69 163.187C1206.63 163.198 1209.74 166.569 1209.76 170.835Z" fill="#0E3572" fill-opacity="0.4"/>
<path d="M1085.75 332.903C1085.45 338.233 1083.03 340.798 1078.51 340.607C1074.45 340.428 1071.07 337.371 1071.18 333.967C1071.31 330.193 1076.25 326.262 1080.53 326.542C1084.11 326.777 1085.97 329.039 1085.75 332.903Z" fill="#0E3572" fill-opacity="0.4"/>
<path d="M473.146 184.532C473.214 180.545 474.78 178.887 477.733 178.596C478.706 178.495 479.669 178.227 480.608 177.947C484.401 176.816 487.623 179.716 486.828 183.58C485.833 188.429 478.505 190.937 474.892 187.544C473.885 186.603 473.437 185.058 473.146 184.532Z" fill="#0E3572" fill-opacity="0.4"/>
<path d="M1392.68 18.6683C1392.63 21.7704 1390.12 24.1893 1386.98 24.1445C1383.87 24.0997 1382.1 22.3863 1382.2 19.5306C1382.32 16.171 1384.53 13.9873 1387.78 14.0209C1390.68 14.0433 1392.72 15.9919 1392.68 18.6683Z" fill="#0E3572" fill-opacity="0.4"/>
<path d="M46.2925 13.2481C42.9476 13.1585 40.6654 11.1651 40.822 8.53343C40.9675 6.19291 42.1869 4.80428 44.6816 4.86027C47.3889 4.91627 50.1185 7.55915 49.9954 10.0453C49.8724 12.5426 48.0713 13.0689 46.2925 13.2481Z" fill="#0E3572" fill-opacity="0.4"/>
<path d="M615.568 304.648C613.185 304.604 611.272 302.543 611.294 300.057C611.305 297.504 612.916 295.611 614.952 295.746C617.335 295.891 619.875 298.534 619.774 300.74C619.662 302.946 617.783 304.693 615.568 304.648Z" fill="#0E3572" fill-opacity="0.4"/>
<path d="M1226.06 168.641C1225.6 168.081 1224.19 166.95 1224.38 166.513C1225.11 164.855 1226.05 162.649 1227.47 162.1C1229.09 161.485 1231.08 162.806 1231.04 165.147C1230.98 167.879 1228.82 168.181 1226.06 168.641Z" fill="#0E3572" fill-opacity="0.4"/>
</g>
<defs>
<clipPath id="clip0_506_25142">
<rect width="1440" height="1001.25" fill="white"/>
</clipPath>
</defs>
</svg>
