<svg width="159" height="121" viewBox="0 0 159 121" fill="none" xmlns="http://www.w3.org/2000/svg">
<path d="M70.6319 37.5L0.308594 74.3116L88.3687 120.505L158.692 83.5901L70.6319 37.5Z" fill="#F2F2F2"/>
<g clip-path="url(#clip0_603_42182)">
<path d="M102.653 16.2227C98.9367 16.2805 95.3018 17.3178 92.115 19.2299C88.9282 21.1419 86.3024 23.8611 84.5027 27.1127C82.703 23.8611 80.0772 21.1419 76.8904 19.2299C73.7036 17.3178 70.0687 16.2805 66.3527 16.2227C60.429 16.48 54.8479 19.0714 50.8288 23.4306C46.8096 27.7899 44.6791 33.5626 44.9027 39.4877C44.9027 54.4928 60.6965 70.8806 73.9427 81.9917C76.9002 84.477 80.6396 85.8395 84.5027 85.8395C88.3658 85.8395 92.1052 84.477 95.0627 81.9917C108.309 70.8806 124.103 54.4928 124.103 39.4877C124.326 33.5626 122.196 27.7899 118.177 23.4306C114.157 19.0714 108.576 16.48 102.653 16.2227Z" fill="#B8B8B8"/>
</g>
<defs>
<clipPath id="clip0_603_42182">
<rect width="79.2" height="79.2" fill="white" transform="translate(44.8984 9.90039)"/>
</clipPath>
</defs>
</svg>
