<svg width="159" height="144" viewBox="0 0 159 144" fill="none" xmlns="http://www.w3.org/2000/svg">
<path d="M70.6304 60.8008L0.308594 97.6986L88.3668 144.001L158.689 106.999L70.6304 60.8008Z" fill="#F2F2F2"/>
<path d="M23.0625 102.377L71.2367 77.0332L131.807 108.899L83.6332 134.243L23.0625 102.377Z" fill="black"/>
<path d="M71.2364 77.034V33.6934L22.0859 59.5557L63.2086 81.258L71.2364 77.034Z" fill="#B8B8B8"/>
<path d="M71.2383 33.6934V77.034L91.6626 87.7796L132.785 66.0709L71.2383 33.6934Z" fill="#B8B8B8"/>
<path d="M22.0859 59.5566V101.867L83.6329 134.244V92.0045L22.0859 59.5566Z" fill="#B8B8B8"/>
<path d="M83.6289 92.005V134.245L132.779 108.389V66.0723L83.6289 92.005Z" fill="#B8B8B8"/>
<path d="M83.6289 92.0039L84.5981 132.631L120.292 114.954L83.6289 134.244V92.0039Z" fill="#B8B8B8"/>
<path d="M89.4985 120.658C89.3232 120.659 89.1509 120.617 88.9998 120.537C88.7797 120.393 88.6053 120.199 88.4942 119.974C88.3832 119.749 88.3395 119.502 88.3677 119.257V115.525V115.25L88.5784 115.282L91.7952 113.561V117.74C91.788 118.277 91.6409 118.804 91.3662 119.28C91.0915 119.755 90.6969 120.164 90.2149 120.473C89.9981 120.591 89.751 120.655 89.4985 120.658ZM88.8874 115.801V119.269C88.8647 119.429 88.8862 119.591 88.95 119.741C89.0138 119.89 89.1178 120.023 89.2526 120.127C89.3661 120.173 89.4909 120.19 89.6142 120.178C89.7376 120.166 89.8552 120.124 89.955 120.057C90.3568 119.788 90.6855 119.439 90.9157 119.036C91.1459 118.633 91.2713 118.187 91.2824 117.733V117.426H90.0884L89.8567 115.961L88.8874 115.801ZM90.5379 116.959H91.2824V114.399L89.358 115.429L90.3202 115.589L90.5379 116.959Z" fill="#CECECE"/>
<path d="M90.0841 123.639C90.0152 123.639 89.9491 123.614 89.9003 123.57C89.8516 123.526 89.8242 123.465 89.8242 123.403V120.26C89.826 120.198 89.8539 120.139 89.9023 120.095C89.9507 120.051 90.0157 120.025 90.0841 120.023C90.153 120.023 90.2191 120.048 90.2678 120.093C90.3166 120.137 90.344 120.197 90.344 120.26V123.403C90.3449 123.434 90.3389 123.465 90.3262 123.494C90.3134 123.523 90.2943 123.55 90.27 123.572C90.2457 123.594 90.2166 123.612 90.1847 123.623C90.1527 123.635 90.1185 123.64 90.0841 123.639Z" fill="#CECECE"/>
<path d="M88.5831 124.427C88.5378 124.428 88.4929 124.418 88.4534 124.397C88.4139 124.377 88.381 124.347 88.3584 124.312C88.3248 124.258 88.3155 124.194 88.3326 124.135C88.3496 124.075 88.3916 124.024 88.4497 123.992L91.4487 122.411C91.5095 122.38 91.5809 122.373 91.6477 122.39C91.7146 122.406 91.7717 122.446 91.8069 122.5C91.8399 122.555 91.8481 122.619 91.8297 122.679C91.8113 122.739 91.7678 122.79 91.7086 122.82L88.7095 124.395C88.672 124.417 88.6279 124.428 88.5831 124.427Z" fill="#CECECE"/>
<path d="M99.2693 119.012C99.1711 119.013 99.0741 118.991 98.9883 118.948C98.8879 118.886 98.8067 118.802 98.7525 118.703C98.6984 118.604 98.6732 118.495 98.6793 118.384V117.744C98.6731 117.71 98.6751 117.676 98.6851 117.643C98.6952 117.609 98.713 117.579 98.7374 117.552C98.7618 117.526 98.7922 117.505 98.8264 117.491C98.8607 117.476 98.8979 117.469 98.9357 117.469C98.9734 117.469 99.0107 117.476 99.0449 117.491C99.0791 117.505 99.1095 117.526 99.1339 117.552C99.1583 117.579 99.1761 117.609 99.1862 117.643C99.1962 117.676 99.1982 117.71 99.192 117.744V118.384C99.1885 118.412 99.191 118.439 99.1995 118.466C99.2079 118.492 99.2221 118.517 99.2412 118.538C99.2412 118.538 99.3255 118.538 99.4097 118.5C99.5702 118.365 99.6967 118.2 99.7804 118.017C99.8641 117.834 99.903 117.636 99.8944 117.437V113.258C99.8882 113.224 99.8902 113.189 99.9002 113.156C99.9103 113.123 99.9281 113.092 99.9525 113.066C99.9769 113.04 100.007 113.019 100.041 113.004C100.076 112.99 100.113 112.982 100.151 112.982C100.188 112.982 100.226 112.99 100.26 113.004C100.294 113.019 100.325 113.04 100.349 113.066C100.373 113.092 100.391 113.123 100.401 113.156C100.411 113.189 100.413 113.224 100.407 113.258V117.437C100.423 117.714 100.367 117.991 100.245 118.245C100.123 118.5 99.9383 118.725 99.7047 118.903C99.5747 118.978 99.4231 119.016 99.2693 119.012Z" fill="#CECECE"/>
<path d="M96.5508 115.357V114.947C96.6136 113.903 96.9451 112.887 97.5185 111.981C98.0919 111.075 98.8913 110.304 99.8518 109.731C100.195 109.466 100.62 109.304 101.069 109.268C101.517 109.231 101.967 109.322 102.357 109.527C102.746 109.732 103.057 110.042 103.246 110.414C103.435 110.787 103.493 111.203 103.413 111.607V111.747L96.5508 115.357ZM101.397 109.783C100.941 109.8 100.498 109.926 100.112 110.147C99.2921 110.638 98.5981 111.283 98.0769 112.039C97.5557 112.796 97.2197 113.646 97.0916 114.531L102.893 111.479C102.915 111.182 102.854 110.886 102.715 110.617C102.576 110.348 102.364 110.116 102.099 109.943C101.885 109.834 101.642 109.779 101.397 109.783Z" fill="#CECECE"/>
<path d="M108.542 114.2C108.474 114.198 108.41 114.172 108.362 114.128C108.315 114.084 108.289 114.025 108.289 113.963V105.988C108.282 105.955 108.284 105.92 108.295 105.887C108.305 105.854 108.322 105.823 108.347 105.797C108.371 105.77 108.402 105.749 108.436 105.735C108.47 105.72 108.507 105.713 108.545 105.713C108.583 105.713 108.62 105.72 108.654 105.735C108.689 105.749 108.719 105.77 108.743 105.797C108.768 105.823 108.785 105.854 108.796 105.887C108.806 105.92 108.808 105.955 108.801 105.988V113.995C108.793 114.052 108.762 114.104 108.714 114.142C108.666 114.18 108.605 114.2 108.542 114.2Z" fill="#CECECE"/>
<path d="M107.79 107.78C107.755 107.786 107.72 107.786 107.685 107.78C107.623 107.755 107.574 107.708 107.549 107.651C107.525 107.594 107.525 107.53 107.551 107.473L108.471 105.553L109.497 106.628C109.545 106.672 109.572 106.732 109.572 106.794C109.572 106.857 109.545 106.916 109.497 106.961C109.447 107.003 109.382 107.027 109.314 107.027C109.246 107.027 109.181 107.003 109.132 106.961L108.647 106.449L108.057 107.697C108.026 107.733 107.984 107.759 107.937 107.774C107.89 107.789 107.839 107.791 107.79 107.78Z" fill="#CECECE"/>
<path d="M110.928 112.957C110.861 112.955 110.796 112.929 110.749 112.885C110.702 112.841 110.675 112.782 110.675 112.72V104.707C110.669 104.673 110.671 104.639 110.681 104.605C110.691 104.572 110.709 104.542 110.734 104.515C110.758 104.489 110.788 104.468 110.823 104.454C110.857 104.439 110.894 104.432 110.932 104.432C110.969 104.432 111.007 104.439 111.041 104.454C111.075 104.468 111.106 104.489 111.13 104.515C111.154 104.542 111.172 104.572 111.182 104.605C111.192 104.639 111.194 104.673 111.188 104.707V112.714C111.189 112.745 111.183 112.777 111.17 112.806C111.158 112.836 111.139 112.863 111.115 112.885C111.09 112.908 111.061 112.926 111.029 112.938C110.997 112.95 110.963 112.957 110.928 112.957Z" fill="#CECECE"/>
<path d="M110.181 106.538C110.146 106.544 110.11 106.544 110.075 106.538C110.014 106.512 109.965 106.466 109.94 106.409C109.915 106.351 109.916 106.287 109.942 106.231L110.862 104.311L111.887 105.347C111.926 105.395 111.943 105.455 111.935 105.514C111.927 105.573 111.896 105.627 111.846 105.666C111.797 105.705 111.733 105.725 111.668 105.723C111.602 105.721 111.54 105.696 111.494 105.655L111.009 105.143L110.42 106.391C110.4 106.434 110.367 106.471 110.325 106.497C110.282 106.523 110.232 106.537 110.181 106.538Z" fill="#CECECE"/>
<path d="M32.6094 89.5918L46.0243 96.6318C46.2017 96.7369 46.3494 96.8786 46.4556 97.0453C46.5617 97.2121 46.6233 97.3993 46.6354 97.5918V106.085C46.6354 106.789 46.0875 107.07 45.4273 106.725L32.0265 99.6782C31.851 99.5733 31.7049 99.4325 31.6 99.2668C31.4951 99.1012 31.4343 98.9155 31.4225 98.7246V90.2254C31.4014 89.5278 31.9492 89.2398 32.6094 89.5918Z" fill="#FAFAFA"/>
<path d="M32.2812 90.9102L32.7378 91.1534V98.6541L32.2812 98.4173V90.9102Z" fill="#B8B8B8"/>
<path d="M34.1328 91.8906L34.9194 92.313V99.8138L34.1328 99.3914V91.8906Z" fill="#B8B8B8"/>
<path d="M35.9961 92.8691L36.4526 93.1059V100.607L35.9961 100.37V92.8691Z" fill="#B8B8B8"/>
<path d="M37.3945 93.5918L38.3146 94.0846L38.3076 101.585L37.3945 101.093V93.5918Z" fill="#B8B8B8"/>
<path d="M39.7148 94.8203L40.1714 95.0635V102.564L39.7148 102.321V94.8203Z" fill="#B8B8B8"/>
<path d="M41.0469 95.5117L42.0302 96.0365V103.544L41.0469 103.012V95.5117Z" fill="#B8B8B8"/>
<path d="M43.4219 96.7773L43.8784 97.0142V104.515L43.4219 104.278V96.7773Z" fill="#B8B8B8"/>
<path d="M44.4883 97.3223L44.7201 97.4439V104.945L44.4883 104.829V97.3223Z" fill="#B8B8B8"/>
<path d="M42.5781 96.3691L42.8099 96.4843V103.992L42.5781 103.87V96.3691Z" fill="#B8B8B8"/>
<path d="M38.8438 94.373L39.0685 94.4882V101.989L38.8438 101.874V94.373Z" fill="#B8B8B8"/>
<path d="M36.793 93.2969L37.0177 93.4185V100.919L36.793 100.798V93.2969Z" fill="#B8B8B8"/>
<path d="M35.3164 92.5547L35.5482 92.6763V100.177L35.3164 100.055V92.5547Z" fill="#B8B8B8"/>
<path d="M33.3242 91.4531L33.549 91.5747V99.0755L33.3242 98.9539V91.4531Z" fill="#B8B8B8"/>
<path d="M45.2891 97.75L45.7456 97.9932V105.494L45.2891 105.251V97.75Z" fill="#B8B8B8"/>
<path d="M71.2247 33.6953L22.0742 59.5576L83.6212 92.0055L132.772 66.0728L71.2247 33.6953Z" fill="#B8B8B8"/>
<path opacity="0.1" d="M22.0742 59.5566L83.6212 90.3981L132.772 66.0718L83.6212 92.0045L22.0742 59.5566Z" fill="white"/>
<path d="M42.4688 48.8251L104.051 81.2218L111.622 77.2346L50.0401 44.8379L42.4688 48.8251Z" fill="#CECECE"/>
<path d="M111.622 77.2266V85.9945L110.709 85.5209L109.754 87.0185L108.806 86.5065L107.85 88.0233L106.902 87.5113L105.947 89.0025L104.999 88.5097L104.051 90.0073V81.2201L111.622 77.2266Z" fill="#CECECE"/>
<path opacity="0.25" d="M111.622 77.2266V85.9945L110.709 85.5209L109.754 87.0185L108.806 86.5065L107.85 88.0233L106.902 87.5113L105.947 89.0025L104.999 88.5097L104.051 90.0073V81.2201L111.622 77.2266Z" fill="black"/>
<path opacity="0.1" d="M68.8449 36.5059L25.9805 59.053L79.914 87.5265L122.778 64.9026L68.8449 36.5059Z" fill="black"/>
<path d="M34.1484 60.1609L69.9753 41.2617L115.523 65.2361L79.6959 84.084L34.1484 60.1609Z" fill="black"/>
<path d="M69.9744 37.2479V0L33.3047 19.2895L68.8085 37.9903L69.9744 37.2479Z" fill="#B8B8B8"/>
<path d="M69.9727 0V37.2479L80.9715 43.0463L116.356 24.3711L69.9727 0Z" fill="#B8B8B8"/>
<path d="M33.3047 19.291V59.7197L79.6949 84.0844V43.7197L33.3047 19.291Z" fill="#B8B8B8"/>
<path d="M79.6992 43.7202V84.0849L116.362 64.7953V24.373L79.6992 43.7202Z" fill="#B8B8B8"/>
<path d="M79.6992 43.7207L80.535 82.6966L111.249 67.4838L79.6992 84.0854V43.7207Z" fill="#B8B8B8"/>
<path d="M84.7523 72.3893C84.5997 72.3911 84.4494 72.3558 84.3168 72.2869C84.1294 72.1636 83.9809 71.9976 83.886 71.8055C83.7911 71.6135 83.7531 71.4021 83.776 71.1925V67.9925V67.7557H83.9516L86.761 66.2773V69.8741C86.7552 70.3362 86.6286 70.7902 86.3916 71.1987C86.1546 71.6072 85.8141 71.9583 85.3984 72.2229C85.2035 72.3304 84.9802 72.3879 84.7523 72.3893ZM84.2185 68.2293V71.2117C84.1997 71.3502 84.2194 71.4908 84.2759 71.6205C84.3323 71.7503 84.4237 71.865 84.5416 71.9541C84.6383 71.9915 84.7438 72.0059 84.8483 71.9958C84.9527 71.9857 85.0526 71.9516 85.1386 71.8965C85.4848 71.6646 85.7681 71.3635 85.9665 71.0162C86.165 70.6689 86.2734 70.2848 86.2834 69.8933V69.6309H85.258L85.0543 68.3509L84.2185 68.2293ZM85.6232 69.2213H86.2694V67.0005L84.6118 67.8837L85.4336 68.0181L85.6232 69.2213Z" fill="#CECECE"/>
<path d="M85.2482 74.9564C85.219 74.9573 85.1899 74.9528 85.1627 74.9432C85.1355 74.9336 85.1106 74.9191 85.0897 74.9006C85.0687 74.8821 85.052 74.86 85.0407 74.8355C85.0293 74.811 85.0234 74.7846 85.0234 74.758V72.07C85.0234 72.0157 85.0471 71.9636 85.0893 71.9252C85.1314 71.8868 85.1886 71.8652 85.2482 71.8652C85.3078 71.8652 85.365 71.8868 85.4071 71.9252C85.4493 71.9636 85.4729 72.0157 85.4729 72.07V74.7772C85.4661 74.827 85.4394 74.8727 85.398 74.9058C85.3565 74.9388 85.3032 74.9568 85.2482 74.9564Z" fill="#CECECE"/>
<path d="M83.9597 75.6354C83.9208 75.6359 83.8825 75.6267 83.849 75.6086C83.8156 75.5905 83.7883 75.5643 83.7701 75.533C83.755 75.5104 83.745 75.4852 83.7407 75.4591C83.7364 75.4329 83.7379 75.4062 83.7451 75.3805C83.7523 75.3549 83.765 75.3308 83.7826 75.3097C83.8002 75.2887 83.8222 75.271 83.8474 75.2578L86.432 73.901C86.482 73.8844 86.5369 73.8846 86.5868 73.9014C86.6367 73.9182 86.6784 73.9507 86.7046 73.9929C86.7307 74.0352 86.7395 74.0845 86.7295 74.1321C86.7195 74.1797 86.6912 74.2226 86.6497 74.253L84.0721 75.6098C84.0382 75.6281 83.9991 75.6369 83.9597 75.6354Z" fill="#CECECE"/>
<path d="M93.1381 70.9757C93.0543 70.9762 92.9719 70.9563 92.8993 70.9181C92.8103 70.867 92.7384 70.7946 92.6913 70.7089C92.6443 70.6231 92.6239 70.5273 92.6324 70.4317V69.8813C92.6266 69.8518 92.628 69.8215 92.6365 69.7926C92.6449 69.7637 92.6602 69.7368 92.6813 69.7138C92.7024 69.6908 92.7288 69.6723 92.7585 69.6597C92.7883 69.647 92.8208 69.6404 92.8537 69.6404C92.8865 69.6404 92.919 69.647 92.9488 69.6597C92.9786 69.6723 93.0049 69.6908 93.026 69.7138C93.0471 69.7368 93.0624 69.7637 93.0709 69.7926C93.0793 69.8215 93.0807 69.8518 93.0749 69.8813V70.4317C93.0701 70.4817 93.0851 70.5316 93.117 70.5725C93.1696 70.5759 93.2218 70.5623 93.2645 70.5341C93.4024 70.4181 93.5108 70.2762 93.5824 70.1181C93.654 69.9601 93.6869 69.7897 93.6789 69.6189V66.0221C93.6731 65.9926 93.6745 65.9624 93.683 65.9334C93.6914 65.9045 93.7067 65.8776 93.7278 65.8546C93.7489 65.8316 93.7753 65.8132 93.8051 65.8005C93.8348 65.7878 93.8673 65.7812 93.9002 65.7812C93.933 65.7812 93.9655 65.7878 93.9953 65.8005C94.025 65.8132 94.0514 65.8316 94.0725 65.8546C94.0936 65.8776 94.1089 65.9045 94.1174 65.9334C94.1258 65.9624 94.1272 65.9926 94.1214 66.0221V69.6189C94.1324 69.8624 94.081 70.1048 93.9713 70.327C93.8616 70.5491 93.6965 70.745 93.4893 70.8989C93.3807 70.9499 93.2602 70.9762 93.1381 70.9757Z" fill="#CECECE"/>
<path d="M90.8125 67.8338V67.4818C90.8702 66.5846 91.1575 65.7122 91.6514 64.9343C92.1454 64.1564 92.8322 63.4946 93.657 63.0018C93.9531 62.7759 94.3182 62.6384 94.7028 62.608C95.0875 62.5776 95.4732 62.6557 95.8075 62.8318C96.1418 63.0078 96.4086 63.2733 96.5717 63.5923C96.7348 63.9112 96.7863 64.2681 96.7193 64.6146V64.7298L90.8125 67.8338ZM94.9845 63.0338C94.5907 63.0476 94.208 63.1558 93.8747 63.3474C93.1698 63.7702 92.5729 64.3263 92.1245 64.9778C91.6762 65.6293 91.3868 66.361 91.2761 67.1234L96.2698 64.493C96.2872 64.2367 96.2316 63.9807 96.1086 63.7498C95.9855 63.5188 95.7991 63.3207 95.5674 63.1746C95.3903 63.0813 95.1891 63.0327 94.9845 63.0338Z" fill="#CECECE"/>
<path d="M101.128 66.8347C101.07 66.833 101.014 66.8107 100.973 66.7725C100.933 66.7342 100.91 66.6831 100.91 66.6299V59.7371C100.919 59.6898 100.947 59.647 100.987 59.6161C101.028 59.5853 101.079 59.5684 101.131 59.5684C101.184 59.5684 101.235 59.5853 101.276 59.6161C101.316 59.647 101.343 59.6898 101.353 59.7371V66.6299C101.353 66.6842 101.329 66.7363 101.287 66.7747C101.245 66.8131 101.187 66.8347 101.128 66.8347Z" fill="#CECECE"/>
<path d="M100.482 61.3117H100.397C100.37 61.3026 100.344 61.2884 100.323 61.27C100.302 61.2515 100.285 61.2292 100.274 61.2045C100.263 61.1798 100.257 61.1533 100.258 61.1265C100.259 61.0998 100.265 61.0735 100.278 61.0493L101.072 59.3789L101.949 60.3133C101.97 60.3317 101.986 60.3537 101.997 60.3778C102.008 60.402 102.014 60.4279 102.014 60.4541C102.014 60.4803 102.008 60.5062 101.997 60.5303C101.986 60.5545 101.97 60.5765 101.949 60.5949C101.907 60.6313 101.85 60.6516 101.791 60.6516C101.733 60.6516 101.676 60.6313 101.633 60.5949L101.219 60.1533L100.706 61.2285C100.682 61.2611 100.648 61.2864 100.608 61.3013C100.568 61.3161 100.524 61.3197 100.482 61.3117Z" fill="#CECECE"/>
<path d="M103.187 65.7663C103.157 65.7663 103.128 65.761 103.102 65.7506C103.075 65.7403 103.05 65.7251 103.03 65.706C103.01 65.6868 102.994 65.6642 102.983 65.6394C102.973 65.6146 102.968 65.5881 102.969 65.5615V58.6687C102.978 58.6214 103.005 58.5786 103.046 58.5478C103.086 58.5169 103.137 58.5 103.19 58.5C103.243 58.5 103.294 58.5169 103.334 58.5478C103.375 58.5786 103.402 58.6214 103.411 58.6687V65.5615C103.411 65.6158 103.388 65.6679 103.346 65.7063C103.303 65.7447 103.246 65.7663 103.187 65.7663Z" fill="#CECECE"/>
<path d="M102.535 60.2428C102.505 60.2493 102.474 60.2493 102.444 60.2428C102.417 60.2324 102.393 60.2173 102.373 60.1984C102.353 60.1796 102.338 60.1573 102.327 60.1329C102.317 60.1085 102.312 60.0825 102.313 60.0563C102.313 60.0301 102.32 60.0043 102.331 59.9804L103.118 58.3164L104.003 59.2444C104.023 59.2628 104.039 59.2848 104.05 59.3089C104.061 59.3331 104.067 59.359 104.067 59.3852C104.067 59.4114 104.061 59.4373 104.05 59.4615C104.039 59.4856 104.023 59.5076 104.003 59.526C103.96 59.5624 103.903 59.5827 103.845 59.5827C103.786 59.5827 103.73 59.5624 103.687 59.526L103.265 59.0844L102.76 60.1596C102.734 60.191 102.7 60.2154 102.66 60.2301C102.62 60.2448 102.577 60.2492 102.535 60.2428Z" fill="#CECECE"/>
<path d="M69.9666 0L33.2969 19.2895L79.6871 43.7183L116.35 24.3711L69.9666 0Z" fill="#B8B8B8"/>
<path opacity="0.1" d="M33.2969 19.2891L79.5115 42.2778L116.35 24.3706L79.6871 43.7178L33.2969 19.2891Z" fill="white"/>
<path d="M49.5938 10.7195L96.0121 35.1034L102.523 31.673L56.1116 7.28906L49.5938 10.7195Z" fill="#CECECE"/>
<path d="M102.522 31.668V39.2136L101.735 38.8039L100.92 40.0903L100.099 39.6552L99.2839 40.9543L98.4621 40.5127L97.6474 41.8055L96.8257 41.3767L96.0039 42.6695V35.1048L102.522 31.668Z" fill="#CECECE"/>
<path opacity="0.25" d="M102.522 31.668V39.2136L101.735 38.8039L100.92 40.0903L100.099 39.6552L99.2839 40.9543L98.4621 40.5127L97.6474 41.8055L96.8257 41.3767L96.0039 42.6695V35.1048L102.522 31.668Z" fill="black"/>
<path d="M40.8127 49.8945L54.2276 56.9345C54.4041 57.04 54.5507 57.1818 54.6557 57.3486C54.7606 57.5155 54.8209 57.7025 54.8316 57.8945V66.3873C54.8316 67.0913 54.2838 67.3729 53.6166 67.0273L40.2017 59.9873C40.0262 59.8825 39.8801 59.7416 39.7752 59.576C39.6703 59.4103 39.6095 59.2246 39.5977 59.0337V50.5281C39.6047 49.8305 40.1455 49.5425 40.8127 49.8945Z" fill="#FAFAFA"/>
<path d="M40.4844 51.2129L40.9409 51.4561V58.9569L40.4844 58.7137V51.2129Z" fill="#B8B8B8"/>
<path d="M42.332 52.1914L43.1187 52.6138V60.1146L42.332 59.6922V52.1914Z" fill="#B8B8B8"/>
<path d="M44.1953 53.1719L44.6518 53.4087V60.9094L44.1953 60.6727V53.1719Z" fill="#B8B8B8"/>
<path d="M45.5938 53.8945L46.5068 54.3873V61.8881L45.5938 61.3953V53.8945Z" fill="#B8B8B8"/>
<path d="M47.9062 55.123L48.3628 55.3662V62.867L47.9062 62.6238V55.123Z" fill="#B8B8B8"/>
<path d="M49.25 55.8145L50.2263 56.3393V63.84L49.25 63.3152V55.8145Z" fill="#B8B8B8"/>
<path d="M51.625 57.0762L52.0815 57.3194V64.8202L51.625 64.5769V57.0762Z" fill="#B8B8B8"/>
<path d="M52.6875 57.625L52.9123 57.7466V65.2474L52.6875 65.1258V57.625Z" fill="#B8B8B8"/>
<path d="M50.7812 56.6719L51.013 56.7871V64.2878L50.7812 64.1727V56.6719Z" fill="#B8B8B8"/>
<path d="M47.0383 54.668L47.263 54.7896V62.2903L47.0312 62.1752L47.0383 54.668Z" fill="#B8B8B8"/>
<path d="M44.9883 53.5996L45.213 53.7212V61.222L44.9883 61.1004V53.5996Z" fill="#B8B8B8"/>
<path d="M43.5156 52.8574L43.7404 52.979V60.4798L43.5156 60.3582V52.8574Z" fill="#B8B8B8"/>
<path d="M41.5234 51.7559L41.7482 51.8711V59.3718L41.5234 59.2566V51.7559Z" fill="#B8B8B8"/>
<path d="M53.4922 58.0547L53.9487 58.2979L53.9417 65.7987L53.4922 65.5555V58.0547Z" fill="#B8B8B8"/>
</svg>
