<svg width="160" height="144" viewBox="0 0 160 144" fill="none" xmlns="http://www.w3.org/2000/svg">
<path d="M76.0183 65.6989L5.70105 90.0896L83.9843 137.356L154.313 112.877L76.0183 65.6989Z" fill="#F2F2F2"/>
<path d="M40.3889 95.5896C40.6515 94.1275 41.2972 92.7415 42.2732 91.5442C43.2493 90.347 44.5283 89.3724 46.006 88.6997C47.4631 88.1194 48.7003 88.2113 49.5101 88.8082L52.5141 90.7392L44.4838 100.426L41.508 98.4975C40.6746 97.9747 40.2301 96.9685 40.3889 95.5896Z" fill="#CECECE"/>
<path d="M49.1252 90.719C47.6492 91.3937 46.3717 92.3689 45.3959 93.5658C44.4201 94.7627 43.7734 96.1477 43.5081 97.6089C43.1685 100.314 45.1905 101.599 47.9676 100.507C49.4436 99.8324 50.7212 98.8572 51.6969 97.6603C52.6727 96.4634 53.3194 95.0784 53.5847 93.6172C53.9032 90.9103 51.9038 89.6148 49.1252 90.719Z" fill="#B8B8B8"/>
<path d="M50.2509 94.9396C50.3836 93.8829 49.7397 93.3281 48.7723 93.7026C48.2449 93.9684 47.7953 94.3415 47.4598 94.7915C47.1244 95.2416 46.9126 95.7559 46.8416 96.2927C46.709 97.3495 47.3536 97.898 48.3203 97.5298C48.8458 97.262 49.294 96.8884 49.6292 96.4388C49.9644 95.9891 50.1773 95.4757 50.2509 94.9396Z" fill="#CECECE"/>
<path opacity="0.15" d="M43.5085 97.6087C43.6463 96.6389 43.9868 95.7008 44.5121 94.843L53.181 91.4366C53.5617 92.1093 53.7004 92.8706 53.578 93.6163C53.5741 93.6478 53.5701 93.6792 53.5654 93.7169L43.5084 97.666C43.5084 97.666 43.5061 97.6276 43.5085 97.6087Z" fill="black"/>
<path d="M71.2378 121.98C72.945 122.269 74.7067 122.165 76.3561 121.677L123.618 103.279C126.454 102.34 129.864 99.5092 130.427 96.5593L135.333 68.4467L132.876 68.0734L127.961 96.1917C127.582 98.1918 124.903 100.484 122.76 101.187L75.4625 119.588C74.2127 119.913 72.8964 119.98 71.6132 119.785C70.3299 119.589 69.1133 119.136 68.0553 118.458L40.3719 100.263C39.7194 99.7774 39.366 99.2389 39.4471 98.8203C39.5282 98.4016 40.0243 98.0309 40.8209 97.7667L91.4733 77.8798C94.3019 76.9463 97.6979 74.1079 98.2609 71.158L100.891 55.5557L98.4321 55.1887L95.8033 70.7848C95.4221 72.7975 92.7448 75.0836 90.6087 75.7871L39.9555 95.6802C38.2808 96.2324 37.2297 97.2163 36.9895 98.447C36.7494 99.6777 37.3878 100.958 38.7797 101.976L66.4631 120.172C67.8565 121.127 69.4998 121.75 71.2378 121.98Z" fill="#B8B8B8"/>
<path d="M79.2929 122.143C79.5555 120.681 80.2011 119.295 81.1772 118.098C82.1533 116.9 83.4322 115.926 84.91 115.253C86.3671 114.673 87.605 114.758 88.407 115.361L91.4181 117.293L83.3878 126.979L80.4119 125.051C79.5926 124.529 79.12 123.52 79.2929 122.143Z" fill="#CECECE"/>
<path d="M88.0477 117.274C86.5689 117.947 85.2893 118.923 84.313 120.121C83.3367 121.319 82.6915 122.707 82.4298 124.17C82.091 126.868 84.1052 128.159 86.8901 127.062C88.366 126.388 89.643 125.412 90.6177 124.215C91.5924 123.018 92.2373 121.633 92.5002 120.171C92.8178 117.471 90.8279 116.157 88.0477 117.274Z" fill="#B8B8B8"/>
<path d="M89.1728 121.494C89.3055 120.438 88.6616 119.883 87.6942 120.257C87.1661 120.522 86.7159 120.895 86.3803 121.345C86.0447 121.796 85.8334 122.31 85.7635 122.847C85.6316 123.898 86.2755 124.453 87.2359 124.078C87.7631 123.813 88.213 123.441 88.5495 122.992C88.8859 122.543 89.0995 122.03 89.1728 121.494Z" fill="#CECECE"/>
<path d="M114.238 108.538C114.497 107.076 115.139 105.689 116.111 104.491C117.084 103.292 118.359 102.315 119.834 101.64C121.299 101.06 122.529 101.145 123.339 101.742L126.351 103.667L118.34 113.368L115.358 111.44C114.523 110.923 114.079 109.917 114.238 108.538Z" fill="#CECECE"/>
<path d="M122.962 103.659C121.491 104.333 120.217 105.306 119.244 106.5C118.271 107.693 117.627 109.075 117.362 110.532C117.023 113.23 119.051 114.522 121.83 113.418C123.305 112.742 124.581 111.765 125.553 110.567C126.526 109.368 127.168 107.982 127.427 106.52C127.742 103.838 125.742 102.549 122.962 103.659Z" fill="#B8B8B8"/>
<path d="M124.099 107.868C124.231 106.818 123.587 106.263 122.62 106.637C122.093 106.904 121.644 107.277 121.309 107.727C120.974 108.177 120.761 108.691 120.689 109.228C120.557 110.284 121.201 110.833 122.175 110.465C122.7 110.196 123.147 109.821 123.481 109.37C123.815 108.919 124.027 108.405 124.099 107.868Z" fill="#CECECE"/>
<path d="M144.937 34.7469C145.538 33.3502 145.652 31.8238 145.263 30.3684C144.874 28.913 144 27.5968 142.757 26.5929L115.096 8.73734C112.608 6.89623 109.518 7.69533 108.245 10.3385L105.449 16.0649L107.346 17.3246L110.304 11.5508C110.434 11.2393 110.649 10.9614 110.929 10.7423C111.209 10.5232 111.546 10.3696 111.909 10.2954C112.272 10.2212 112.65 10.2287 113.009 10.3172C113.368 10.4057 113.697 10.5725 113.966 10.8025L140.903 28.178C141.694 28.828 142.252 29.672 142.506 30.604C142.761 31.5361 142.702 32.5146 142.336 33.4166L139.888 38.9357L142.147 40.4356L144.937 34.7469Z" fill="#B8B8B8"/>
<path d="M95.6865 58.7609L132.792 83.1788L71.0604 107.256L33.955 82.8385L95.6865 58.7609Z" fill="#B8B8B8"/>
<path opacity="0.5" d="M95.6865 58.7609L132.792 83.1788L71.0604 107.256L33.955 82.8385L95.6865 58.7609Z" fill="black"/>
<path d="M142.142 40.4733L105.449 16.0712L95.6864 58.761L132.792 83.1788L142.142 40.4733Z" fill="#B8B8B8"/>
<path opacity="0.35" d="M142.142 40.4733L105.449 16.0712L95.6864 58.761L132.792 83.1788L142.142 40.4733Z" fill="black"/>
<path d="M105.455 16.0717L95.6928 58.7615L33.9613 82.8391L29.3424 45.7485L105.455 16.0717ZM79.9757 55.5078C80.784 55.8232 81.6989 55.8417 82.5223 55.5593C83.3457 55.2769 84.0113 54.7163 84.375 53.9989L96.7455 32.76C97.0002 32.4312 97.1734 32.0576 97.2535 31.6642C97.3336 31.2708 97.3188 30.8668 97.21 30.4789C97.1012 30.0911 96.9009 29.7284 96.6226 29.4152C96.3442 29.102 95.9942 28.8453 95.5959 28.6625C95.1976 28.4796 94.7602 28.3747 94.3128 28.3548C93.8655 28.3349 93.4185 28.4004 93.0018 28.547C92.5851 28.6936 92.2082 28.9178 91.8963 29.2048C91.5844 29.4917 91.3447 29.8348 91.1932 30.211L78.8227 51.45C78.3805 52.1255 78.2529 52.9289 78.4672 53.6875C78.6815 54.4461 79.2206 55.0995 79.9687 55.5071L79.9757 55.5078ZM60.9188 61.2952C61.7256 61.6142 62.6411 61.6353 63.4652 61.3537C64.2893 61.0722 64.9552 60.511 65.3172 59.7926L77.6595 38.5509C77.9137 38.2229 78.0868 37.8505 78.1673 37.4582C78.2478 37.066 78.2338 36.663 78.1264 36.2759C78.0189 35.8888 77.8204 35.5266 77.544 35.2133C77.2676 34.9 76.9197 34.6428 76.5234 34.4588C76.1271 34.2747 75.6914 34.1681 75.2454 34.146C74.7993 34.1238 74.3531 34.1866 73.9364 34.3303C73.5196 34.4739 73.1419 34.6951 72.8283 34.9791C72.5147 35.2631 72.2724 35.6034 72.1175 35.9775L59.747 57.2164C59.2972 57.8954 59.1672 58.7059 59.3855 59.4702C59.6039 60.2346 60.1526 60.8906 60.9117 61.2945L60.9188 61.2952ZM41.861 67.0889C42.663 67.4089 43.574 67.4339 44.3965 67.1585C45.2191 66.8832 45.887 66.3296 46.2555 65.6178L58.6189 44.3781C58.8676 44.0507 59.0359 43.6801 59.1127 43.2905C59.1895 42.901 59.1731 42.5013 59.0645 42.1178C58.956 41.7343 58.7578 41.3757 58.4829 41.0654C58.2081 40.7552 57.8628 40.5003 57.4698 40.3176C57.0767 40.135 56.6449 40.0286 56.2025 40.0055C55.7601 39.9823 55.3173 40.043 54.9031 40.1836C54.4889 40.3241 54.1126 40.5412 53.7991 40.8207C53.4856 41.1003 53.2419 41.4358 53.084 41.8054L40.7134 63.0444C40.2736 63.7177 40.1467 64.518 40.3598 65.2739C40.573 66.0298 41.1094 66.681 41.854 67.0882L41.861 67.0889Z" fill="#B8B8B8"/>
<path opacity="0.23" d="M105.455 16.0717L95.6928 58.7615L33.9613 82.8391L29.3424 45.7485L105.455 16.0717ZM79.9757 55.5078C80.784 55.8232 81.6989 55.8417 82.5223 55.5593C83.3457 55.2769 84.0113 54.7163 84.375 53.9989L96.7455 32.76C97.0002 32.4312 97.1734 32.0576 97.2535 31.6642C97.3336 31.2708 97.3188 30.8668 97.21 30.4789C97.1012 30.0911 96.9009 29.7284 96.6226 29.4152C96.3442 29.102 95.9942 28.8453 95.5959 28.6625C95.1976 28.4796 94.7602 28.3747 94.3128 28.3548C93.8655 28.3349 93.4185 28.4004 93.0018 28.547C92.5851 28.6936 92.2082 28.9178 91.8963 29.2048C91.5844 29.4917 91.3447 29.8348 91.1932 30.211L78.8227 51.45C78.3805 52.1255 78.2529 52.9289 78.4672 53.6875C78.6815 54.4461 79.2206 55.0995 79.9687 55.5071L79.9757 55.5078ZM60.9188 61.2952C61.7256 61.6142 62.6411 61.6353 63.4652 61.3537C64.2893 61.0722 64.9552 60.511 65.3172 59.7926L77.6595 38.5509C77.9137 38.2229 78.0868 37.8505 78.1673 37.4582C78.2478 37.066 78.2338 36.663 78.1264 36.2759C78.0189 35.8888 77.8204 35.5266 77.544 35.2133C77.2676 34.9 76.9197 34.6428 76.5234 34.4588C76.1271 34.2747 75.6914 34.1681 75.2454 34.146C74.7993 34.1238 74.3531 34.1866 73.9364 34.3303C73.5196 34.4739 73.1419 34.6951 72.8283 34.9791C72.5147 35.2631 72.2724 35.6034 72.1175 35.9775L59.747 57.2164C59.2972 57.8954 59.1672 58.7059 59.3855 59.4702C59.6039 60.2346 60.1526 60.8906 60.9117 61.2945L60.9188 61.2952ZM41.861 67.0889C42.663 67.4089 43.574 67.4339 44.3965 67.1585C45.2191 66.8832 45.887 66.3296 46.2555 65.6178L58.6189 44.3781C58.8676 44.0507 59.0359 43.6801 59.1127 43.2905C59.1895 42.901 59.1731 42.5013 59.0645 42.1178C58.956 41.7343 58.7578 41.3757 58.4829 41.0654C58.2081 40.7552 57.8628 40.5003 57.4698 40.3176C57.0767 40.135 56.6449 40.0286 56.2025 40.0055C55.7601 39.9823 55.3173 40.043 54.9031 40.1836C54.4889 40.3241 54.1126 40.5412 53.7991 40.8207C53.4856 41.1003 53.2419 41.4358 53.084 41.8054L40.7134 63.0444C40.2736 63.7177 40.1467 64.518 40.3598 65.2739C40.573 66.0298 41.1094 66.681 41.854 67.0882L41.861 67.0889Z" fill="black"/>
<path d="M142.143 40.4732L132.792 83.1788L71.0606 107.256L66.441 70.172L142.143 40.4732ZM113.928 80.6101C114.736 80.9255 115.651 80.9441 116.475 80.6616C117.298 80.3792 117.964 79.8186 118.327 79.1013L130.691 57.8616C130.941 57.5341 131.11 57.163 131.188 56.7727C131.266 56.3824 131.25 55.9819 131.141 55.5976C131.033 55.2132 130.834 54.8538 130.559 54.5429C130.283 54.2321 129.937 53.9769 129.543 53.7942C129.149 53.6115 128.716 53.5055 128.273 53.4831C127.829 53.4607 127.386 53.5224 126.971 53.6643C126.556 53.8061 126.18 54.0248 125.867 54.3059C125.554 54.5871 125.311 54.9242 125.155 55.2952L112.785 76.5278C112.334 77.2053 112.201 78.0144 112.415 78.779C112.629 79.5437 113.173 80.2018 113.928 80.6101ZM94.8711 86.3975C95.6779 86.7166 96.5934 86.7376 97.4175 86.4561C98.2417 86.1745 98.9075 85.6133 99.2695 84.895L111.612 63.6532C111.866 63.3253 112.039 62.9528 112.12 62.5606C112.2 62.1683 112.186 61.7653 112.079 61.3782C111.971 60.9912 111.773 60.6289 111.496 60.3156C111.22 60.0023 110.872 59.7451 110.476 59.5611C110.079 59.3771 109.644 59.2704 109.198 59.2483C108.752 59.2261 108.305 59.289 107.889 59.4326C107.472 59.5763 107.094 59.7974 106.781 60.0814C106.467 60.3654 106.225 60.7058 106.07 61.0798L93.7064 82.3194C93.2566 82.9985 93.1266 83.8089 93.3449 84.5733C93.5632 85.3376 94.112 85.9936 94.8711 86.3975ZM75.8133 92.1912C76.6192 92.51 77.5338 92.5307 78.3568 92.249C79.1798 91.9673 79.8443 91.406 80.2047 90.688L92.5752 69.449C92.8294 69.1211 93.0025 68.7486 93.083 68.3564C93.1635 67.9641 93.1495 67.5611 93.0421 67.174C92.9346 66.787 92.7361 66.4248 92.4597 66.1115C92.1834 65.7982 91.8354 65.5409 91.4391 65.3569C91.0428 65.1729 90.6071 65.0662 90.1611 65.0441C89.7151 65.0219 89.2688 65.0848 88.8521 65.2284C88.4353 65.3721 88.0576 65.5933 87.744 65.8773C87.4304 66.1612 87.1881 66.5016 87.0332 66.8756L74.6697 88.1153C74.2189 88.7918 74.0861 89.6 74.3003 90.3636C74.5146 91.1273 75.0585 91.7842 75.8133 92.1912Z" fill="#B8B8B8"/>
<g opacity="0.15">
<path opacity="0.15" d="M142.143 40.4732L132.792 83.1788L71.0606 107.256L66.441 70.172L142.143 40.4732ZM113.928 80.6101C114.736 80.9255 115.651 80.9441 116.475 80.6616C117.298 80.3792 117.964 79.8186 118.327 79.1013L130.691 57.8616C130.941 57.5341 131.11 57.163 131.188 56.7727C131.266 56.3824 131.25 55.9819 131.141 55.5976C131.033 55.2132 130.834 54.8538 130.559 54.5429C130.283 54.2321 129.937 53.9769 129.543 53.7942C129.149 53.6115 128.716 53.5055 128.273 53.4831C127.829 53.4607 127.386 53.5224 126.971 53.6643C126.556 53.8061 126.18 54.0248 125.867 54.3059C125.554 54.5871 125.311 54.9242 125.155 55.2952L112.785 76.5278C112.334 77.2053 112.201 78.0144 112.415 78.779C112.629 79.5437 113.173 80.2018 113.928 80.6101ZM94.8711 86.3975C95.6779 86.7166 96.5934 86.7376 97.4175 86.4561C98.2417 86.1745 98.9075 85.6133 99.2695 84.895L111.612 63.6532C111.866 63.3253 112.039 62.9528 112.12 62.5606C112.2 62.1683 112.186 61.7653 112.079 61.3782C111.971 60.9912 111.773 60.6289 111.496 60.3156C111.22 60.0023 110.872 59.7451 110.476 59.5611C110.079 59.3771 109.644 59.2704 109.198 59.2483C108.752 59.2261 108.305 59.289 107.889 59.4326C107.472 59.5763 107.094 59.7974 106.781 60.0814C106.467 60.3654 106.225 60.7058 106.07 61.0798L93.7064 82.3194C93.2566 82.9985 93.1266 83.8089 93.3449 84.5733C93.5632 85.3376 94.112 85.9936 94.8711 86.3975ZM75.8133 92.1912C76.6192 92.51 77.5338 92.5307 78.3568 92.249C79.1798 91.9673 79.8443 91.406 80.2047 90.688L92.5752 69.449C92.8294 69.1211 93.0025 68.7486 93.083 68.3564C93.1635 67.9641 93.1495 67.5611 93.0421 67.174C92.9346 66.787 92.7361 66.4248 92.4597 66.1115C92.1834 65.7982 91.8354 65.5409 91.4391 65.3569C91.0428 65.1729 90.6071 65.0663 90.1611 65.0441C89.7151 65.0219 89.2688 65.0848 88.8521 65.2284C88.4353 65.3721 88.0576 65.5933 87.744 65.8773C87.4304 66.1612 87.1881 66.5016 87.0332 66.8756L74.6697 88.1153C74.2189 88.7918 74.0861 89.6 74.3003 90.3636C74.5146 91.1273 75.0585 91.7842 75.8133 92.1912Z" fill="black"/>
</g>
<path d="M66.4469 70.1727L29.3414 45.7549L33.9533 82.8448L71.0595 107.256L66.4469 70.1727Z" fill="#B8B8B8"/>
<path opacity="0.4" d="M66.4469 70.1727L29.3414 45.7549L33.9533 82.8448L71.0595 107.256L66.4469 70.1727Z" fill="black"/>
</svg>
