<svg width="40" height="40" viewBox="0 0 40 40" fill="none" xmlns="http://www.w3.org/2000/svg">
<rect x="0.5" y="0.5" width="39" height="39" rx="3.5" fill="#E5EFFF" stroke="#256EE4"/>
<g clip-path="url(#clip0_405_17227)">
<path d="M10 25.5H12.5C13.6046 25.5 14.5 26.3954 14.5 27.5V30C14.5 31.1046 13.6046 32 12.5 32H10C8.89545 32 8 31.1046 8 30V27.5C8 26.3955 8.89545 25.5 10 25.5Z" fill="#256EE4"/>
<path d="M31.118 25.8419C30.7881 25.6184 30.3985 25.4993 30 25.4999H27.5C26.3955 25.4999 25.5 26.3953 25.5 27.5V29.9999C25.5 31.1046 26.3955 32 27.5 32H30C31.1046 32 32 31.1046 32 29.9999V27.5C31.9999 26.835 31.6694 26.2137 31.118 25.8419Z" fill="#256EE4"/>
<path d="M10 16.75H12.5C13.6046 16.75 14.5 17.6455 14.5 18.7501V21.25C14.5 22.3546 13.6046 23.2501 12.5 23.2501H10C8.89545 23.25 8 22.3546 8 21.25V18.7501C8 17.6454 8.89545 16.75 10 16.75Z" fill="#256EE4"/>
<path d="M31.118 17.092C30.7881 16.8685 30.3985 16.7493 30 16.75H27.5C26.3955 16.75 25.5 17.6454 25.5 18.75V21.25C25.5 22.3545 26.3955 23.25 27.5 23.25H30C31.1046 23.25 32 22.3545 32 21.25V18.75C31.9999 18.085 31.6694 17.4636 31.118 17.092Z" fill="#256EE4"/>
<path d="M10 8H12.5C13.6046 8 14.5 8.89545 14.5 10V12.5C14.5 13.6046 13.6046 14.5 12.5 14.5H10C8.89545 14.5 8 13.6046 8 12.5V10C8 8.89545 8.89545 8 10 8Z" fill="#256EE4"/>
<path d="M22.368 25.8419C22.0381 25.6184 21.6485 25.4993 21.25 25.4999H18.75C17.6455 25.4999 16.75 26.3953 16.75 27.5V29.9999C16.75 31.1045 17.6455 32 18.75 32H21.25C22.3546 32 23.25 31.1046 23.25 29.9999V27.5C23.2499 26.835 22.9194 26.2137 22.368 25.8419Z" fill="#256EE4"/>
<path d="M22.368 17.092C22.0381 16.8685 21.6485 16.7493 21.25 16.75H18.75C17.6455 16.75 16.75 17.6454 16.75 18.75V21.25C16.75 22.3545 17.6455 23.25 18.75 23.25H21.25C22.3546 23.25 23.25 22.3545 23.25 21.25V18.75C23.2499 18.085 22.9194 17.4636 22.368 17.092Z" fill="#256EE4"/>
<path d="M22.368 8.34194C22.0381 8.11844 21.6485 7.99929 21.25 7.99994H18.75C17.6455 7.99994 16.75 8.89539 16.75 9.99996V12.4999C16.75 13.6045 17.6455 14.5 18.75 14.5H21.25C22.3546 14.5 23.25 13.6045 23.25 12.4999V9.99996C23.2499 9.33504 22.9194 8.71361 22.368 8.34194Z" fill="#256EE4"/>
<path d="M31.658 8.882C31.2863 8.33066 30.6649 8.00009 30 8H27.5C26.3955 8 25.5 8.89545 25.5 10V12.5C25.5 13.6046 26.3955 14.5 27.5 14.5H30C31.1046 14.5 32 13.6046 32 12.5V10C32.0007 9.60148 31.8815 9.21195 31.658 8.882Z" fill="#256EE4"/>
</g>
<defs>
<clipPath id="clip0_405_17227">
<rect width="24" height="24" fill="white" transform="translate(8 8)"/>
</clipPath>
</defs>
</svg>
