<svg width="1440" height="214" viewBox="0 0 1440 214" fill="none" xmlns="http://www.w3.org/2000/svg">
<g opacity="0.3" clip-path="url(#clip0_687_42412)">
<rect width="1441" height="214" fill="#E5EFFF"/>
<g style="mix-blend-mode:overlay" opacity="0.6" clip-path="url(#clip1_687_42412)">
<path d="M-0.000169852 158.769C16.8875 156.417 33.1854 158.589 48.6461 165.24C57.3965 169.002 65.7578 173.614 74.1898 178.048C91.2308 187.005 108.248 196.028 125.171 205.187C130.242 207.93 135.325 207.751 140.679 206.586C142.648 206.161 144.712 205.69 146.682 205.836C150.88 206.138 154.854 207.392 156.753 211.344C158.675 215.364 158.086 219.461 155.114 222.82C147.955 230.915 140.844 239.11 131.575 245.212C125.678 249.097 119.664 252.814 113.744 256.654C102.859 263.696 91.8558 270.593 81.1949 277.926C76.914 280.882 73.3054 284.756 69.5552 288.372C66.4654 291.35 62.8449 291.193 60.2858 287.611C57.8329 284.174 58.0452 280.479 59.5901 276.818C62.3378 270.268 66.5126 264.547 72.3619 260.259C78.1877 255.994 84.3554 252.064 90.6883 248.526C97.5047 244.719 104.852 241.741 111.715 238.002C119.227 233.915 126.468 229.381 133.792 224.981C135.03 224.231 136.092 223.212 137.424 222.171C112.281 214.513 90.4053 201.414 68.2461 188.852C58.0334 183.064 47.8206 177.298 36.4167 173.749C25.2251 170.267 13.8802 169.002 2.20513 170.905C1.48575 171.028 0.730999 170.95 -0.0119629 170.961C-0.000169852 166.897 -0.000169852 162.833 -0.000169852 158.769Z" fill="#0E3572"/>
<path d="M0 194.159C13.6799 198.144 27.8434 199.533 41.9243 201.402C44.33 201.727 46.7476 202.432 48.9883 203.351C57.1373 206.676 59.1421 214.356 53.2927 220.715C50.9459 223.268 47.9033 225.362 44.8725 227.209C38.6694 231.004 32.2422 234.475 25.9329 238.114C24.4941 238.942 23.1262 239.916 21.7935 241.551C24.1168 241.752 26.4518 242.144 28.775 242.111C34.5536 242.01 40.3322 241.685 46.099 241.472C50.8044 241.293 55.5806 241.26 58.1397 245.962C60.6752 250.631 58.2104 254.527 55.1089 257.886C50.8162 262.543 46.3584 267.111 41.6176 271.343C26.2867 285.024 11.4628 299.086 0.908064 316.63C0.719375 316.955 0.318412 317.168 0.011793 317.425C0.011793 306.845 0.011793 296.265 0.011793 285.685C11.569 276.068 23.1262 266.462 34.53 256.968C29.6949 256.968 24.6828 257.225 19.7062 256.912C12.2648 256.441 5.00025 255.232 0.011793 249.063C0.011793 244.999 0.011793 240.924 0.011793 236.86C11.109 226.627 25.1781 220.883 38.5632 214.02C32.5842 213.203 26.6994 212.856 20.8855 212.083C13.904 211.165 6.96969 209.9 0.0235861 208.781C0 203.933 0 199.04 0 194.159Z" fill="#0E3572"/>
<path d="M1354.08 212.62C1354.67 211.355 1355.09 210.46 1355.5 209.564C1357.4 205.466 1359.25 201.357 1361.21 197.282C1365.61 188.102 1372.19 180.634 1380.8 174.689C1390.07 168.285 1399.16 161.646 1408.43 155.253C1421.9 145.949 1431.53 133.656 1437.93 119.336C1444.88 103.741 1442.41 88.2344 1433.47 73.982C1428.14 65.4844 1418.62 61.521 1409.19 58.3078C1389.54 51.6239 1371.83 56.3709 1357.72 69.7948C1345.56 81.3601 1342.26 96.4186 1347.15 112.496C1347.93 115.026 1349.68 117.288 1351.31 120.288C1352.47 118.721 1353.07 117.825 1353.77 116.997C1358.56 111.264 1363.18 105.398 1368.25 99.9117C1370.3 97.6949 1373.19 96.0043 1376.01 94.6496C1379.53 92.959 1383.36 93.9219 1385.38 96.3514C1387.39 98.7697 1387.24 101.759 1384.54 105.017C1373.89 117.892 1365.28 131.932 1358.23 146.822C1355.96 151.614 1354.54 156.775 1352.77 161.78C1352.53 162.441 1352.36 163.191 1352.44 163.862C1352.83 167.311 1351.18 168.777 1347.35 168.274C1343.51 167.77 1339.78 164.635 1339.42 160.134C1339.05 155.566 1339.39 150.786 1340.43 146.307C1341.78 140.485 1344.12 134.876 1346.09 129.032C1345.69 128.864 1345.15 128.551 1344.55 128.394C1338.53 126.782 1334.23 123.143 1331.15 118.116C1327.08 111.466 1324.92 104.244 1324.9 96.5865C1324.85 81.8863 1329.76 68.6752 1341.01 58.5765C1356.31 44.8504 1374.55 36.6886 1396.1 37.3044C1412.58 37.7746 1427.57 43.0031 1441.05 51.9934C1452.16 59.405 1457.31 70.2538 1460.27 82.3901C1464.92 101.445 1461.61 119.001 1450.33 135.459C1440.35 150.036 1428.86 163.056 1413.45 172.786C1405.97 177.51 1398.97 182.929 1391.6 187.833C1384.4 192.625 1378.71 198.592 1375.28 206.284C1371.81 214.042 1368.58 221.891 1365.42 229.761C1364.45 232.18 1363.03 233.859 1360.36 234.318C1357.34 234.844 1354.68 233.859 1353.06 231.463C1348.1 224.152 1340.6 219.763 1332.7 216.281C1311.1 206.754 1289.51 207.437 1268.29 217.67C1266.17 218.7 1264.33 220.256 1262.2 221.252C1253.88 225.093 1245.38 224.018 1237.17 221.196C1219.68 215.173 1205.05 205.254 1194.75 190.397C1178.41 166.807 1171.14 141.314 1178.63 113.201C1183.67 94.2913 1195.37 80.4421 1214.27 72.4706C1227.88 66.7383 1241.38 67.7012 1254.61 73.8365C1255 74.0156 1255.37 74.2395 1255.76 74.3963C1255.95 74.4747 1256.17 74.4523 1256.82 74.5418C1257.06 73.2319 1257.23 71.8884 1257.54 70.5673C1259.25 63.234 1260.96 55.9007 1262.78 48.5898C1263.12 47.2239 1263.79 45.9028 1264.5 44.6601C1266.6 40.9766 1270.55 39.342 1274.51 40.3833C1278.15 41.3349 1280.68 44.425 1280.26 48.5562C1279.53 55.8335 1278.35 63.0773 1277.34 70.3322C1275.21 85.5474 1273.12 100.774 1270.89 115.978C1270.19 120.691 1269.32 125.416 1268.09 130.029C1267.12 133.701 1263.45 134.563 1260.84 131.674C1259.11 129.749 1257.61 127.207 1257.14 124.755C1256.27 120.187 1255.98 115.485 1255.88 110.816C1255.73 104.513 1255.9 98.1987 1256.15 91.9066C1256.23 89.6562 1255.32 88.727 1253.18 88.0105C1241.24 83.9911 1230.58 85.469 1220.17 92.7463C1204.88 103.427 1198.9 118.116 1199.19 135.167C1199.64 161.993 1214.11 195.703 1252.93 208.982C1255.07 209.721 1256.16 209.687 1257.48 207.582C1260.77 202.343 1265.9 198.917 1271.71 196.588C1300.48 185.101 1329.92 189.591 1351.25 210.124C1352.07 210.874 1352.92 211.602 1354.08 212.62Z" fill="#0E3572"/>
<path d="M885.397 166.752C883.157 157.907 882.532 150.07 883.487 142.11C885.999 121.073 894.714 103.462 912.981 90.3064C943.254 68.4968 975.343 49.699 1010.45 35.7713C1024.45 30.2182 1039.04 26.3108 1054.25 25.5047C1060.26 25.1801 1066.37 26.2661 1072.42 26.8035C1073.57 26.9042 1074.71 27.352 1075.78 27.7999C1078.63 28.9866 1081.33 30.4757 1081.07 33.9464C1080.8 37.5179 1077.75 38.5367 1074.72 38.9734C1066.88 40.0817 1058.96 40.6639 1051.16 41.985C1028.71 45.8028 1007.74 53.5504 987.619 63.6938C965.708 74.7441 944.834 87.1716 925.175 101.614C910.198 112.609 903.11 126.872 901.624 144.192C901.259 148.424 901.318 152.723 901.566 156.978C901.884 162.285 903.7 166.976 907.863 170.917C912.698 175.485 911 182.549 904.419 184.24C900.445 185.259 895.704 185.561 891.813 184.508C882.366 181.933 873.003 178.866 864.017 175.115C835.336 163.135 805.9 153.115 776.158 143.912C767.88 141.348 759.023 140.441 750.449 138.695C748.268 138.247 746.027 137.743 744.069 136.803C740.968 135.314 739.305 132.716 739.517 129.335C739.741 125.954 741.699 123.401 744.989 122.461C747.784 121.666 750.874 121.845 753.822 121.476C756.959 121.084 760.297 121.061 763.174 119.987C776.642 114.948 788.824 107.862 799.568 98.5465C811.832 87.9217 824.321 77.5319 836.609 66.9182C840.796 63.302 844.747 59.4058 848.674 55.5208C852.094 52.1397 856.304 51.1768 859.924 53.2033C863.179 55.0282 864.323 58.2414 863.25 62.563C859.795 76.3899 860.514 90.4519 860.632 104.469C860.632 104.827 860.891 105.186 861.198 106.003C862.248 104.85 863.12 103.999 863.875 103.058C871.458 93.5868 879.064 84.1263 886.529 74.565C887.119 73.8149 887.143 71.9564 886.565 71.2286C884.312 68.3961 881.741 65.7987 879.241 63.1452C878.463 62.3167 877.519 61.6114 876.706 60.8053C870.963 55.073 872.201 48.6914 879.925 45.814C884.69 44.0339 889.678 42.7352 894.667 41.5932C906.318 38.9286 918.217 37.1148 929.055 31.864C929.999 31.405 930.954 30.9683 931.697 30.6212C927.357 20.545 923.088 10.6254 918.571 0.157292C924.585 0.157292 930.187 0.112509 935.777 0.235664C936.284 0.246859 937.039 1.26568 937.239 1.93744C939.916 11.0397 944.351 19.3134 949.669 27.2849C953.172 32.5357 951.202 36.6222 944.999 38.6151C944.598 38.7494 944.162 38.8278 943.785 39.0069C928.23 46.3514 911.684 50.8298 894.832 54.4684C894.042 54.6364 893.31 55.0618 892.45 55.4089C894.902 58.9692 897.367 62.2719 899.525 65.7539C903.264 71.7884 902.662 74.1508 898.181 79.7599C886.093 94.9191 874.253 110.257 862.318 125.529C862.259 125.607 862.212 125.697 862.153 125.786C859.618 129.414 856.811 130.791 853.379 130.085C850.054 129.402 848.037 126.984 847.53 122.562C846.728 115.486 845.843 108.399 845.501 101.301C845.159 94.2138 845.431 87.0932 845.431 79.9838C845.077 79.8606 844.711 79.7487 844.357 79.6255C843.638 80.0846 842.872 80.4764 842.223 81.0138C832.883 88.795 823.401 96.4305 814.262 104.424C804.839 112.676 794.791 120.031 783.541 125.898C782.904 126.234 782.303 126.637 781.453 127.152C815.96 140.307 850.23 153.362 885.397 166.752Z" fill="#0E3572"/>
<path d="M195.045 328.196C195.234 327.994 195.434 327.86 195.505 327.692C198.076 321.96 202.758 319.541 207.793 321.377C212.888 323.225 215.588 329.349 213.678 334.678C212.451 338.093 209.904 340.332 206.449 341.575C193.205 346.322 175.999 342.157 175.103 322.363C174.218 302.837 197.392 285.047 218.902 293.858C233.384 299.792 247.866 318.366 240.826 338.641C238.703 344.743 235.566 350.688 231.898 356.107C224.681 366.777 213.206 370.729 200.529 372.352C184.785 374.367 172.249 369.273 162.272 357.641C156.305 350.688 151.717 343.109 148.58 334.678C147.507 331.812 146.175 329.035 144.83 326.27C143.651 323.818 141.481 322.9 139.028 324.255C133.132 327.513 127.211 330.771 121.669 334.521C118.131 336.917 115.241 340.186 112.057 343.053C110.972 344.038 109.935 345.079 108.767 345.964C102.34 350.867 94.4503 348.147 93.5069 340.366C93.0116 336.302 93.271 331.946 94.2734 327.983C99.427 307.774 111.314 292.055 130.089 281.162C143.486 273.392 158.392 269.653 173.57 266.798C193.748 263.013 213.973 259.475 234.162 255.77C247.89 253.251 259.152 246.947 267.254 235.942C268.174 234.699 269.07 233.423 269.836 232.09C275.072 223.033 270.426 213.203 259.624 211.501C247.772 209.643 236.592 212.218 226.426 218.219C222.582 220.491 220.211 223.985 219.398 228.373C218.761 231.777 216.827 232.471 213.654 230.68C208.831 227.937 206.767 222.171 208.666 216.472C210.388 211.322 213.855 207.292 218.525 204.392C232.075 195.984 246.875 192.838 262.69 196.644C283.599 201.682 292.632 222.753 281.5 240.241C271.594 255.803 257.289 266.35 238.774 270.985C217.546 276.292 196.118 280.893 174.761 285.719C161.671 288.674 148.934 292.436 137.33 299.109C129.617 303.542 123.39 309.364 118.815 316.899C119.794 316.373 120.772 315.858 121.739 315.32C127.058 312.41 132.506 309.801 138.745 309.252C145.738 308.637 151.576 310.932 155.302 316.574C157.838 320.403 159.796 324.669 161.399 328.946C164.348 336.817 168.805 343.668 174.183 350.274C187.155 366.194 215.128 358.055 221.025 344.228C226.179 332.148 225.235 322.34 216.225 314.996C212.369 311.85 207.982 310.126 202.876 311.928C197.533 313.809 194.278 317.515 193.193 322.822C192.804 324.871 192.734 326.931 195.045 328.196Z" fill="#0E3572"/>
<path d="M952.925 178.943C955.437 176.794 957.949 174.611 960.496 172.483C961.534 171.621 962.584 170.67 963.799 170.099C966.228 168.979 968.681 169.102 970.509 171.196C972.301 173.245 971.912 175.461 970.096 177.275C965.603 181.742 960.992 186.098 956.416 190.486C955.213 191.64 953.928 192.726 952.76 193.901C950.838 195.849 948.715 197.45 945.743 196.61C942.312 195.648 939.104 194.36 937.83 190.632C936.946 188.057 935.814 185.538 934.516 183.131C931.226 177.018 929.882 170.468 929.528 163.717C928.891 151.278 930.955 139.377 937.842 128.54C941.05 123.49 945.095 119.213 950.708 116.482C955.473 114.164 960.461 113.425 965.638 115.049C970.344 116.515 972.573 119.516 972.879 124.061C972.962 125.382 973.54 126.827 974.342 127.913C995.699 156.552 1017.11 185.135 1038.5 213.751C1039.79 215.487 1041.36 217.233 1041.95 219.215C1042.51 221.062 1042.15 223.257 1041.77 225.227C1041.5 226.671 1040.55 227.992 1039.89 229.37C1037.8 233.725 1033.47 234.956 1029.45 232.325C1028.57 231.754 1027.66 231.206 1026.8 230.601C1022.03 227.209 1017.15 226.671 1010.98 227.31C983.729 230.142 961.593 243.196 940.036 257.673C934.174 261.602 928.526 265.823 922.641 269.719C913.82 275.564 905.73 282.158 898.276 289.525C883.747 303.9 867.107 316.014 849.807 327.087C831.327 338.921 810.524 345.112 787.953 344.709C762.326 344.25 745.12 331.823 734.778 310.204C731.075 302.445 729.73 294.048 729.282 285.562C729.211 284.151 729.306 282.707 729.506 281.307C729.943 278.351 731.452 276.101 734.683 275.385C737.95 274.668 740.792 275.72 742.502 278.363C743.941 280.579 744.99 283.087 745.804 285.584C747.432 290.533 748.517 295.638 750.286 300.542C755.64 315.421 770.192 330.211 794.91 327.535C812.27 325.665 828.096 319.933 841.941 310.069C858.381 298.359 874.938 286.704 888.783 272.071C890.493 270.257 892.356 268.533 894.373 267.032C915.53 251.291 936.356 235.113 960.284 223.111C972.785 216.83 985.745 211.859 999.909 210.337C1007.26 209.542 1014.66 209.027 1021.87 212.441C1021.34 211.647 1020.84 210.829 1020.29 210.046C1002.14 184.743 983.976 159.463 965.815 134.16C963.787 131.327 961.64 131.047 959.105 133.544C957.996 134.63 956.982 135.873 956.263 137.216C949.588 149.767 947.489 162.833 951.581 176.547C951.758 177.13 951.982 177.701 952.23 178.26C952.3 178.406 952.501 178.518 952.925 178.943Z" fill="#0E3572"/>
<path d="M444.055 0.963007C439.256 6.34822 434.786 12.0469 429.573 17.0515C420.304 25.941 410.705 34.5282 401.011 43.0035C381.812 59.7861 364.016 77.7555 347.942 97.2922C332.658 115.877 321.019 136.153 314.91 159.116C314.544 160.493 314.355 161.915 314.131 163.314C314.072 163.695 314.167 164.098 314.226 164.982C316.006 164.389 317.658 164.053 319.084 163.325C326.538 159.541 334.014 155.779 341.35 151.783C351.197 146.42 360.82 140.687 370.738 135.459C373.073 134.227 376.304 133.78 378.993 134.071C382.897 134.485 383.675 136.735 382.531 140.24C380.102 147.707 377.071 155.119 375.821 162.766C373.545 176.716 377.932 189.177 387.956 199.723C388.239 200.025 388.581 200.283 388.899 200.552C395.374 205.825 398.593 205.758 404.608 200.137C410.233 194.887 414.832 188.93 418.417 182.258C419.773 179.739 420.045 177.354 419.738 174.454C418.229 159.911 410.268 148.872 399.737 138.93C389.288 129.066 376.953 128.294 363.662 131.428C362.719 131.652 361.846 132.873 361.339 133.824C360.49 135.414 356.681 135.672 354.806 134.115C352.765 132.425 352.435 129.626 354.181 126.861C356.704 122.852 360.525 120.277 365.066 118.699C371.186 116.583 377.531 115.687 384.029 116.28C386.116 116.471 387.024 115.866 387.909 114.142C391.081 107.861 393.711 101.446 394.23 94.4261C394.383 92.2765 395.055 89.6567 391.458 89.2984C388.18 88.9625 385.09 90.9106 384.607 93.508C383.97 96.9004 378.639 100.035 374.535 99.4195C370.125 98.7589 367.023 95.2322 367.931 91.1457C369.795 82.6704 376.104 77.7331 384.1 74.699C391.612 71.8552 398.735 73.154 404.726 78.3264C409.643 82.5809 410.823 88.2348 410.044 94.2693C408.912 102.957 405.421 110.727 399.56 117.501C399.147 117.971 398.735 118.441 398.345 118.923C398.228 119.068 398.192 119.292 398.039 119.706C409.431 125.707 417.132 135.101 423.441 145.647C430.198 156.944 433.843 169.047 432.923 182.134C431.519 202.007 416.436 220.256 396.459 226.425C387.343 229.236 379.76 226.806 373.686 218.98C368.226 211.927 365.679 203.754 363.992 195.301C361.504 182.851 361.893 170.412 364.346 157.996C364.523 157.101 364.688 156.194 364.818 155.287C364.841 155.108 364.712 154.906 364.547 154.414C363.391 155.018 362.294 155.578 361.209 156.171C351.539 161.411 342.01 166.919 332.139 171.801C327.163 174.264 321.702 176.122 316.231 177.343C307.975 179.179 301.784 174.768 301.454 166.74C301.253 161.948 302.008 156.966 303.27 152.309C310.075 127.096 322.375 104.536 340.135 84.6297C353.32 69.8512 367.389 55.9795 382.767 43.2162C399.206 29.5572 415.033 15.2489 431.177 1.2653C431.885 0.649523 432.982 0.179296 433.925 0.134513C437.027 -0.0110333 440.128 0.0785337 443.242 0.0785337C443.489 0.380822 443.772 0.671915 444.055 0.963007Z" fill="#0E3572"/>
<path d="M159.288 177.813C167.59 177.891 175.397 176.156 182.98 172.976C196.177 167.445 207.84 159.944 217.852 150.013C229.067 138.896 239.681 127.375 248.349 114.287C251.014 110.268 254.21 106.495 257.642 103.035C262.206 98.4116 267.949 95.2319 274.612 94.4258C277.478 94.0787 280.91 94.6273 283.469 95.8925C287.891 98.0869 288.068 103.304 284.212 106.349C283.492 106.92 282.171 106.853 281.11 106.976C279.506 107.156 277.678 106.797 276.334 107.413C269.966 110.335 265.567 115.306 261.569 120.68C256.321 127.734 251.451 135.134 245.507 141.628C228.82 159.854 209.444 174.946 185.787 184.474C162.272 193.946 138.91 192.177 116.42 181.742C85.1215 167.221 65.6512 143.453 58.2333 111.052C55.2497 98.0421 56.9715 85.5251 63.894 73.859C66.7243 69.0896 69.7198 64.3313 73.2459 60.0209C89.025 40.6633 117.859 33.733 141.598 43.3391C162.59 51.8368 173.416 75.5496 165.043 95.691C162.673 101.39 159.453 106.976 155.585 111.869C146.905 122.841 130.053 127.834 116.668 124.072C107.623 121.52 102.174 115.642 100.122 107.032C97.9995 98.154 99.5208 89.9699 106.656 83.3979C112.823 77.7216 122.069 77.0051 128.484 81.4162C131.963 83.8009 133.555 87.3836 132.777 90.608C132.329 92.5001 131.303 93.1943 129.357 92.78C127.789 92.4442 126.232 92.0859 124.652 91.806C120.772 91.1007 117.67 92.7688 116.255 96.2843C113.566 103.002 118.095 109.283 125.631 109.272C142.907 109.272 155.915 92.8472 151.434 77.0051C146.669 60.1329 133.591 54.1879 116.75 56.0688C104.049 57.4907 94.3083 63.4693 87.6334 73.9598C83.0695 81.1363 78.3877 88.2905 77.8098 96.8889C77.5032 101.412 77.5857 106.092 78.482 110.525C81.9963 127.946 89.7915 143.072 104.226 155.074C117.871 166.426 132.836 174.655 150.974 177.13C153.722 177.499 156.517 177.589 159.288 177.813Z" fill="#0E3572"/>
<path d="M547.315 282.909C553.636 282.035 559.957 281.162 566.49 280.266C566.49 278.665 566.478 277.064 566.49 275.463C566.525 271.97 568.306 269.63 571.278 269.138C574.474 268.6 577.469 270.134 578.413 273.47C579.321 276.684 579.793 280.054 580.005 283.379C580.264 287.51 580.064 291.675 580.064 296.601C583.814 295.202 586.774 294.351 589.475 293.041C594.522 290.589 599.393 287.812 604.393 285.271C606.362 284.274 608.414 283.267 610.549 282.741C613.308 282.069 615.726 283.032 616.941 285.607C618.073 288.025 617.342 290.197 615.266 291.921C614.547 292.515 613.733 293.052 612.872 293.444C603.909 297.575 594.947 301.684 585.96 305.748C584.616 306.353 583.154 306.767 581.715 307.148C572.941 309.476 567.174 305.569 566.561 296.915C566.514 296.22 566.466 295.515 566.408 294.474C562.315 295.56 558.506 296.859 554.567 297.542C548.812 298.538 542.939 299.826 537.161 299.68C525.792 299.389 520.544 291.373 525.321 281.576C527.608 276.885 531.441 272.843 534.779 268.656C535.84 267.324 537.562 266.484 538.977 265.409C538.776 265.085 538.576 264.749 538.375 264.424C537.385 264.368 536.406 264.301 535.415 264.245C529.436 263.898 523.434 263.696 517.478 263.137C515.308 262.935 513.068 262.129 511.122 261.133C504.187 257.561 502.926 249.5 508.846 244.551C511.994 241.92 515.792 239.581 519.731 238.259C533.458 233.658 547.326 229.437 561.219 225.328C570.618 222.54 580.135 220.089 589.663 217.715C592.234 217.077 592.659 216.002 591.987 213.875C591.279 211.636 590.689 209.363 590.1 207.09C589.251 203.776 590.489 201 593.237 199.902C596.126 198.749 599.723 199.69 601.091 202.847C603.225 207.784 605.466 212.912 606.174 218.14C607.494 227.903 607.836 237.789 608.367 247.63C608.497 249.925 607.978 252.288 607.424 254.549C606.881 256.777 605.36 258.434 602.801 258.625C600.254 258.815 598.378 257.438 597.588 255.277C596.586 252.512 595.69 249.634 595.359 246.746C594.64 240.297 594.298 233.815 593.779 227.086C576.868 233.367 560.193 239.558 542.68 246.052C544.142 246.41 544.755 246.578 545.369 246.712C547.869 247.283 550.452 247.619 552.846 248.459C561.454 251.471 564.662 259.106 560.193 266.697C558.129 270.201 555.157 273.235 552.456 276.381C550.723 278.408 548.742 280.233 546.878 282.158C547.032 282.405 547.173 282.662 547.315 282.909Z" fill="#0E3572"/>
<path d="M722.134 195.088C722.913 197.831 723.797 200.249 724.245 202.735C724.682 205.22 725.035 207.795 724.799 210.281C724.151 217.312 719.516 220.346 712.381 218.622C709.893 218.017 707.475 217.177 705.046 216.405C698.348 214.255 694.079 215.207 689.963 220.671C685.175 227.03 680.87 233.725 676.342 240.263C675.457 241.54 674.644 242.883 673.57 243.992C671.353 246.276 668.004 246.835 665.351 245.559C662.615 244.238 661.412 241.596 662.237 238.27C664.278 230.053 666.754 221.925 668.405 213.651C672.639 192.39 674.561 170.95 672.792 149.297C672.096 140.788 677.91 135.492 686.732 137.317C692.746 138.56 698.595 140.788 704.327 143.005C709.976 145.188 715.518 147.685 720.861 150.461C733.055 156.776 745.744 161.825 759.094 165.464C762.466 166.382 765.721 167.781 768.929 169.17C771.099 170.099 772.502 171.756 772.42 174.208C772.408 174.51 772.396 174.824 772.467 175.115C773.929 180.657 772.396 182.896 766.842 184.586C752.666 188.897 738.586 193.476 723.597 194.618C723.184 194.64 722.795 194.864 722.134 195.088ZM711.072 206.026C710.695 204.649 710.506 203.463 710.046 202.388C708.596 199.007 706.957 195.693 705.53 192.3C703.466 187.396 706.155 183.052 711.532 182.515C712.594 182.414 713.667 182.549 714.74 182.504C723.49 182.123 732.241 181.776 740.98 181.272C743.197 181.138 745.402 180.511 747.572 179.985C749.624 179.492 751.64 178.843 753.669 178.261C739.729 174.868 727.099 169.102 714.268 163.74C707.24 160.806 699.857 158.612 692.628 156.138C691.779 155.847 690.824 155.802 690.505 155.757C688.1 173.861 685.729 191.684 683.312 209.956C691.213 200.372 701.025 203.81 711.072 206.026Z" fill="#0E3572"/>
<path d="M599.782 117.198C602.023 133.836 604.158 149.633 606.351 165.878C610.396 163.908 614.017 162.217 617.531 160.347C618.097 160.045 618.262 158.959 618.51 158.198C619.571 154.962 621.918 153.137 624.949 153.238C628.062 153.339 630.562 155.388 631.128 158.881C632.19 165.363 633.003 171.868 633.888 178.373C636.706 199.051 638.994 219.786 639.289 240.667C639.313 242.783 639.277 244.988 638.64 246.97C638.251 248.201 636.754 249.836 635.61 249.948C634.242 250.093 632.131 249.153 631.388 248.056C630.102 246.152 629.241 243.813 628.888 241.562C626.411 225.675 624.1 209.766 621.765 193.857C620.668 186.423 619.618 178.977 618.463 170.916C615.609 172.954 613.026 174.678 610.573 176.559C601.009 183.881 594.652 181.888 592.341 170.39C589.475 156.115 587.423 141.684 584.357 127.454C582.553 119.035 579.77 110.772 576.88 102.61C574.191 95.0307 578.909 87.9213 587.435 88.19C590.855 88.302 594.617 89.1081 597.542 90.7315C603.886 94.2582 610.337 97.9192 615.738 102.577C625.314 110.828 634.136 119.863 643.263 128.573C643.711 128.999 644.101 129.503 644.443 130.018C646.271 132.828 645.162 135.089 641.742 134.787C637.414 134.407 632.815 134.115 628.935 132.492C621.623 129.424 614.712 125.483 607.684 121.822C605.172 120.535 602.801 118.99 599.782 117.198Z" fill="#0E3572"/>
<path d="M1131.27 47.6835C1118.82 32.0541 1106.46 16.5478 1094.1 1.03037C1094.31 0.728084 1094.54 0.436991 1094.75 0.134703C1100.88 0.134703 1107.02 0.0451358 1113.16 0.235465C1114.03 0.257857 1114.97 1.5006 1115.72 2.3179C1127.23 15.0476 1138.65 27.8333 1150.21 40.507C1153.08 43.653 1156.4 46.4184 1159.43 49.4301C1160.75 50.7512 1161.98 52.1955 1163.07 53.6957C1165.8 57.4799 1165.82 61.4209 1163.28 64.455C1160.61 67.6346 1156.08 68.4295 1151.59 66.9516C1147.47 65.5969 1143.28 64.2086 1139 63.6153C1122.95 61.3873 1108.25 66.056 1094.01 72.3368C1083.11 77.1399 1073.5 83.8126 1065.27 92.0975C1053.26 104.189 1049.12 118.788 1050.93 135.123C1051.15 137.139 1052.41 139.915 1049.67 140.766C1047.08 141.583 1045.56 139.131 1044.45 137.139C1043.66 135.717 1042.98 134.172 1042.65 132.604C1038.41 112.709 1041.37 94.5718 1057.1 79.547C1077.02 60.5476 1100.87 49.654 1129.21 47.997C1129.91 47.9299 1130.61 47.7731 1131.27 47.6835Z" fill="#0E3572"/>
<path d="M1469.47 177.846C1468.89 183.399 1468.43 188.964 1467.7 194.506C1467.23 198.088 1465.6 198.838 1461.86 197.887C1461 197.674 1459.75 197.853 1459.02 198.335C1440.58 210.348 1422.18 222.428 1403.78 234.508C1402.56 235.315 1401.41 236.266 1400.15 237.016C1394.48 240.431 1388.74 238.069 1387.65 231.799C1387.06 228.395 1387.01 224.902 1386.32 221.521C1386.04 220.144 1384.94 218.666 1383.77 217.759C1381.06 215.643 1380.4 212.665 1382.78 210.057C1384.37 208.299 1386.3 206.776 1388.19 205.31C1403.97 193.14 1419.68 180.858 1435.66 168.934C1440.41 165.385 1445.89 162.631 1451.25 159.91C1453.62 158.701 1456.51 158.097 1459.22 157.873C1464.34 157.458 1467.49 160.213 1468.12 165.049C1468.36 166.964 1468.66 168.878 1468.75 170.804C1468.86 173.133 1468.78 175.473 1468.78 177.813C1469.02 177.824 1469.25 177.835 1469.47 177.846ZM1401.48 220.726C1407.19 217.244 1412.64 214.054 1417.92 210.65C1430.08 202.824 1442.31 195.155 1455.93 189.714C1456.52 189.479 1457.37 188.773 1457.32 188.359C1457.01 184.765 1456.52 181.194 1456.02 177.107C1454.45 178.036 1453.36 178.63 1452.31 179.29C1437.64 188.65 1422.98 197.999 1408.32 207.381C1405.84 208.971 1403.35 210.56 1400.97 212.296C1400.34 212.755 1399.68 213.785 1399.79 214.434C1400.12 216.405 1400.81 218.319 1401.48 220.726Z" fill="#0E3572"/>
<path d="M333.39 0.0784059C329.593 11.4646 325.559 22.291 322.387 33.3525C318.731 46.0934 315.889 59.0358 312.563 71.8551C311.879 74.4973 310.924 77.1395 309.639 79.5691C307.516 83.566 303.553 85.4357 299.662 84.7527C295.77 84.0586 293.4 81.282 292.385 76.8149C292.114 75.6169 291.088 74.0047 290.003 73.6241C284.213 71.5864 278.352 69.6719 272.384 68.1605C269 67.2984 265.58 68.4068 263.363 71.0042C260.073 74.8444 257.112 78.9533 254.211 83.0734C253.504 84.081 253.292 85.6036 253.386 86.8464C253.563 89.0296 252.454 89.97 250.508 90.597C246.18 91.9965 241.156 90.1268 239.435 85.7268C238.444 83.1853 238.079 80.14 238.444 77.4418C240.248 64.1747 251.865 52.1728 264.849 49.8216C270.769 48.7468 276.595 49.497 282.314 51.042C287.22 52.3743 292.067 53.9305 297.291 55.4979C297.846 53.6506 298.388 51.8257 298.942 50.0008C303.683 34.3825 308.448 18.7755 313.118 3.13488C313.813 0.817333 314.898 -0.111924 317.587 0.0112307C322.835 0.25754 328.083 0.0784059 333.39 0.0784059Z" fill="#0E3572"/>
<path d="M731.794 252.903C728.15 251 726.298 248.19 726.629 244.674C726.923 241.506 727.796 238.259 729.093 235.315C731.747 229.291 736.181 224.443 741.523 220.39C782.115 189.546 830.844 207.381 850.019 241.674C854.442 249.578 855.951 257.874 851.422 266.215C850.09 268.656 848.05 270.973 845.774 272.675C842.755 274.937 839.641 273.548 838.804 269.955C838.438 268.376 838.226 266.741 838.167 265.118C837.931 259.139 835.254 254.202 831.315 249.69C819.381 236.031 804.451 227.153 785.983 223.917C776.596 222.271 767.397 223.201 758.599 226.783C750.462 230.097 743.068 234.598 736.782 240.532C733.657 243.476 730.638 246.667 732.23 251.493C732.301 251.784 732.006 252.198 731.794 252.903Z" fill="#0E3572"/>
<path d="M1388.77 0.0786312C1397.03 0.0786312 1405.27 0.000260111 1413.53 0.13461C1415.6 0.168198 1417.82 0.582445 1419.68 1.39974C1428.03 5.0384 1435.68 9.79664 1441.85 16.2679C1444.81 19.3691 1447.14 23.1533 1449.02 26.9599C1450.08 29.0983 1450.17 31.9533 1449.82 34.3716C1449.25 38.514 1446.24 40.1374 1442.15 38.6596C1439.38 37.6632 1436.79 36.1405 1434.2 34.7298C1426.67 30.6545 1419.47 25.9075 1411.62 22.5151C1393.05 14.4877 1374.93 15.6633 1357.96 26.8479C1355.08 28.74 1352.32 30.9904 1350.09 33.5319C1348.57 35.2672 1347.71 37.7527 1347.23 40.0255C1346.64 42.7573 1345.89 43.485 1342.98 42.6677C1336.68 40.8988 1332.13 34.8194 1333.47 28.5273C1334.34 24.4856 1336.23 20.3655 1338.71 16.9508C1343.77 9.98697 1350.76 4.87046 1358.78 1.14224C1360.26 0.459291 1362.05 0.145806 1363.7 0.123415C1372.05 0.0338477 1380.41 0.0786312 1388.77 0.0786312Z" fill="#0E3572"/>
<path d="M16.097 94.5266C16.1914 81.8977 18.4439 69.739 23.9276 58.252C33.2323 38.816 48.5633 25.784 70.3568 20.0294C73.3523 19.2456 76.7015 19.4696 79.8738 19.6039C81.0885 19.6599 82.4919 20.5668 83.3763 21.4736C84.8505 22.9515 84.2844 24.1047 82.2796 24.9108C79.862 25.8848 77.2558 26.7469 75.2745 28.2919C69.9087 32.4904 64.649 36.8456 59.6723 41.4471C45.0136 55.0612 39.1878 72.3476 37.5486 91.1903C37.0769 96.5419 37.1712 101.961 37.3599 107.335C37.5722 113.347 39.5888 118.9 43.0088 123.983C43.9286 125.349 44.8721 126.726 45.615 128.181C46.8533 130.611 47.101 133.13 45.2494 135.38C43.4215 137.608 40.8035 138.123 38.0085 137.698C33.3267 136.981 29.7534 134.451 26.7226 131.16C21.6869 125.685 19.1397 119.135 18.0547 112.093C17.1584 106.271 16.7339 100.382 16.097 94.5266Z" fill="#0E3572"/>
<path d="M1120.27 135.862C1125.01 134.608 1129.54 132.974 1134.23 132.268C1140.87 131.272 1147.03 132.951 1152.12 137.284C1156.54 141.046 1157.56 146.397 1155.06 151.469C1150.47 160.795 1135.98 168.464 1125.24 167.244C1113.3 165.889 1104.39 157.157 1102.71 145.099C1101.15 133.948 1104.04 123.491 1108.49 113.336C1113.63 101.625 1120.7 91.1234 1131.44 83.3311C1134.44 81.1479 1138.3 79.5245 1142.01 78.8304C1146.48 77.9907 1150.27 80.8568 1151.39 84.585C1152.38 87.9102 1150.39 92.1982 1146.83 94.2471C1146.21 94.5941 1145.28 95.0308 1144.75 94.8292C1141.93 93.7208 1140.62 95.6018 1139.15 97.1692C1129.18 107.76 1123.41 120.289 1120.24 134.026C1120.15 134.418 1120.13 134.832 1120.12 135.235C1120.1 135.414 1120.2 135.605 1120.27 135.862ZM1141.13 148.782C1134.18 147.237 1128.21 148.782 1122.31 151.547C1126.79 157.448 1136.26 156.171 1141.13 148.782Z" fill="#0E3572"/>
<path d="M610.243 0.179871C616.764 0.179871 622.838 0.179871 629.371 0.179871C629.371 1.445 629.395 2.62057 629.371 3.79614C629.088 17.3767 631.73 30.4983 636.541 43.228C643.204 60.8727 656.471 73.3001 672.357 83.5555C678.902 87.7875 685.871 91.4374 692.287 95.8262C694.917 97.6175 697.063 100.428 698.596 103.193C700.106 105.914 698.879 106.63 695.66 106.91C688.077 107.593 681.614 104.895 675.258 101.603C669.338 98.5356 663.323 95.6246 657.533 92.3666C633.003 78.5285 618.203 58.208 612.825 31.6067C610.962 22.3813 609.724 13.1447 610.066 3.75135C610.101 2.65416 610.172 1.55696 610.243 0.179871Z" fill="#0E3572"/>
<path d="M731.593 0.0899025C734.494 0.0899025 737.984 -0.0220562 741.463 0.168274C742.277 0.213057 743.374 1.10873 743.751 1.87005C746.251 6.80742 748.61 11.8008 750.957 16.7941C751.511 17.9809 751.877 19.2572 752.419 20.7463C753.245 20.3208 753.905 20.0857 754.448 19.6939C763.092 13.5921 772.904 9.90868 783.187 7.22167C788.93 5.72142 793.659 7.22167 796.891 11.9575C800.723 17.589 804.32 23.3549 807.894 29.1432C809.344 31.4831 810.806 32.2332 813.826 31.3712C819.545 29.7366 825.477 28.7401 831.315 27.4638C832.341 27.2399 833.355 26.9824 833.791 26.8816C832.081 17.9921 830.418 9.34888 828.685 0.325016C834.546 0.325016 839.522 0.325016 845.171 0.325016C847.424 9.3153 849.841 18.5295 851.952 27.7997C852.33 29.4567 851.74 31.4719 851.091 33.1401C849.747 36.5884 846.587 37.5513 842.966 36.2973C841.374 35.7375 839.393 35.4129 837.801 35.7823C831.786 37.2042 825.831 38.8724 819.934 40.6637C818.165 41.2011 816.491 42.2871 815.017 43.4067C811.42 46.1161 807.658 46.4296 804.344 43.25C800.971 40.0368 798.082 36.3421 795.228 32.6699C792.692 29.4007 790.452 25.93 788.176 22.4816C787.008 20.7127 785.581 20.1753 783.612 21.1045C776.335 24.5081 768.741 27.419 761.877 31.4383C751.535 37.5065 745.709 35.9727 741.475 25.1127C738.256 16.7941 734.918 8.498 731.593 0.0899025Z" fill="#0E3572"/>
<path d="M263.209 16.1779C267.23 17.1072 271.488 17.5438 275.214 19.1112C277.974 20.2756 280.627 22.526 282.314 24.9331C285.769 29.8705 283.658 35.8155 277.868 38.0658C275.25 39.0847 272.29 39.678 269.459 39.79C242.465 40.82 228.655 61.0174 222.098 77.9455C221.308 79.9831 222.287 82.6366 222.452 84.9989C222.511 85.7602 222.912 86.947 222.582 87.1709C221.957 87.6075 220.86 87.7083 220.035 87.5627C214.681 86.5999 211.461 83.2411 209.503 78.6508C207.027 72.8178 207.475 66.884 209.22 60.995C212.923 48.4444 219.905 37.7635 229.976 28.93C239.304 20.7346 250.508 17.0512 263.209 16.1779Z" fill="#0E3572"/>
<path d="M517.396 158.97C517.207 152.756 519.483 147.17 522.42 141.829C524.342 138.325 527.774 136.377 531.606 135.078C550.499 128.663 573.554 143.9 573.708 162.967C573.719 164.971 573.436 167.042 572.882 168.979C569.368 181.116 552.964 191.125 539.838 189.188C532.762 188.135 527.302 184.62 523.493 178.921C519.436 172.831 517.526 166.124 517.396 158.97ZM533.529 157.884C533.257 157.974 532.986 158.063 532.715 158.142C534.13 162.217 535.298 166.404 537.067 170.345C538.281 173.054 540.97 174.364 544.213 173.816C548.671 173.054 552.716 171.252 555.24 167.669C556.454 165.945 557.268 163.124 556.655 161.265C555.075 156.473 550.688 154.122 545.876 152.577C544.52 152.141 543.01 152.017 541.748 151.424C536.831 149.118 534.26 150.36 533.717 155.455C533.647 156.261 533.588 157.078 533.529 157.884Z" fill="#0E3572"/>
<path d="M537.149 72.1238C537.09 83.3085 534.166 92.7914 526.83 100.729C512.62 116.101 490.024 113.302 480.389 95.0306C472.842 80.7111 475.778 61.3758 487.277 49.7769C501.794 35.1439 524.024 38.8161 532.491 57.2109C533.258 58.8679 534.166 60.4913 535.203 62.014C537.515 65.4063 537.704 69.0785 537.149 72.1238ZM487.89 78.4831C488.444 80.4535 489.01 84.4617 490.673 87.9996C495.897 99.1171 507.855 100.864 516.7 92.0749C525.51 83.3309 525.84 72.3701 522.75 62.1147C519.625 51.7473 507.16 47.2578 496.982 55.9794C490.649 61.4206 488.255 68.5747 487.89 78.4831Z" fill="#0E3572"/>
<path d="M745.781 41.6038C754.672 41.8501 762.833 43.5967 770.086 48.2206C779.45 54.1992 780.994 63.1559 773.907 71.4744C768.152 78.2255 760.439 81.7074 751.359 82.3008C747.325 82.5695 743.257 82.5471 739.2 82.4911C729.683 82.3456 721.923 76.3782 720.543 68.2612C720.425 67.5558 720.272 66.8393 720.343 66.1452C721.44 55.9905 729.883 40.07 745.781 41.6038ZM748.163 68.3843C748.34 68.1828 748.516 67.9813 748.693 67.7798C749.637 67.6118 750.592 67.5223 751.512 67.2648C754.224 66.5034 757.22 65.5406 757.562 62.5737C757.916 59.506 754.979 58.2073 752.526 56.9534C751.783 56.5727 750.946 56.36 750.132 56.1473C747.667 55.4867 745.439 55.845 743.787 57.8154C742.113 59.8195 740.934 62.305 742.608 64.5106C743.894 66.1899 746.276 67.1192 748.163 68.3843Z" fill="#0E3572"/>
<path d="M1025.33 0.358459C1026.04 5.3854 1027.08 10.4795 1027.39 15.6072C1027.66 20.108 1024.16 22.9293 1018.05 23.9705C1014.99 24.4855 1011.95 25.0677 1008.87 25.3812C999.012 26.3777 990.002 29.6692 981.464 34.3267C980.167 35.0321 978.752 35.5359 977.372 36.0733C972.655 37.9206 969.73 36.0845 967.867 31.2591C967.254 29.6804 967.053 27.8443 967.147 26.1537C967.631 17.6449 968.268 9.15841 968.869 0.369655C987.384 0.358459 1006.14 0.358459 1025.33 0.358459Z" fill="#0E3572"/>
<path d="M1127.93 202.343C1125.79 204.985 1124.03 207.135 1122.27 209.295C1117.61 214.972 1112.2 219.853 1105.55 223.369C1094.94 228.978 1086.6 225.809 1083.25 214.759C1080.82 206.754 1080.49 198.514 1081.21 190.251C1081.56 186.265 1083.97 184.149 1087.46 184.25C1090.81 184.351 1092.84 186.389 1093.2 190.419C1093.76 196.599 1093.91 202.813 1094.64 208.971C1095.54 216.449 1097.12 217.054 1103.76 213.068C1108.82 210.034 1112.98 206.161 1116.05 201.234C1117.57 198.794 1119.11 196.308 1121 194.125C1126.34 187.956 1133.44 188.281 1137.99 194.976C1140.02 197.943 1141.39 201.313 1143.22 204.414C1144.47 206.519 1145.88 208.579 1147.45 210.471C1148.83 212.139 1150.75 212.296 1152.6 211.064C1155.36 209.239 1157.78 207.191 1158.48 203.776C1159.06 200.954 1161.14 199.51 1163.69 199.936C1166.46 200.395 1167.84 202.22 1167.65 204.705C1167.45 207.56 1167.48 210.616 1163.97 212.217C1162.94 212.688 1162.38 214.087 1161.56 215.016C1154.37 223.156 1145.15 223.637 1137.51 215.923C1134.61 213.001 1132.49 209.385 1130.07 206.037C1129.36 205.052 1128.85 203.944 1127.93 202.343Z" fill="#0E3572"/>
<path d="M549.732 0.213501C557.351 0.213501 564.379 0.213501 571.738 0.213501C571.514 2.04962 571.325 3.71781 571.101 5.38599C569.698 15.6638 570.795 25.852 571.903 36.0851C572.54 41.9069 572.387 47.8295 572.281 53.6962C572.245 55.6554 571.467 57.6931 570.653 59.5516C568.754 63.9292 564.096 65.4966 560.228 62.5297C557.516 60.4585 555.169 57.4916 553.742 54.4575C547.539 41.3583 545.982 27.4978 547.492 13.3015C547.963 8.97987 548.954 4.70304 549.732 0.213501Z" fill="#0E3572"/>
<path d="M1237.28 0.236023C1243.71 0.236023 1249.87 0.236023 1256.27 0.236023C1251.9 18.4629 1246.16 35.8053 1231.08 48.8037C1225.86 53.2932 1220.13 57.0662 1213.39 59.0591C1210.61 59.8764 1207.48 60.1003 1204.56 59.8764C1200.8 59.5853 1198.16 56.8535 1197.58 53.6515C1197.01 50.4607 1198.7 47.4154 1202.18 45.6688C1204.16 44.6724 1206.32 43.9895 1208.29 42.9594C1224.2 34.7081 1233.63 22.0904 1236.48 5.06144C1236.74 3.56119 1236.97 2.04975 1237.28 0.236023Z" fill="#0E3572"/>
<path d="M146.411 159.205C135.761 158.589 124.192 155.925 113.732 149.801C111.22 148.334 108.956 146.352 106.951 144.281C104.887 142.165 104.451 139.489 106.432 137.026C108.437 134.53 111.173 134.53 113.98 135.627C115.065 136.052 116.091 136.623 117.081 137.217C124.511 141.65 132.624 144.427 141.127 146.375C149.583 148.323 157.461 147.125 165.02 143.173C172.497 139.254 178.299 133.611 183.511 127.342C186.035 124.308 188.37 121.128 190.929 118.139C193.347 115.317 196 114.623 198.5 115.866C201.107 117.165 202.239 119.975 200.93 123.3C199.857 126.032 198.677 128.999 196.661 131.07C190.41 137.452 184.16 143.956 177.108 149.487C168.829 155.981 158.829 159.116 146.411 159.205Z" fill="#0E3572"/>
<path d="M1213.42 145.961C1213.29 138.448 1214.66 131.16 1218.06 124.375C1219.6 121.296 1221.56 118.24 1224.02 115.81C1225.9 113.952 1228.73 112.496 1231.38 111.925C1236.37 110.85 1239.74 114.747 1238.88 119.382C1237.3 127.857 1235.49 136.355 1234.9 144.908C1234.48 150.976 1235.82 157.179 1236.61 163.292C1237.01 166.382 1238.53 168.99 1241.25 171.017C1243.63 172.797 1243.3 174.107 1240.49 175.103C1233.68 177.511 1227.62 176.156 1222.42 171.498C1215.99 165.744 1214.34 158.097 1213.46 150.215C1213.29 148.816 1213.42 147.382 1213.42 145.961Z" fill="#0E3572"/>
<path d="M188.512 0.291199C182.839 10.4123 180.764 21.1043 180.091 32.1546C179.832 36.3755 176.766 39.5439 172.756 40.4508C168.676 41.3688 164.065 39.9358 162.331 36.1851C156.883 24.4071 151.847 12.4499 146.54 0.291199C160.562 0.291199 174.301 0.291199 188.512 0.291199Z" fill="#0E3572"/>
<path d="M1138.28 0.101066C1144.42 0.101066 1149.75 0.0114991 1155.07 0.190633C1155.93 0.224221 1157.05 1.29902 1157.53 2.16111C1159.67 6.02368 1161.41 10.0878 1163.65 13.8944C1169.17 23.2989 1174.89 32.6027 1180.51 41.9736C1181.24 43.2052 1182.26 44.5263 1182.3 45.825C1182.35 47.6947 1182.18 49.9898 1181.08 51.3781C1179.59 53.2814 1176.97 52.7888 1174.88 51.7364C1173.48 51.0311 1172.2 50.057 1171.01 49.0494C1163.39 42.6566 1157.37 35.0098 1152.23 26.7472C1148.15 20.1864 1144.3 13.4913 1140.55 6.75141C1139.49 4.8817 1139.12 2.67612 1138.28 0.101066Z" fill="#0E3572"/>
<path d="M886.659 244.193C885.987 253.396 883.11 261.166 876.447 267.212C874.572 268.914 871.753 270.257 869.206 270.604C864.724 271.209 862.095 267.201 864.076 263.305C865.609 260.282 867.496 257.427 868.97 254.381C872.461 247.205 872.201 240.163 867.614 233.445C864.819 229.347 861.776 225.407 859.052 221.275C857.814 219.383 855.479 216.83 857.778 215.05C859.465 213.752 862.684 214.076 865.232 214.054C866.399 214.043 867.72 214.759 868.734 215.465C879.195 222.731 885.586 232.281 886.659 244.193Z" fill="#0E3572"/>
<path d="M550.004 93.8662C556.703 93.8998 562.682 97.4377 564.639 102.521C566.632 107.704 564.427 114.142 559.203 118.34C554.202 122.371 547.292 123.076 541.82 120.064C540.994 119.605 540.169 119.079 539.52 118.419C534.496 113.336 536.065 107.682 538.258 102.14C540.523 96.3964 544.379 93.8438 550.004 93.8662ZM547.292 110.268C547.646 110.447 547.988 110.626 548.341 110.794C549.049 109.865 550.264 108.958 550.275 108.018C550.287 107.368 548.636 106.708 547.304 105.756C547.292 107.738 547.292 109.003 547.292 110.268Z" fill="#0E3572"/>
<path d="M445.859 50.6614C451.991 50.639 454.35 54.0873 452.392 58.0954C451.897 59.103 451.166 59.9987 450.6 60.984C447.227 66.8506 443.807 72.6948 440.552 78.6174C439.22 81.0357 437.604 82.9614 434.538 82.9166C431.648 82.8719 429.832 81.1589 428.842 78.6958C426.743 73.5009 424.608 68.3172 422.674 63.0664C421.589 60.1219 422.78 57.0654 426.011 56.0466C432.993 53.841 440.163 52.184 445.859 50.6614Z" fill="#0E3572"/>
<path d="M1280.21 112.463C1281.76 105.017 1283.2 97.4489 1284.99 89.9701C1285.47 87.9772 1286.81 86.0515 1288.17 84.4057C1289.92 82.2897 1292.49 81.7971 1295.15 82.7487C1297.75 83.678 1298.93 85.7268 1298.8 88.2907C1298.68 90.5187 1298.37 92.7466 1297.91 94.9298C1295.44 106.876 1292.88 118.811 1290.42 130.757C1289.99 132.794 1288.67 133.242 1287.28 132.078C1285.74 130.779 1284.06 129.122 1283.53 127.331C1282.15 122.595 1281.34 117.702 1280.21 112.463Z" fill="#0E3572"/>
<path d="M470 153.91C469.776 157.336 468.396 159.709 465.318 160.963C462.358 162.183 458.737 161.456 456.615 158.892C455.176 157.168 454.091 155.141 453.1 153.137C450.164 147.17 447.192 141.214 444.574 135.123C443.678 133.041 443.347 130.555 443.501 128.294C443.819 123.625 448.737 121.33 452.888 123.838C454.551 124.834 456.214 126.267 457.11 127.89C461.367 135.604 465.377 143.43 469.398 151.256C469.846 152.152 469.846 153.238 470 153.91Z" fill="#0E3572"/>
<path d="M24.1645 19.044C27.5137 18.585 30.3086 18.1372 33.1272 17.8237C35.415 17.5662 37.8562 17.4542 38.7642 20.0628C39.5897 22.414 38.0567 23.9814 36.0047 24.9442C28.2213 28.6389 19.9425 30.9004 11.3336 31.8409C7.64241 32.2439 5.07153 28.8516 6.41593 25.1122C9.47033 16.6145 13.7276 8.66545 20.4143 2.11587C23.1974 -0.604725 25.8862 1.08585 28.5633 2.37338C30.9101 3.49296 31.2757 5.41865 30.6978 7.54587C30.3086 9.0797 29.719 10.6359 28.8935 12.013C27.5491 14.2858 25.9452 16.4242 24.1645 19.044Z" fill="#0E3572"/>
<path d="M1323.92 34.0131C1323.57 34.6512 1322.97 35.9388 1322.21 37.1255C1318.65 42.6563 1314.97 48.1311 1311.48 53.6954C1309.92 56.1697 1308.05 57.8939 1304.83 57.4908C1301.73 57.1101 1300.39 55.0389 1299.59 52.4079C1298.32 48.2206 1296.9 44.0558 1295.55 39.8909C1294.46 36.5657 1295.64 33.8563 1298.98 32.7479C1304.62 30.867 1310.3 29.0757 1316.01 27.4075C1320.09 26.2208 1324.05 29.2436 1323.92 34.0131Z" fill="#0E3572"/>
<path d="M688.891 0.0784596C686.249 3.57157 683.914 6.44891 681.815 9.47179C677.994 14.9802 674.503 20.7236 670.482 26.0865C668.843 28.2696 666.413 30.3857 663.843 31.3261C662.192 31.9307 658.972 30.9007 657.687 29.5572C656.378 28.1913 655.528 25.0676 656.295 23.5002C659.798 16.3461 663.949 9.48299 667.817 2.48557C668.819 0.660645 670.187 -0.0446949 672.428 0.0224803C677.664 0.190418 682.9 0.0784596 688.891 0.0784596Z" fill="#0E3572"/>
<path d="M1075.1 160.672C1070.48 160.616 1068.54 158.466 1069.45 155.343C1070.32 152.331 1071.65 149.42 1072.9 146.52C1073.93 144.113 1075.25 141.796 1076.29 139.389C1077.9 135.705 1083.34 134.765 1085.7 138.191C1088.59 142.423 1090.95 147.013 1093.19 151.603C1094.34 153.943 1093.21 156.339 1090.63 157.056C1085.1 158.589 1079.44 159.687 1075.1 160.672Z" fill="#0E3572"/>
<path d="M1171.77 0.0898221C1178.01 0.0898221 1183.14 -0.0109407 1188.26 0.179389C1189.27 0.212977 1190.72 1.14223 1191.14 2.01551C1194.07 8.08367 1196.98 14.163 1199.45 20.3991C1200.41 22.8398 1201.29 26.568 1198.34 27.8332C1195.13 29.2103 1192.7 26.221 1190.85 23.8251C1188.07 20.22 1185.59 16.4134 1182.72 12.8755C1180.38 9.98697 1177.61 7.42311 1175.11 4.64654C1174.04 3.47097 1173.22 2.10508 1171.77 0.0898221Z" fill="#0E3572"/>
<path d="M695.86 65.2494C692.865 65.2047 690.435 64.1858 688.997 61.5548C687.346 58.5431 687.192 55.4531 689.126 52.5645C691.803 48.5788 695.907 46.6867 700.778 46.6755C705.495 46.6643 708.962 50.7396 707.842 55.2515C706.462 60.7823 702.57 65.1823 695.86 65.2494Z" fill="#0E3572"/>
<path d="M488.173 133.063C488.102 126.625 491.004 124.006 498.256 123.961C502.903 123.927 506.618 127.409 506.641 131.832C506.677 137.004 501.464 142.4 496.334 142.49C491.629 142.568 488.232 138.639 488.173 133.063Z" fill="#0E3572"/>
<path d="M462.205 31.4268C462.311 35.9836 458.915 39.7902 454.728 39.7902C449.834 39.8014 446.037 36.3642 445.942 31.8411C445.848 27.3628 449.244 23.9144 453.773 23.8696C458.337 23.8249 462.111 27.2172 462.205 31.4268Z" fill="#0E3572"/>
<path d="M1040.36 0.0786046C1043.81 0.0786046 1046.47 0.0674088 1049.12 0.0898005C1049.95 0.100996 1050.78 0.179367 1052.17 0.257739C1051.82 4.51217 1051.73 8.64344 1051.05 12.6851C1050.56 15.6744 1047.88 16.8948 1044.93 17.1635C1042.79 17.365 1041.38 16.0999 1041.22 14.163C1040.82 9.5727 1040.64 4.9712 1040.36 0.0786046Z" fill="#0E3572"/>
<path d="M1275.29 170.793C1275.31 175.182 1272.48 178.037 1268.08 178.048C1264.13 178.059 1260.52 174.633 1260.49 170.826C1260.45 167.3 1264.44 163.135 1267.83 163.146C1271.99 163.157 1275.26 166.527 1275.29 170.793Z" fill="#0E3572"/>
<path d="M498.775 184.486C498.846 180.5 500.497 178.843 503.61 178.552C504.636 178.451 505.65 178.182 506.641 177.902C510.639 176.772 514.035 179.671 513.198 183.534C512.148 188.382 504.424 190.89 500.615 187.497C499.553 186.557 499.082 185.012 498.775 184.486Z" fill="#0E3572"/>
<path d="M48.7999 13.2448C45.2738 13.1553 42.868 11.1624 43.0331 8.53136C43.1865 6.19142 44.4719 4.80313 47.1017 4.85911C49.9557 4.91509 52.8332 7.55732 52.7034 10.0428C52.5737 12.5395 50.675 13.0657 48.7999 13.2448Z" fill="#0E3572"/>
<path d="M1292.47 168.598C1291.99 168.039 1290.5 166.908 1290.7 166.471C1291.47 164.814 1292.46 162.609 1293.96 162.06C1295.67 161.444 1297.76 162.765 1297.72 165.105C1297.66 167.837 1295.38 168.139 1292.47 168.598Z" fill="#0E3572"/>
</g>
</g>
<defs>
<clipPath id="clip0_687_42412">
<rect width="1441" height="214" fill="white"/>
</clipPath>
<clipPath id="clip1_687_42412">
<rect width="1518" height="1001" fill="white"/>
</clipPath>
</defs>
</svg>
