<svg width="1438" height="576" viewBox="0 0 1438 576" fill="none" xmlns="http://www.w3.org/2000/svg">
<g style="mix-blend-mode:overlay" opacity="0.4" clip-path="url(#clip0_506_25065)">
<path d="M0 567.071C10.6373 566.287 20.9798 564.238 30.9449 560.577C68.9185 546.627 91.3725 520.361 98.7903 482.587C101.621 468.189 101.798 453.656 97.7525 439.315C97.3162 437.781 96.7147 436.292 96.0307 434.321C94.3325 436.168 93.0825 437.803 91.5612 439.147C78.8836 450.342 63.9537 457.586 47.1486 461.281C44.3064 461.908 41.1459 461.785 38.2212 461.415C34.1291 460.9 31.0393 458.661 29.8246 454.765C28.6217 450.891 29.6713 447.208 32.9733 444.845C36.3344 442.438 40.1553 440.356 44.0942 438.979C50.5096 436.739 57.3142 435.463 63.7532 433.258C70.2747 431.03 76.584 428.242 82.9051 425.521C84.9924 424.626 86.1599 423.327 85.3108 420.472C83.9664 416.016 89.2615 412.198 94.0023 414.348C97.0449 415.736 99.8988 418.121 101.963 420.685C107.989 428.141 110.89 436.952 111.822 446.144C116.232 489.841 103.85 528.243 70.2158 559.2C50.6983 577.147 27.2537 588.264 0 591.478C0 583.338 0 575.199 0 567.071Z" fill="#0E3572"/>
<path d="M7.42888e-05 158.769C16.8877 156.417 33.1857 158.589 48.6464 165.24C57.3968 169.002 65.7581 173.614 74.1901 178.048C91.231 187.005 108.248 196.028 125.171 205.187C130.242 207.93 135.325 207.751 140.679 206.586C142.649 206.161 144.712 205.69 146.682 205.836C150.88 206.138 154.854 207.392 156.753 211.344C158.675 215.364 158.086 219.461 155.114 222.82C147.956 230.915 140.844 239.11 131.575 245.212C125.678 249.097 119.664 252.814 113.744 256.654C102.859 263.696 91.8561 270.593 81.1951 277.926C76.9143 280.882 73.3056 284.756 69.5554 288.372C66.4656 291.35 62.8452 291.193 60.2861 287.611C57.8331 284.174 58.0454 280.479 59.5903 276.818C62.3381 270.268 66.5128 264.547 72.3622 260.259C78.1879 255.994 84.3557 252.064 90.6885 248.526C97.5049 244.719 104.852 241.741 111.716 238.002C119.228 233.915 126.469 229.381 133.792 224.981C135.03 224.231 136.092 223.212 137.424 222.171C112.282 214.513 90.4055 201.414 68.2464 188.852C58.0336 183.064 47.8208 177.298 36.417 173.749C25.2254 170.267 13.8805 169.002 2.20537 170.905C1.486 171.028 0.731243 170.95 -0.0117188 170.961C7.42888e-05 166.897 7.42888e-05 162.833 7.42888e-05 158.769Z" fill="#0E3572"/>
<path d="M0 194.159C13.6799 198.144 27.8434 199.533 41.9243 201.402C44.33 201.727 46.7476 202.432 48.9883 203.351C57.1373 206.676 59.1421 214.356 53.2927 220.715C50.9459 223.268 47.9033 225.362 44.8725 227.209C38.6694 231.004 32.2422 234.475 25.9329 238.114C24.4941 238.942 23.1262 239.916 21.7935 241.551C24.1168 241.752 26.4518 242.144 28.775 242.111C34.5536 242.01 40.3322 241.685 46.099 241.472C50.8044 241.293 55.5806 241.26 58.1397 245.962C60.6752 250.631 58.2104 254.527 55.1089 257.886C50.8162 262.543 46.3584 267.111 41.6176 271.343C26.2867 285.024 11.4628 299.086 0.908064 316.63C0.719375 316.955 0.318412 317.168 0.011793 317.425C0.011793 306.845 0.011793 296.265 0.011793 285.685C11.569 276.068 23.1262 266.462 34.53 256.968C29.6949 256.968 24.6828 257.225 19.7062 256.912C12.2648 256.441 5.00025 255.232 0.011793 249.063C0.011793 244.999 0.011793 240.924 0.011793 236.86C11.109 226.627 25.1781 220.883 38.5632 214.02C32.5842 213.203 26.6994 212.856 20.8855 212.083C13.904 211.165 6.96969 209.9 0.0235861 208.781C0 203.933 0 199.04 0 194.159Z" fill="#0E3572"/>
<path d="M0 470.641C1.5331 471.055 3.07798 471.447 4.61108 471.883C19.8005 476.261 28.775 486.382 29.9661 501.407C30.3789 506.602 29.7892 511.965 28.8458 517.115C28.3505 519.813 26.5815 522.679 24.5177 524.65C20.6968 528.311 15.3074 526.822 13.6445 521.907C13.0077 520.026 12.8662 517.921 12.8662 515.917C12.8662 512.368 13.2554 508.819 13.2908 505.27C13.3733 494.992 10.425 491.42 0.011793 488.946C0 482.844 0 476.742 0 470.641Z" fill="#0E3572"/>
<path d="M1354.08 212.62C1354.67 211.355 1355.09 210.46 1355.5 209.564C1357.4 205.466 1359.25 201.357 1361.21 197.282C1365.61 188.102 1372.19 180.634 1380.8 174.689C1390.07 168.285 1399.16 161.646 1408.43 155.253C1421.9 145.949 1431.53 133.656 1437.93 119.336C1444.88 103.741 1442.41 88.2344 1433.47 73.982C1428.14 65.4844 1418.62 61.521 1409.19 58.3078C1389.54 51.6239 1371.83 56.3709 1357.72 69.7948C1345.56 81.3601 1342.26 96.4186 1347.15 112.496C1347.93 115.026 1349.68 117.288 1351.31 120.288C1352.47 118.721 1353.07 117.825 1353.77 116.997C1358.56 111.264 1363.18 105.398 1368.25 99.9117C1370.3 97.6949 1373.19 96.0043 1376.01 94.6496C1379.53 92.959 1383.36 93.9219 1385.38 96.3514C1387.39 98.7697 1387.24 101.759 1384.54 105.017C1373.89 117.892 1365.28 131.932 1358.23 146.822C1355.96 151.614 1354.54 156.775 1352.77 161.78C1352.53 162.441 1352.36 163.191 1352.44 163.862C1352.83 167.311 1351.18 168.777 1347.35 168.274C1343.51 167.77 1339.78 164.635 1339.42 160.134C1339.05 155.566 1339.39 150.786 1340.43 146.307C1341.78 140.485 1344.12 134.876 1346.09 129.032C1345.69 128.864 1345.15 128.551 1344.55 128.394C1338.53 126.782 1334.23 123.143 1331.15 118.116C1327.08 111.466 1324.92 104.244 1324.9 96.5865C1324.85 81.8863 1329.76 68.6752 1341.01 58.5765C1356.31 44.8504 1374.55 36.6886 1396.1 37.3044C1412.58 37.7746 1427.57 43.0031 1441.05 51.9934C1452.16 59.405 1457.31 70.2538 1460.27 82.3901C1464.92 101.445 1461.61 119.001 1450.33 135.459C1440.35 150.036 1428.86 163.056 1413.45 172.786C1405.97 177.51 1398.97 182.929 1391.6 187.833C1384.4 192.625 1378.71 198.592 1375.28 206.284C1371.81 214.042 1368.58 221.891 1365.42 229.761C1364.45 232.18 1363.03 233.859 1360.36 234.318C1357.34 234.844 1354.68 233.859 1353.06 231.463C1348.1 224.152 1340.6 219.763 1332.7 216.281C1311.1 206.754 1289.51 207.437 1268.29 217.67C1266.17 218.7 1264.33 220.256 1262.2 221.252C1253.88 225.093 1245.38 224.018 1237.17 221.196C1219.68 215.173 1205.05 205.254 1194.75 190.397C1178.41 166.807 1171.14 141.314 1178.63 113.201C1183.67 94.2913 1195.37 80.4421 1214.27 72.4706C1227.88 66.7383 1241.38 67.7012 1254.61 73.8365C1255 74.0156 1255.37 74.2395 1255.76 74.3963C1255.95 74.4747 1256.17 74.4523 1256.82 74.5418C1257.06 73.2319 1257.23 71.8884 1257.54 70.5673C1259.25 63.234 1260.96 55.9007 1262.78 48.5898C1263.12 47.2239 1263.79 45.9028 1264.5 44.6601C1266.6 40.9766 1270.55 39.342 1274.51 40.3833C1278.15 41.3349 1280.68 44.425 1280.26 48.5562C1279.53 55.8335 1278.35 63.0773 1277.34 70.3322C1275.21 85.5474 1273.12 100.774 1270.89 115.978C1270.19 120.691 1269.32 125.416 1268.09 130.029C1267.12 133.701 1263.45 134.563 1260.84 131.674C1259.11 129.749 1257.61 127.207 1257.14 124.755C1256.27 120.187 1255.98 115.485 1255.88 110.816C1255.73 104.513 1255.9 98.1987 1256.15 91.9066C1256.23 89.6562 1255.32 88.727 1253.18 88.0105C1241.24 83.9911 1230.58 85.469 1220.17 92.7463C1204.88 103.427 1198.9 118.116 1199.19 135.167C1199.64 161.993 1214.11 195.703 1252.93 208.982C1255.07 209.721 1256.16 209.687 1257.48 207.582C1260.77 202.343 1265.9 198.917 1271.71 196.588C1300.48 185.101 1329.92 189.591 1351.25 210.124C1352.07 210.874 1352.92 211.602 1354.08 212.62Z" fill="#0E3572"/>
<path d="M457.252 511.416C453.16 512.2 449.646 512.995 446.072 513.521C430.541 515.827 415.764 513.308 401.672 506.926C385.881 499.772 378.156 487.569 377.531 471.212C376.765 450.891 384.725 433.605 398.947 418.849C403.759 413.855 409.219 409.276 414.998 405.29C449.775 381.309 488.504 366.833 531.253 361.895C552.941 359.398 574.652 356.879 596.151 353.252C620.94 349.076 643.865 339.649 665.977 328.364C675.294 323.617 680.553 316.474 681.202 306.565C681.544 301.426 681.119 296.22 680.553 291.081C680.329 288.999 678.643 287.096 677.912 285.013C677.381 283.491 676.638 281.509 677.24 280.289C677.853 279.046 680.07 277.68 681.461 277.792C683.749 277.96 686.249 278.889 688.101 280.199C691.769 282.796 693.372 286.793 694.481 290.891C697.5 302.087 696.698 313.092 692.382 323.852C688.773 332.864 681.638 338.888 673.124 343.612C656.779 352.692 639.584 359.88 621.399 365.03C599.004 371.389 576.02 374.502 552.858 376.651C528.4 378.913 504.094 381.79 480.838 389.997C459.776 397.42 440.223 407.451 422.439 420.416C406.837 431.791 396.848 446.525 395.221 465.647C394.018 479.844 399.006 487.972 412.71 493.715C421.543 497.41 430.741 499.571 440.506 498.798C441.214 498.742 441.909 498.563 441.992 498.552C440.223 492.831 438.077 487.311 436.862 481.613C434.256 469.308 437.357 457.9 444.575 447.611C453.773 434.478 465.554 424.055 481.109 417.841C481.97 417.494 482.855 416.139 482.902 415.21C483.055 412.165 482.878 409.108 482.725 406.063C482.56 402.592 483.728 399.838 487.183 398.315C490.402 396.893 494.837 397.588 497.089 400.543C499.035 403.107 500.745 406.175 501.37 409.242C503.269 418.513 504.719 427.884 506.087 437.243C507.514 447.017 508.646 456.825 509.932 466.61C510.038 467.394 510.109 468.312 510.568 468.916C512.809 471.883 512.609 476.171 510.002 478.276C507.255 480.493 502.785 480.124 500.368 476.832C498.009 473.619 495.815 470.058 494.66 466.341C491.464 456.12 488.834 445.741 485.992 435.418C485.697 434.366 485.485 433.302 485.166 431.948C484.388 432.306 483.845 432.418 483.515 432.731C476.227 439.729 468.491 446.379 461.792 453.869C452.158 464.628 451.768 477.201 456.026 490.189C456.438 491.431 457.087 492.652 457.865 493.727C459.422 495.854 462.229 495.675 463.597 493.469C463.656 493.379 463.679 493.279 463.727 493.189C466.474 488.353 468.974 486.863 472.854 487.714C476.522 488.532 479.093 491.924 478.468 496.884C477.572 503.926 476.274 510.979 474.458 517.854C467.689 543.447 462.972 569.377 459.139 595.486C458.679 598.598 457.865 601.677 457.17 604.756C456.639 607.085 455.542 609.022 452.7 609.29C449.846 609.559 447.629 608.182 446.933 605.808C445.683 601.543 444.386 597.132 444.28 592.754C443.879 575.288 446.332 558.047 449.988 540.973C451.863 532.207 454.257 523.541 456.415 514.831C456.674 513.868 456.898 512.883 457.252 511.416Z" fill="#0E3572"/>
<path d="M847.637 524.291C846.469 527.079 845.585 529.699 844.299 532.117C842.966 534.636 841.599 537.278 839.617 539.316C835.065 543.974 828.838 543.75 824.027 539.327C820.925 536.472 818.873 533.147 817.812 529.195C813.46 512.894 811.915 496.346 813.106 479.575C813.366 475.869 813.673 472.163 813.991 467.976C812.823 468.659 812.081 468.995 811.444 469.476C804.356 474.906 797.233 480.291 790.24 485.822C787.952 487.636 785.935 489.774 783.895 491.857C780.145 495.697 775.782 496.906 771.512 495.182C767.361 493.491 764.944 489.83 765.769 484.635C766.666 478.937 767.951 473.204 769.92 467.774C775.44 452.548 784.78 439.203 793.695 425.656C802.127 412.836 811.208 400.487 823.744 390.926C830.077 386.101 836.893 381.835 843.592 377.469C845.125 376.472 847.07 375.789 848.91 375.532C851.316 375.185 853.392 376.215 854.335 378.476C855.231 380.626 854.547 382.552 852.613 383.884C839.37 393.042 829.746 405.313 821.279 418.255C812.871 431.108 805.63 444.655 797.905 457.911C797.304 458.952 796.867 460.072 795.936 462.042C797.528 461.102 798.271 460.654 799.026 460.228C806.951 455.817 814.781 451.227 822.836 447.051C827.801 444.476 833.827 447.241 835.171 452.638C835.938 455.75 835.985 459.086 835.914 462.311C835.667 475.119 835.242 487.916 834.912 500.724C834.876 501.899 835.077 503.086 835.242 505.113C836.999 502.985 838.179 501.474 839.452 500.052C844.971 493.928 851.705 494.264 856.422 500.948C859.099 504.754 861.517 508.718 864.241 512.491C873.864 525.791 886.86 534.86 903.076 539.641C911.154 542.025 919.35 544.063 927.487 546.235C928.372 546.47 929.292 546.549 931.061 546.851C923.171 533.864 919.598 520.417 919.609 505.773C918.359 506.008 917.487 506.21 916.59 506.344C913.43 506.837 910.269 507.654 907.097 507.744C894.703 508.102 886.436 502.101 883.582 490.67C880.999 480.359 881.317 469.857 881.895 459.389C882.32 451.675 883.263 443.994 883.947 436.292C884.112 434.467 884.23 432.642 884.254 430.806C884.336 423.249 883.216 422.14 875.244 423.26C871.046 423.853 866.871 424.984 862.85 426.305C857.083 428.186 851.469 430.492 845.761 432.563C844.37 433.067 842.825 433.885 841.481 433.694C839.417 433.403 836.704 432.899 835.667 431.522C834.629 430.156 835.077 427.581 835.348 425.588C835.478 424.637 836.527 423.629 837.424 422.969C848.497 414.818 859.996 407.384 874.36 405.537C877.202 405.167 880.15 405.134 883.004 405.402C894.726 406.488 902.392 413.049 903.559 424.155C904.302 431.276 903.488 438.542 903.288 445.752C902.969 457.038 902.51 468.312 902.25 479.597C902.191 481.915 902.745 484.244 903.017 486.561C903.347 489.259 905.057 490.67 907.793 490.413C911.708 490.043 915.623 489.461 919.468 488.644C920.329 488.464 921.143 486.987 921.496 485.957C923.171 481.142 924.562 476.239 926.308 471.447C926.921 469.767 928.065 468.166 929.315 466.812C931.461 464.494 934.351 463.733 937.511 464.528C940.707 465.323 942.747 467.427 943.219 470.484C943.597 472.869 943.49 475.343 943.467 477.772C943.384 488.543 942.795 499.324 943.313 510.061C943.585 515.648 945.436 521.246 947.158 526.665C952.111 542.249 957.89 557.532 966.392 571.784C967.513 573.665 968.079 576.005 968.291 578.177C968.845 583.887 964.01 588.074 958.302 586.294C954.729 585.174 950.955 583.014 948.632 580.271C945.071 576.05 942.464 571.034 939.893 566.153C938.726 563.936 937.724 563.163 934.952 563.152C905.847 563.152 879.431 556.009 858.215 535.969C854.524 532.498 851.399 528.478 847.637 524.291Z" fill="#0E3572"/>
<path d="M357.176 529.307C357.188 555.695 347.978 579.117 332.057 600.244C311.573 627.416 286.194 649.349 253.751 663.153C240.449 668.818 226.627 672.692 211.733 671.584C196.602 670.464 184.172 664.586 174.832 653.1C165.822 642.027 161.4 629.163 158.629 615.649C155.822 601.946 154.914 588.231 158.122 574.471C160.374 564.786 164.749 556.009 170.941 548.071C182.533 533.181 196.272 520.44 213.466 511.461C230.554 502.549 247.867 494.04 265.014 485.218C271.5 481.881 277.939 478.41 284.13 474.593C291.572 470.002 296.584 463.542 298.824 455.246C299.65 452.201 300.959 449.256 301.607 446.177C302.008 444.285 301.796 442.203 301.49 440.255C301.147 438.038 299.414 435.721 302.244 433.929C306.855 431.007 309.568 430.962 312.74 433.817C316.231 436.963 319.698 440.132 323 443.457C341.043 461.583 351.421 483.18 354.924 507.788C355.938 514.92 356.433 522.13 357.176 529.307ZM315.889 472.006C312.787 476.026 310.193 480.056 306.891 483.46C303.577 486.874 299.862 490.099 295.782 492.64C289.071 496.805 282.031 500.522 274.955 504.127C258.339 512.591 241.604 520.843 224.953 529.251C209.586 537.01 196.909 547.858 185.682 560.331C177.698 569.209 172.863 579.397 172.78 591.164C172.733 597.12 173.335 603.166 174.396 609.044C176.448 620.34 180.009 631.189 187.427 640.549C192.734 647.255 199.527 651.678 208.395 652.988C217.24 654.297 225.766 652.864 233.915 649.752C274.472 634.257 303.671 606.961 321.314 569.522C336.515 537.256 331.845 504.732 316.738 473.204C316.526 472.768 316.172 472.398 315.889 472.006Z" fill="#0E3572"/>
<path d="M885.397 166.752C883.156 157.907 882.531 150.07 883.487 142.11C885.998 121.073 894.713 103.462 912.981 90.3064C943.254 68.4968 975.343 49.699 1010.45 35.7713C1024.45 30.2182 1039.04 26.3108 1054.25 25.5047C1060.26 25.1801 1066.37 26.2661 1072.42 26.8035C1073.57 26.9042 1074.71 27.352 1075.78 27.7999C1078.63 28.9866 1081.33 30.4757 1081.07 33.9464C1080.8 37.5179 1077.75 38.5367 1074.72 38.9734C1066.88 40.0817 1058.96 40.6639 1051.16 41.985C1028.71 45.8028 1007.74 53.5504 987.619 63.6938C965.708 74.7441 944.834 87.1716 925.175 101.614C910.198 112.609 903.11 126.872 901.624 144.192C901.259 148.424 901.318 152.723 901.565 156.978C901.884 162.285 903.7 166.976 907.863 170.917C912.698 175.485 911 182.549 904.419 184.24C900.445 185.259 895.704 185.561 891.812 184.508C882.366 181.933 873.003 178.866 864.016 175.115C835.336 163.135 805.9 153.115 776.158 143.912C767.879 141.348 759.023 140.441 750.449 138.695C748.268 138.247 746.027 137.743 744.069 136.803C740.968 135.314 739.305 132.716 739.517 129.335C739.741 125.954 741.699 123.401 744.989 122.461C747.784 121.666 750.874 121.845 753.822 121.476C756.959 121.084 760.296 121.061 763.174 119.987C776.642 114.948 788.824 107.862 799.567 98.5465C811.832 87.9217 824.321 77.5319 836.609 66.9182C840.796 63.302 844.746 59.4058 848.674 55.5208C852.093 52.1397 856.304 51.1768 859.924 53.2033C863.179 55.0282 864.323 58.2414 863.25 62.563C859.794 76.3899 860.514 90.4519 860.632 104.469C860.632 104.827 860.891 105.186 861.198 106.003C862.247 104.85 863.12 103.999 863.875 103.058C871.458 93.5868 879.064 84.1263 886.529 74.565C887.119 73.8149 887.142 71.9564 886.565 71.2286C884.312 68.3961 881.741 65.7987 879.241 63.1452C878.463 62.3167 877.519 61.6114 876.706 60.8053C870.962 55.073 872.201 48.6914 879.925 45.814C884.689 44.0339 889.678 42.7352 894.666 41.5932C906.318 38.9286 918.217 37.1148 929.055 31.864C929.998 31.405 930.954 30.9683 931.696 30.6212C927.357 20.545 923.088 10.6254 918.571 0.157292C924.585 0.157292 930.187 0.112509 935.777 0.235664C936.284 0.246859 937.039 1.26568 937.239 1.93744C939.916 11.0397 944.35 19.3134 949.669 27.2849C953.172 32.5357 951.202 36.6222 944.999 38.6151C944.598 38.7494 944.162 38.8278 943.784 39.0069C928.229 46.3514 911.684 50.8298 894.831 54.4684C894.041 54.6364 893.31 55.0618 892.449 55.4089C894.902 58.9692 897.367 62.2719 899.525 65.7539C903.263 71.7884 902.662 74.1508 898.181 79.7599C886.093 94.9191 874.253 110.257 862.318 125.529C862.259 125.607 862.212 125.697 862.153 125.786C859.617 129.414 856.811 130.791 853.379 130.085C850.053 129.402 848.037 126.984 847.53 122.562C846.728 115.486 845.843 108.399 845.501 101.301C845.159 94.2138 845.43 87.0932 845.43 79.9838C845.077 79.8606 844.711 79.7487 844.357 79.6255C843.638 80.0846 842.871 80.4764 842.223 81.0138C832.883 88.795 823.401 96.4305 814.261 104.424C804.839 112.676 794.791 120.031 783.54 125.898C782.904 126.234 782.302 126.637 781.453 127.152C815.96 140.307 850.23 153.362 885.397 166.752Z" fill="#0E3572"/>
<path d="M195.045 328.196C195.234 327.994 195.434 327.86 195.505 327.692C198.076 321.96 202.758 319.541 207.793 321.377C212.888 323.225 215.588 329.349 213.678 334.678C212.451 338.093 209.904 340.332 206.449 341.575C193.205 346.322 175.999 342.157 175.103 322.363C174.218 302.837 197.392 285.047 218.902 293.858C233.384 299.792 247.866 318.366 240.826 338.641C238.703 344.743 235.566 350.688 231.898 356.107C224.681 366.777 213.206 370.729 200.529 372.352C184.785 374.367 172.249 369.273 162.272 357.641C156.305 350.688 151.717 343.109 148.58 334.678C147.507 331.812 146.175 329.035 144.83 326.27C143.651 323.818 141.481 322.9 139.028 324.255C133.132 327.513 127.211 330.771 121.669 334.521C118.131 336.917 115.241 340.186 112.057 343.053C110.972 344.038 109.935 345.079 108.767 345.964C102.34 350.867 94.4503 348.147 93.5069 340.366C93.0116 336.302 93.271 331.946 94.2734 327.983C99.427 307.774 111.314 292.055 130.089 281.162C143.486 273.392 158.392 269.653 173.57 266.798C193.748 263.013 213.973 259.475 234.162 255.77C247.89 253.251 259.152 246.947 267.254 235.942C268.174 234.699 269.07 233.423 269.836 232.09C275.072 223.033 270.426 213.203 259.624 211.501C247.772 209.643 236.592 212.218 226.426 218.219C222.582 220.491 220.211 223.985 219.398 228.373C218.761 231.777 216.827 232.471 213.654 230.68C208.831 227.937 206.767 222.171 208.666 216.472C210.388 211.322 213.855 207.292 218.525 204.392C232.075 195.984 246.875 192.838 262.69 196.644C283.599 201.682 292.632 222.753 281.5 240.241C271.594 255.803 257.289 266.35 238.774 270.985C217.546 276.292 196.118 280.893 174.761 285.719C161.671 288.674 148.934 292.436 137.33 299.109C129.617 303.542 123.39 309.364 118.815 316.899C119.794 316.373 120.772 315.858 121.739 315.32C127.058 312.41 132.506 309.801 138.745 309.252C145.738 308.637 151.576 310.932 155.302 316.574C157.838 320.403 159.796 324.669 161.399 328.946C164.348 336.817 168.805 343.668 174.183 350.274C187.155 366.194 215.128 358.055 221.025 344.228C226.179 332.148 225.235 322.34 216.225 314.996C212.369 311.85 207.982 310.126 202.876 311.928C197.533 313.809 194.278 317.515 193.193 322.822C192.804 324.871 192.734 326.931 195.045 328.196Z" fill="#0E3572"/>
<path d="M952.925 178.943C955.437 176.794 957.949 174.611 960.496 172.483C961.534 171.621 962.584 170.67 963.799 170.099C966.228 168.979 968.681 169.102 970.509 171.196C972.301 173.245 971.912 175.461 970.096 177.275C965.603 181.742 960.992 186.098 956.416 190.486C955.213 191.64 953.928 192.726 952.76 193.901C950.838 195.849 948.715 197.45 945.743 196.61C942.312 195.648 939.104 194.36 937.83 190.632C936.946 188.057 935.814 185.538 934.516 183.131C931.226 177.018 929.882 170.468 929.528 163.717C928.891 151.278 930.955 139.377 937.842 128.54C941.05 123.49 945.095 119.213 950.708 116.482C955.473 114.164 960.461 113.425 965.638 115.049C970.344 116.515 972.573 119.516 972.879 124.061C972.962 125.382 973.54 126.827 974.342 127.913C995.699 156.552 1017.11 185.135 1038.5 213.751C1039.79 215.487 1041.36 217.233 1041.95 219.215C1042.51 221.062 1042.15 223.257 1041.77 225.227C1041.5 226.671 1040.55 227.992 1039.89 229.37C1037.8 233.725 1033.47 234.956 1029.45 232.325C1028.57 231.754 1027.66 231.206 1026.8 230.601C1022.03 227.209 1017.15 226.671 1010.98 227.31C983.729 230.142 961.593 243.196 940.036 257.673C934.174 261.602 928.526 265.823 922.641 269.719C913.82 275.564 905.73 282.158 898.276 289.525C883.747 303.9 867.107 316.014 849.807 327.087C831.327 338.921 810.524 345.112 787.953 344.709C762.326 344.25 745.12 331.823 734.778 310.204C731.075 302.445 729.73 294.048 729.282 285.562C729.211 284.151 729.306 282.707 729.506 281.307C729.943 278.351 731.452 276.101 734.683 275.385C737.95 274.668 740.792 275.72 742.502 278.363C743.941 280.579 744.99 283.087 745.804 285.584C747.432 290.533 748.517 295.638 750.286 300.542C755.64 315.421 770.192 330.211 794.91 327.535C812.27 325.665 828.096 319.933 841.941 310.069C858.381 298.359 874.938 286.704 888.783 272.071C890.493 270.257 892.356 268.533 894.373 267.032C915.53 251.291 936.356 235.113 960.284 223.111C972.785 216.83 985.745 211.859 999.909 210.337C1007.26 209.542 1014.66 209.027 1021.87 212.441C1021.34 211.647 1020.84 210.829 1020.29 210.046C1002.14 184.743 983.976 159.463 965.815 134.16C963.787 131.327 961.64 131.047 959.105 133.544C957.996 134.63 956.982 135.873 956.263 137.216C949.588 149.767 947.489 162.833 951.581 176.547C951.758 177.13 951.982 177.701 952.23 178.26C952.3 178.406 952.501 178.518 952.925 178.943Z" fill="#0E3572"/>
<path d="M88.7068 743.26C85.216 745.712 82.3267 747.973 79.2134 749.888C75.1802 752.373 71.1234 754.926 66.7835 756.841C59.7077 759.964 52.5493 759.886 46.1575 755.128C39.6242 750.269 36.6995 743.596 38.3033 735.96C39.459 730.474 41.4757 724.91 44.3414 720.029C48.1741 713.49 53.1861 707.579 57.7029 701.41C58.2925 700.604 58.9883 699.854 60.0379 698.6C54.3655 699.932 49.377 701.387 44.2706 702.261C35.473 703.75 27.4773 702.048 20.7789 696.025C14.5286 690.393 12.0049 683.485 14.6111 675.794C16.6867 669.681 19.4581 663.523 23.2318 658.216C45.4381 627.013 72.1612 600.11 106.915 581.121C108.955 580.013 110.972 578.837 112.871 577.516C115.548 575.658 118.484 575.3 121.692 575.479C127.211 575.792 130.926 579.991 129.511 585.062C128.202 589.765 126.138 594.277 124.652 598.945C122.789 604.767 120.76 610.578 119.534 616.534C118.083 623.587 118.708 630.697 120.619 637.694C122.01 642.811 122.895 648.062 124.44 653.122C125.619 656.973 127.046 660.881 129.157 664.318C133.461 671.338 138.839 677.809 142.731 685.008C145.655 690.427 149.948 694.681 153.427 699.574C172.838 726.88 164.43 753.168 141.952 770.197C134.617 775.75 126.008 778.46 116.55 778.27C107.646 778.09 100.677 774.485 95.9123 767.275C92.2093 761.666 90.1573 755.497 89.3318 748.948C89.096 747.268 88.9544 745.555 88.7068 743.26ZM104.333 653.167C103.283 641.915 100.158 631.178 102.009 620.117C103.861 609.033 108.212 598.889 114.015 589.071C108.425 592.161 103.071 595.441 97.8228 598.844C70.5573 616.489 49.2826 639.553 31.4162 665.605C28.8335 669.378 26.8405 673.722 25.5551 678.055C23.0196 686.654 29.6354 694.345 39.0817 694.065C42.2304 693.976 45.4263 693.192 48.4689 692.296C56.0283 690.068 63.4933 687.538 71.0172 685.221C74.6023 684.112 78.1284 684.146 80.6403 687.303C83.223 690.527 82.3975 693.92 80.263 696.976C77.5977 700.783 74.508 704.321 71.8309 708.127C67.0312 714.968 62.1489 721.786 57.8208 728.896C55.9457 731.975 54.9079 735.692 54.2475 739.241C53.4102 743.73 56.5118 745.869 60.8752 743.999C63.8824 742.711 66.8189 741.122 69.4487 739.241C77.7511 733.307 85.8529 727.138 94.0962 721.137C99.3441 717.308 102.894 716.871 106.29 719.413C109.592 721.887 110.229 725.705 107.528 731.101C103.483 739.207 103.708 747.458 106.007 755.822C108.342 764.308 113.531 767.465 122.529 765.629C136.964 762.674 144.842 753.146 149.134 740.506C150.054 737.785 150.432 734.583 149.913 731.795C145.962 710.512 129.876 697.805 105.441 703.761C103.177 704.31 100.854 704.869 98.5304 704.959C94.8981 705.104 92.9995 703.089 93.1292 699.63C93.2589 695.857 95.2283 692.744 98.4596 691.031C103.448 688.389 108.861 686.452 114.109 684.258C114.84 683.955 115.666 683.832 116.479 683.631C112.694 676.779 109.026 670.162 105.311 663.433C102.988 663.534 100.429 663.669 97.87 663.769C82.4801 664.374 73.5999 652.294 76.0293 637.963C76.7251 633.876 79.7323 631.268 83.4471 631.01C87.3506 630.742 90.6408 633.014 91.9499 637.101C92.7282 639.53 93.0584 642.083 93.9075 644.49C95.476 648.98 98.436 652.226 104.333 653.167Z" fill="#0E3572"/>
<path d="M444.055 0.963007C439.256 6.34822 434.786 12.0469 429.574 17.0515C420.304 25.941 410.705 34.5282 401.011 43.0035C381.812 59.7861 364.016 77.7555 347.942 97.2922C332.658 115.877 321.019 136.153 314.91 159.116C314.544 160.493 314.356 161.915 314.131 163.314C314.073 163.695 314.167 164.098 314.226 164.982C316.007 164.389 317.658 164.053 319.085 163.325C326.538 159.541 334.015 155.779 341.35 151.783C351.197 146.42 360.82 140.687 370.738 135.459C373.073 134.227 376.304 133.78 378.993 134.071C382.897 134.485 383.675 136.735 382.531 140.24C380.102 147.707 377.071 155.119 375.821 162.766C373.545 176.716 377.932 189.177 387.956 199.723C388.239 200.025 388.581 200.283 388.899 200.552C395.374 205.825 398.593 205.758 404.608 200.137C410.233 194.887 414.832 188.93 418.417 182.258C419.774 179.739 420.045 177.354 419.738 174.454C418.229 159.911 410.268 148.872 399.737 138.93C389.289 129.066 376.953 128.294 363.662 131.428C362.719 131.652 361.846 132.873 361.339 133.824C360.49 135.414 356.681 135.672 354.806 134.115C352.765 132.425 352.435 129.626 354.181 126.861C356.704 122.852 360.525 120.277 365.066 118.699C371.186 116.583 377.531 115.687 384.029 116.28C386.116 116.471 387.024 115.866 387.909 114.142C391.081 107.861 393.711 101.446 394.23 94.4261C394.383 92.2765 395.055 89.6567 391.458 89.2984C388.18 88.9625 385.09 90.9106 384.607 93.508C383.97 96.9004 378.639 100.035 374.535 99.4195C370.125 98.7589 367.023 95.2322 367.931 91.1457C369.795 82.6704 376.104 77.7331 384.1 74.699C391.612 71.8552 398.735 73.154 404.726 78.3264C409.643 82.5809 410.823 88.2348 410.044 94.2693C408.912 102.957 405.421 110.727 399.56 117.501C399.148 117.971 398.735 118.441 398.346 118.923C398.228 119.068 398.192 119.292 398.039 119.706C409.431 125.707 417.132 135.101 423.441 145.647C430.199 156.944 433.843 169.047 432.923 182.134C431.519 202.007 416.436 220.256 396.459 226.425C387.343 229.236 379.76 226.806 373.686 218.98C368.226 211.927 365.679 203.754 363.992 195.301C361.504 182.851 361.893 170.412 364.346 157.996C364.523 157.101 364.688 156.194 364.818 155.287C364.842 155.108 364.712 154.906 364.547 154.414C363.391 155.018 362.294 155.578 361.209 156.171C351.539 161.411 342.01 166.919 332.139 171.801C327.163 174.264 321.703 176.122 316.231 177.343C307.976 179.179 301.784 174.768 301.454 166.74C301.253 161.948 302.008 156.966 303.27 152.309C310.075 127.096 322.375 104.536 340.135 84.6297C353.32 69.8512 367.389 55.9795 382.767 43.2162C399.207 29.5572 415.033 15.2489 431.177 1.2653C431.885 0.649523 432.982 0.179296 433.925 0.134513C437.027 -0.0110333 440.128 0.0785337 443.242 0.0785337C443.489 0.380822 443.772 0.671915 444.055 0.963007Z" fill="#0E3572"/>
<path d="M159.288 177.813C167.59 177.891 175.397 176.156 182.98 172.976C196.177 167.445 207.84 159.944 217.852 150.013C229.068 138.896 239.681 127.375 248.349 114.287C251.014 110.268 254.21 106.495 257.642 103.035C262.206 98.4115 267.949 95.2319 274.612 94.4258C277.478 94.0787 280.91 94.6273 283.469 95.8925C287.891 98.0868 288.068 103.304 284.212 106.349C283.492 106.92 282.172 106.853 281.11 106.976C279.506 107.155 277.678 106.797 276.334 107.413C269.966 110.335 265.567 115.306 261.569 120.68C256.321 127.733 251.451 135.134 245.507 141.628C228.82 159.854 209.444 174.946 185.787 184.474C162.272 193.946 138.91 192.177 116.42 181.742C85.1217 167.221 65.6514 143.452 58.2336 111.052C55.2499 98.0421 56.9717 85.5251 63.8942 73.859C66.7246 69.0896 69.72 64.3313 73.2461 60.0209C89.0252 40.6633 117.859 33.733 141.599 43.3391C162.59 51.8367 173.416 75.5496 165.043 95.6909C162.673 101.39 159.453 106.976 155.585 111.869C146.905 122.841 130.053 127.834 116.668 124.072C107.623 121.52 102.174 115.642 100.122 107.032C97.9997 98.154 99.521 89.9698 106.656 83.3979C112.824 77.7216 122.069 77.005 128.485 81.4162C131.964 83.8009 133.556 87.3836 132.777 90.608C132.329 92.5001 131.303 93.1943 129.357 92.78C127.789 92.4441 126.232 92.0859 124.652 91.806C120.772 91.1006 117.671 92.7688 116.255 96.2843C113.567 103.002 118.095 109.283 125.631 109.272C142.908 109.272 155.915 92.8472 151.434 77.005C146.67 60.1329 133.591 54.1879 116.751 56.0688C104.05 57.4906 94.3085 63.4692 87.6336 73.9598C83.0697 81.1363 78.3879 88.2905 77.81 96.8889C77.5034 101.412 77.586 106.092 78.4822 110.525C81.9966 127.946 89.7918 143.072 104.226 155.074C117.871 166.426 132.836 174.655 150.974 177.13C153.722 177.499 156.517 177.589 159.288 177.813Z" fill="#0E3572"/>
<path d="M320.959 359.432C340.229 349.994 359.499 340.556 379.122 330.95C378.816 330.401 378.214 329.494 377.801 328.509C376.162 324.557 374.157 320.672 373.084 316.586C371.693 311.324 374.016 307.203 378.32 305.782C382.79 304.315 387.542 306.263 389.701 311.312C391.859 316.373 393.356 321.702 394.772 327.009C396.116 332.025 396.941 337.164 398.074 342.235C398.368 343.59 398.923 344.889 399.43 346.411C413.004 339.313 426.259 332.383 439.679 325.363C438.347 320.347 432.828 316.015 427.037 315.959C423.429 315.925 420.563 313.966 419.796 310.999C418.994 307.931 420.351 304.886 423.594 303.352C426.07 302.188 428.865 301.628 431.342 300.464C439.113 296.803 446.838 293.052 454.503 289.201C462.723 285.069 468.832 286.625 472.441 294.81C475.235 301.158 477.217 307.853 479.127 314.503C481.663 323.326 483.785 332.26 486.061 341.149C486.392 342.426 486.722 343.724 486.852 345.034C487.146 348.001 486.215 350.52 483.349 352.021C480.365 353.577 477.229 353.196 475.035 350.968C472.594 348.483 470.141 345.65 468.914 342.538C465.695 334.365 463.018 326.001 460.388 317.638C458.926 313.003 457.959 308.222 456.65 303.05C452.451 305.054 448.595 306.901 444.904 308.659C447.569 313.496 450.281 317.974 452.557 322.643C455.93 329.573 454.362 333.973 446.944 336.906C434.219 341.922 422.19 348.057 410.999 355.693C409.277 356.868 407.319 357.798 405.373 358.626C396.882 362.231 389.701 359.768 385.585 351.808C384.464 349.647 383.651 347.341 382.589 344.844C381.457 345.404 380.419 345.874 379.441 346.411C364.711 354.528 350.029 362.724 335.228 370.729C331.431 372.778 327.433 374.67 323.294 375.924C314.26 378.644 305.675 374.502 302.927 365.881C301.654 361.884 301.194 357.451 301.441 353.263C302.102 341.799 303.364 330.357 304.331 318.914C304.944 311.715 305.475 304.516 305.994 297.318C306.819 285.819 311.513 279.483 323.306 276.65C336.066 273.593 349.074 271.5 362.022 269.205C377.282 266.495 392.672 264.368 407.85 261.278C415.633 259.688 423.051 256.509 430.67 254.146C432.875 253.463 435.21 252.713 437.474 252.713C441.354 252.713 444.007 256.273 442.828 259.733C442.18 261.625 441.024 263.416 439.797 265.051C439.278 265.734 438.028 266.059 437.05 266.271C435.068 266.697 432.863 266.562 431.071 267.324C417.084 273.302 401.989 275.642 387.413 279.673C367.577 285.17 347.918 291.227 328.247 297.206C327.197 297.53 326.136 299.366 326.006 300.598C324.615 313.137 323.4 325.699 322.15 338.25C321.466 345.113 320.77 351.976 320.074 358.839C320.369 359.052 320.664 359.242 320.959 359.432Z" fill="#0E3572"/>
<path d="M606.233 439.068C606.233 435.071 606.41 429.473 606.197 423.887C605.82 414.202 610.407 407.518 619.806 404.283C633.192 399.67 646.683 395.315 660.292 391.329C681.885 385.015 703.761 379.562 725.213 372.845C737.572 368.971 749.329 363.351 761.335 358.48C764.306 357.271 767.184 357.081 769.79 359.152C772.349 361.179 772.514 363.81 771.654 366.665C766.866 382.708 762.16 398.774 757.29 414.796C755.65 420.17 753.976 425.577 751.653 430.694C748.799 436.963 743.999 441.531 737.124 444.319C722.547 450.23 707.865 455.996 693.749 462.792C674.644 471.984 656.035 482.083 637.201 491.767C634.854 492.976 632.519 494.297 630.031 495.182C621.929 498.07 614.771 495.305 612.353 487.468C610.242 480.594 609.157 473.372 608.296 466.229C607.27 457.754 606.964 449.2 606.233 439.068ZM627.012 477.324C641.01 469.667 653.935 462.602 667.698 455.078C664.113 451.652 660.905 448.462 657.556 445.416C655.551 443.603 653.157 442.158 651.211 440.277C648.546 437.702 648.039 434.344 649.501 431.578C651.023 428.712 654.431 426.775 658.063 427.369C660.41 427.749 663.087 428.488 664.773 429.944C669.88 434.366 674.915 438.945 679.314 443.994C683.017 448.26 682.604 448.585 687.817 445.875C688.088 445.73 688.3 445.495 688.925 444.991C686.402 442.113 683.89 439.259 681.39 436.381C679.42 434.108 677.144 432.004 675.599 429.496C672.215 424.032 675.352 417.874 681.909 416.643C685.895 415.893 689.598 416.9 692.18 419.699C694.598 422.319 696.626 425.409 698.171 428.589C699.846 432.06 700.766 435.866 702.134 439.908C704.516 439.023 706.863 438.117 709.233 437.266C715.566 434.993 721.922 432.866 728.845 433.134C733.421 433.314 735.343 431.69 736.074 427.413C736.581 424.413 737.218 421.412 738.091 418.49C742.513 403.622 747.03 388.788 751.499 373.931C751.57 373.684 751.405 373.382 751.275 372.733C748.704 373.796 746.287 374.826 743.857 375.789C721.25 384.768 698.773 394.083 675.965 402.581C660.882 408.201 646.105 414.303 631.753 421.446C629.158 422.733 627.979 424.301 627.92 427.089C627.779 433.493 627.165 439.885 627.071 446.278C626.894 456.422 627.012 466.565 627.012 477.324Z" fill="#0E3572"/>
<path d="M1456.1 247.787C1441.14 256.049 1426.66 264.066 1411.44 272.485C1413.23 273.66 1414.13 274.265 1415.06 274.847C1428.44 283.255 1439.78 293.645 1448.76 306.285C1455.17 315.298 1456.45 325.016 1453.08 335.417C1449.12 347.631 1439.28 352.737 1426.4 349.031C1425.19 348.684 1424 348.27 1422.44 347.766C1421.74 351.293 1421.39 354.629 1420.41 357.797C1418.61 363.619 1417.18 369.71 1414.27 375.039C1406.86 388.552 1395.58 391.06 1382.03 382.932C1376.37 379.54 1371.94 380.603 1368.82 386.201C1369.48 386.683 1370.19 387.13 1370.81 387.679C1372.73 389.37 1372.69 391.251 1370.75 392.919C1365.04 397.811 1356.25 395.315 1354.49 388.239C1353.36 383.682 1354.71 379.562 1357.46 375.834C1365.36 365.108 1378.71 362.746 1390.14 370.012C1396.37 373.975 1397.75 373.942 1401.67 367.717C1404.06 363.955 1405.86 359.689 1406.98 355.424C1408.52 349.524 1409.19 343.411 1410.22 337.387C1410.82 333.905 1412 330.759 1416.06 329.763C1419.99 328.8 1422.91 330.491 1425.27 333.357C1425.8 333.995 1426.39 334.588 1427.03 335.137C1432.85 340.242 1438.31 338.787 1440.44 331.644C1442.37 325.139 1441.42 319.172 1437.08 313.742C1428.87 303.486 1418.24 296.075 1406.35 290.141C1403.23 288.584 1399.96 287.219 1397.01 285.405C1387.69 279.65 1387.46 270.268 1396.91 264.76C1406.3 259.285 1416.3 254.751 1425.8 249.455C1435.12 244.271 1444.19 238.684 1453.28 233.131C1454.62 232.314 1455.73 230.881 1456.49 229.504C1458.35 226.1 1461.15 224.163 1465.16 224.197C1469.28 224.231 1472.58 226.134 1473.94 229.784C1475.2 233.187 1476.02 236.86 1476.26 240.465C1477.27 255.378 1478.03 270.313 1478.8 285.237C1480.5 318.254 1482.17 351.259 1483.81 384.276C1484.13 390.68 1484.58 397.095 1484.33 403.476C1484.19 407.014 1483.1 410.653 1481.71 413.967C1481.13 415.344 1478.58 416.799 1477.01 416.721C1475.46 416.643 1473.28 414.919 1472.7 413.452C1471.32 409.981 1470.2 406.264 1469.92 402.57C1468.83 388.676 1468.37 374.748 1467.23 360.865C1465.46 339.481 1463.39 318.119 1461.32 296.757C1459.86 281.565 1458.2 266.394 1456.62 251.213C1456.46 250.149 1456.27 249.085 1456.1 247.787Z" fill="#0E3572"/>
<path d="M489.305 622.099C489.907 602.707 493.409 583.719 497.761 564.82C499.424 557.588 500.686 550.266 502.254 543.011C504.283 533.584 508.386 525.041 514.873 517.619C520.144 511.584 526.902 507.554 534.85 505.449C544.898 502.784 553.743 504.979 561.149 511.931C569.026 519.332 573.685 528.49 575.477 538.712C580.324 566.489 577.824 593.706 566.279 619.747C560.453 632.88 551.632 644.345 540.098 653.66C533.718 658.821 526.418 662.381 518.033 663.613C506.83 665.259 497.018 660.344 493.079 650.267C491.062 645.106 490.213 639.463 489.435 633.966C488.857 630.081 489.305 626.062 489.305 622.099ZM561.585 571.56C561.632 558.674 560.724 549.706 557.516 541.052C555.417 535.398 552.375 530.27 547.469 526.43C545.947 525.243 543.247 523.866 541.832 524.392C537.527 525.982 533.553 528.423 529.52 530.651C529.036 530.919 528.871 531.882 528.753 532.554C527.479 539.551 526.619 546.638 524.932 553.535C519.543 575.512 513.965 597.456 511.005 619.882C510.214 625.905 509.672 632.04 509.908 638.097C510.262 647.177 513.564 648.857 522.562 645.375C529.012 642.878 533.836 638.456 538.14 633.44C554.556 614.317 561.29 592.071 561.585 571.56Z" fill="#0E3572"/>
<path d="M1312.94 622.636C1320.23 621.091 1327.52 619.523 1334.82 618.001C1339.01 617.139 1343.18 616.209 1347.41 615.582C1353.76 614.642 1358.43 617.855 1358.64 623.934C1358.84 629.891 1358.37 635.903 1357.67 641.837C1356.55 651.331 1354.71 660.758 1353.77 670.263C1353.33 674.629 1353.77 679.242 1354.75 683.541C1356.26 690.169 1361.01 694.244 1368.02 695.812C1374.8 697.323 1381.63 697.402 1388.41 695.879C1402.05 692.834 1413.69 686.407 1422.9 676.387C1431.56 666.983 1434.2 655.775 1432.37 643.628C1431 634.503 1423.12 627.584 1413.37 626.924C1410.98 626.756 1408.12 627.405 1406.1 628.603C1402.31 630.831 1398.96 633.731 1395.46 636.384C1394.31 637.246 1393.28 638.232 1392.19 639.15C1391.84 639.094 1391.47 639.049 1391.12 638.993C1390.93 636.798 1390.39 634.571 1390.6 632.41C1391.96 618.93 1407.51 608.898 1421.78 612.537C1437.02 616.433 1446.73 625.647 1449.53 640.628C1452.57 656.94 1448.72 671.853 1436.8 683.978C1417.68 703.436 1394.17 712.214 1366.02 706.885C1350.9 704.03 1341.62 694.547 1340.88 679.947C1340.38 670.196 1342 660.321 1342.94 650.525C1343.52 644.557 1344.64 638.646 1345.47 632.69C1345.61 631.637 1345.49 630.54 1345.49 629.006C1339.48 630.305 1333.89 631.626 1328.25 632.701C1318.39 634.571 1308.53 636.451 1298.6 637.985C1295.38 638.489 1291.96 638.187 1288.68 637.829C1284.97 637.414 1281.97 635.623 1280.71 632.04C1279.49 628.581 1280.59 625.457 1283.28 623.14C1286.51 620.352 1289.95 617.676 1293.64 615.47C1309.26 606.144 1323.31 595.094 1335.42 581.86C1345.66 570.676 1352.66 557.856 1356.23 543.447C1357.15 539.742 1357.32 535.823 1357.47 531.994C1357.63 528.434 1359.3 525.78 1362.49 525.041C1365.62 524.314 1369.43 525.668 1370.33 528.859C1371.46 532.89 1372.37 537.312 1371.8 541.365C1369.14 560.499 1360 576.878 1346.79 591.332C1337 602.035 1326.45 611.977 1314.53 620.576C1313.89 621.046 1313.33 621.628 1312.73 622.154C1312.79 622.333 1312.86 622.49 1312.94 622.636Z" fill="#0E3572"/>
<path d="M1366.77 307.45C1366.16 326.371 1363.98 342.829 1356.2 358.212C1352.27 365.971 1347.41 373.169 1341.13 379.361C1328.65 391.665 1327.78 406.108 1332.46 421.424C1334.54 428.197 1339.15 433.414 1346.19 436.381C1349.22 437.658 1352.25 438.956 1355.24 440.333C1358.53 441.845 1359.01 444.476 1355.95 446.346C1353.82 447.656 1351.05 448.551 1348.51 448.686C1333.5 449.469 1320.22 440.848 1315.76 426.563C1309.92 407.809 1312.88 389.918 1327.04 375.509C1348.61 353.554 1353.84 327.446 1351.69 298.952C1351.32 293.891 1350.57 288.82 1349.5 283.849C1345.09 263.45 1330.7 251.414 1311.1 244.697C1299.46 240.711 1289.6 245.458 1282.41 256.945C1281.36 258.636 1281.13 261.099 1281.33 263.136C1282.79 277.982 1291.08 288.876 1303.76 297.06C1306.98 299.142 1310.76 299.299 1314.29 298.124C1318.39 296.758 1322.37 294.933 1326.25 293.041C1329.65 291.372 1330.87 291.854 1331.14 295.537C1331.67 302.848 1328.84 308.603 1322.44 312.79C1311.62 319.877 1299.11 319.989 1288.56 312.566C1270.75 300.049 1261.55 283.267 1261.64 262.084C1261.67 255.971 1263.72 250.541 1267.66 245.693C1282.36 227.567 1304.43 222.843 1325.46 234.005C1348.66 246.331 1362.53 264.905 1365.17 290.421C1365.81 296.791 1366.37 303.173 1366.77 307.45Z" fill="#0E3572"/>
<path d="M1017.54 592.026C1017.08 591.254 1016.77 590.627 1016.36 590.078C1004.9 574.941 1003.12 558.461 1009.96 541.365C1020.46 515.156 1041.27 499.246 1068.83 490.827C1080.45 487.278 1092.4 485.487 1104.61 488.274C1110.57 489.64 1115.96 492.014 1119.93 496.649C1124.35 501.821 1124.16 508.225 1119.56 512.39C1115.47 516.107 1111.01 515.245 1108.39 510.498C1107.64 509.132 1106.05 507.856 1104.51 507.274C1099.35 505.303 1093.98 505.729 1088.71 506.983C1080.71 508.886 1073.37 512.155 1066.88 517.025C1050.64 529.229 1039.8 544.858 1034.23 563.779C1032.42 569.903 1032.14 575.96 1034.52 582.062C1035.39 584.29 1036.34 585.063 1038.97 584.312C1045.16 582.544 1051.55 581.29 1057.95 582.98C1060.85 583.741 1063.78 585.096 1066.14 586.865C1069.27 589.216 1069.43 592.553 1066.41 595.049C1061.84 598.822 1057.16 602.718 1051.87 605.417C1043.2 609.828 1034.04 613.377 1025.03 617.161C1016.41 620.789 1007.69 624.226 999.047 627.786C992.124 630.641 985.037 632.947 977.442 633.339C974.482 633.485 971.427 633.339 968.526 632.802C965.295 632.197 964.304 630.182 965.708 627.293C966.734 625.2 967.972 622.983 969.753 621.494C975.189 616.937 980.543 612.145 986.629 608.495C995.756 603.01 1005.49 598.419 1014.96 593.448C1015.77 593.023 1016.57 592.564 1017.54 592.026Z" fill="#0E3572"/>
<path d="M1215.4 465.278C1211.46 461.93 1207.58 458.515 1203.56 455.269C1198.69 451.328 1193.62 447.611 1188.77 443.636C1187.52 442.617 1186.57 441.106 1185.91 439.639C1184.2 435.877 1186.16 431.556 1190.28 431.041C1208.34 428.779 1224.61 420.965 1241.93 416.464C1253.39 413.486 1264.92 410.765 1276.43 407.921C1276.64 407.865 1276.86 407.843 1277.07 407.821C1282.56 407.026 1286.96 409.019 1288.22 412.859C1289.47 416.665 1287.1 421.065 1281.82 422.767C1275.25 424.883 1268.45 426.372 1261.68 427.839C1242.36 432.015 1223.01 436.034 1203.68 440.109C1203.39 440.177 1203.11 440.322 1202.05 440.725C1204.73 442.528 1206.9 444.241 1209.32 445.562C1216.46 449.458 1222.77 454.25 1227.77 460.497C1228.74 461.706 1229.75 462.915 1230.5 464.259C1233.54 469.734 1231.48 475.455 1225.29 477.369C1218.99 479.317 1212.54 480.93 1206.04 482.105C1193.01 484.467 1179.89 486.438 1166.8 488.565C1159.4 489.763 1155.69 486.539 1156.59 479.385C1157.38 473.059 1158.5 466.767 1159.53 460.116C1157.78 460.262 1156 460.352 1154.23 460.576C1139.2 462.49 1124.14 463.162 1109.08 460.934C1102.73 459.993 1096.87 457.866 1091.75 454.082C1085.17 449.223 1082.35 442.841 1083.65 435.015C1085.25 425.309 1089.58 416.811 1098.17 411.056C1112.81 401.237 1129.04 395.472 1147.23 396.837C1153.08 397.274 1158.98 399.099 1164.43 401.271C1167.66 402.559 1170.54 405.402 1172.69 408.179C1175.74 412.109 1174.68 418.177 1171.16 421.726C1169.35 423.54 1166.78 423.752 1165.36 421.58C1158.96 411.784 1148.74 412.097 1138.83 412.892C1129.47 413.642 1120.76 417.102 1112.84 422.017C1107.51 425.32 1103.93 429.865 1102.51 435.833C1101.56 439.796 1102.17 442.024 1106.03 443.659C1110 445.327 1114.28 446.502 1118.55 447.275C1133.58 450.007 1148.64 448.719 1163.68 446.984C1164.83 446.849 1165.95 446.424 1167.09 446.144C1173.54 444.577 1178.24 448.842 1176.82 455C1175.51 460.654 1174.13 466.308 1172.79 471.962C1172.55 473.014 1172.42 474.089 1172.3 474.772C1186.55 471.872 1200.59 469.006 1214.64 466.151C1214.9 465.871 1215.15 465.58 1215.4 465.278Z" fill="#0E3572"/>
<path d="M1004.45 403.286C1012.08 399.625 1019.74 396.054 1027.28 392.214C1028.31 391.687 1028.84 389.941 1029.2 388.665C1030.69 383.369 1031.86 377.995 1033.49 372.744C1034.14 370.662 1035.45 368.646 1036.9 366.933C1040.1 363.138 1045.32 361.794 1049.95 363.407C1054.79 365.097 1057.53 368.624 1057.46 373.393C1057.41 376.752 1056.97 380.592 1055.23 383.369C1048.54 393.994 1047.76 405.917 1045.79 417.606C1043.88 428.947 1042.15 440.311 1040.28 451.652C1040.15 452.47 1039.58 453.824 1039.13 453.858C1038.22 453.925 1036.88 453.511 1036.38 452.839C1034.56 450.376 1032.22 447.902 1031.5 445.103C1029.97 439.124 1028.94 432.967 1028.42 426.831C1027.92 420.886 1028.32 414.874 1028.32 408.168C1026.54 408.907 1025.52 409.287 1024.53 409.746C1018.66 412.456 1012.95 415.613 1006.85 417.729C1002.88 419.106 998.257 419.722 994.047 419.352C987.501 418.793 983.893 413.43 985.049 407.227C985.402 405.346 986.004 403.443 986.888 401.73C990.615 394.52 994.424 387.355 998.327 380.223C1007.62 363.227 1014.21 345.325 1018.22 326.595C1019.17 322.172 1019.47 317.459 1019 312.98C1018.05 303.901 1011.77 298.695 1002.16 298.683C990.627 298.672 980.107 302.4 970.036 307.405C963.514 310.652 957.759 314.805 953.408 320.571C948.018 327.737 948.75 331.845 956.45 336.828C957.948 337.802 959.517 338.72 960.873 339.862C963.161 341.799 962.842 343.814 959.941 344.642C945.341 348.841 933.053 341.261 931.72 328.386C931.249 323.885 932.298 319.586 934.798 315.813C937.405 311.872 939.987 307.696 943.502 304.561C960.637 289.245 981.145 282.181 1004.61 284.487C1022.03 286.189 1033.14 298.415 1033.53 315.041C1033.78 325.665 1030.59 335.742 1027.67 345.84C1022.46 363.866 1014.84 380.984 1005.97 397.621C1005.12 399.211 1004.42 400.868 1003.66 402.503C1003.89 402.76 1004.16 403.018 1004.45 403.286Z" fill="#0E3572"/>
<path d="M547.314 282.909C553.635 282.035 559.956 281.162 566.49 280.266C566.49 278.665 566.478 277.064 566.49 275.463C566.525 271.97 568.306 269.63 571.278 269.138C574.474 268.6 577.469 270.134 578.413 273.47C579.321 276.684 579.792 280.054 580.005 283.379C580.264 287.51 580.064 291.675 580.064 296.601C583.814 295.202 586.774 294.351 589.474 293.041C594.522 290.589 599.392 287.812 604.393 285.271C606.362 284.274 608.414 283.267 610.549 282.741C613.308 282.069 615.726 283.032 616.94 285.607C618.073 288.025 617.341 290.197 615.266 291.921C614.546 292.515 613.733 293.052 612.872 293.444C603.909 297.575 594.946 301.684 585.96 305.748C584.616 306.353 583.153 306.767 581.715 307.148C572.941 309.476 567.174 305.569 566.561 296.915C566.513 296.22 566.466 295.515 566.407 294.474C562.315 295.56 558.506 296.859 554.567 297.542C548.812 298.538 542.939 299.826 537.161 299.68C525.792 299.389 520.544 291.373 525.32 281.576C527.608 276.885 531.441 272.843 534.778 268.656C535.84 267.324 537.561 266.484 538.977 265.409C538.776 265.085 538.576 264.749 538.375 264.424C537.385 264.368 536.406 264.301 535.415 264.245C529.436 263.898 523.433 263.696 517.478 263.137C515.308 262.935 513.067 262.129 511.121 261.133C504.187 257.561 502.925 249.5 508.845 244.551C511.994 241.92 515.792 239.581 519.73 238.259C533.457 233.658 547.326 229.437 561.218 225.328C570.617 222.54 580.134 220.089 589.663 217.715C592.234 217.077 592.659 216.002 591.986 213.875C591.279 211.636 590.689 209.363 590.099 207.09C589.25 203.776 590.489 201 593.236 199.902C596.126 198.749 599.723 199.69 601.091 202.847C603.225 207.784 605.466 212.912 606.173 218.14C607.494 227.903 607.836 237.789 608.367 247.63C608.497 249.925 607.978 252.288 607.423 254.549C606.881 256.777 605.36 258.434 602.801 258.625C600.253 258.815 598.378 257.438 597.588 255.277C596.586 252.512 595.689 249.634 595.359 246.746C594.64 240.297 594.298 233.815 593.779 227.086C576.868 233.367 560.192 239.558 542.68 246.052C544.142 246.41 544.755 246.578 545.368 246.712C547.869 247.283 550.451 247.619 552.845 248.459C561.454 251.471 564.662 259.106 560.192 266.697C558.129 270.201 555.157 273.235 552.456 276.381C550.723 278.408 548.741 280.233 546.878 282.158C547.031 282.405 547.173 282.662 547.314 282.909Z" fill="#0E3572"/>
<path d="M771.973 584.738C765.84 565.179 768.117 546.549 774.202 528.243C776.041 522.724 779.568 517.686 782.575 512.558C783.589 510.834 785.287 509.423 786.856 508.057C788.967 506.221 791.467 505.236 794.179 506.803C796.939 508.393 797.045 510.957 796.149 513.554C792.528 524.011 789.78 534.625 788.401 545.597C786.726 558.976 787.068 572.176 790.5 585.275C791.302 588.332 792.28 591.455 792.245 594.545C792.221 597.579 791.29 600.692 790.264 603.603C789.533 605.685 787.658 606.021 785.535 604.79C784.757 604.342 783.412 603.928 782.764 604.252C779.402 605.954 776.313 605.148 773.235 603.726C753.859 594.769 733.693 594.534 713.35 599.55C707.253 601.05 701.427 604.096 696.002 607.23C692.676 609.156 690.342 612.627 687.771 615.191C679.28 611.127 676.85 604.297 676.956 596.538C677.192 579.039 686.579 566.377 701.368 556.961C704.776 554.789 708.798 553.378 712.713 552.091C716.038 550.993 719.718 551.195 722.525 553.378C724.081 554.599 724.93 556.782 725.662 558.674C725.85 559.155 724.482 560.297 723.68 560.969C723.162 561.394 722.23 561.372 721.699 561.798C713.774 568.09 706.404 574.863 701.392 583.596C700.884 584.48 700.472 585.432 700.059 586.372C699.894 586.731 699.835 587.145 699.446 588.556C711.015 582.275 722.784 579.207 735.344 578.905C747.774 578.625 759.897 579.968 771.973 584.738Z" fill="#0E3572"/>
<path d="M722.135 195.088C722.913 197.831 723.797 200.249 724.246 202.735C724.682 205.22 725.036 207.795 724.8 210.281C724.151 217.312 719.517 220.346 712.382 218.622C709.893 218.017 707.476 217.177 705.046 216.405C698.348 214.255 694.079 215.207 689.963 220.671C685.175 227.03 680.871 233.725 676.342 240.263C675.458 241.54 674.644 242.883 673.571 243.992C671.354 246.276 668.005 246.835 665.351 245.559C662.615 244.238 661.412 241.596 662.238 238.27C664.278 230.053 666.755 221.925 668.406 213.651C672.639 192.39 674.561 170.95 672.793 149.297C672.097 140.788 677.911 135.492 686.732 137.317C692.746 138.56 698.596 140.788 704.327 143.005C709.976 145.188 715.519 147.685 720.861 150.461C733.055 156.776 745.744 161.825 759.094 165.464C762.467 166.382 765.722 167.781 768.929 169.17C771.099 170.099 772.503 171.756 772.42 174.208C772.408 174.51 772.397 174.824 772.467 175.115C773.93 180.657 772.397 182.896 766.842 184.586C752.667 188.897 738.586 193.476 723.597 194.618C723.184 194.64 722.795 194.864 722.135 195.088ZM711.073 206.026C710.695 204.649 710.507 203.463 710.047 202.388C708.596 199.007 706.957 195.693 705.53 192.3C703.466 187.396 706.155 183.052 711.533 182.515C712.594 182.414 713.667 182.549 714.74 182.504C723.491 182.123 732.241 181.776 740.98 181.272C743.197 181.138 745.402 180.511 747.572 179.985C749.624 179.492 751.641 178.843 753.669 178.261C739.73 174.868 727.099 169.102 714.269 163.74C707.24 160.806 699.858 158.612 692.628 156.138C691.779 155.847 690.824 155.802 690.506 155.757C688.1 173.861 685.729 191.684 683.312 209.956C691.213 200.372 701.025 203.81 711.073 206.026Z" fill="#0E3572"/>
<path d="M1205.87 360.899C1205.67 362.578 1205.57 363.776 1205.38 364.974C1204.11 373.293 1197.87 379.182 1189.08 380.29C1183.71 380.973 1179.28 379.137 1176.1 375.129C1173.27 371.569 1171 367.605 1168.27 363.978C1166.1 361.1 1163.68 358.369 1161.15 355.76C1159.85 354.405 1158.21 353.745 1155.95 354.506C1153.16 355.458 1150.12 353.845 1149.4 351.562C1148.68 349.266 1150.08 347.195 1153.22 346.076C1158.09 344.34 1162.95 344.676 1166.9 347.811C1170.8 350.912 1174.21 354.596 1177.63 358.212C1179.76 360.473 1181.4 363.16 1183.48 365.478C1184.35 366.441 1186.2 367.784 1186.9 367.482C1188.46 366.81 1190.46 365.344 1190.71 363.955C1191.34 360.395 1191.19 356.7 1191.23 353.062C1191.24 351.651 1190.91 350.229 1190.81 348.819C1190.6 345.404 1191.63 342.493 1195.17 341.037C1198.6 339.616 1201.59 340.601 1204.31 342.918C1207.34 345.493 1210.34 348.124 1213.62 350.397C1224.25 357.809 1239.06 357.607 1249.6 350.084C1254.4 346.658 1255.42 343.881 1253.69 338.429C1251.47 331.353 1247.2 325.632 1240.72 321.501C1214.61 304.864 1186.39 301.941 1156.53 310.002C1155.82 310.193 1154.82 310.361 1154.53 310.842C1153.32 312.835 1151.68 313.115 1149.66 312.286C1147.26 311.312 1145.56 309.443 1145.95 307.103C1146.35 304.617 1147.2 301.751 1148.94 300.027C1151.37 297.609 1154.6 295.672 1157.84 294.25C1172.22 287.924 1187.35 287.241 1202.83 289.245C1219.38 291.395 1234.55 296.691 1248.2 305.927C1260.15 314.022 1266.6 325.262 1269.29 338.619C1270.98 347.027 1267.67 353.745 1260.72 359.018C1248.26 368.467 1224.78 372.576 1208.19 362.052C1207.61 361.694 1206.94 361.425 1205.87 360.899Z" fill="#0E3572"/>
<path d="M599.782 117.198C602.023 133.836 604.157 149.633 606.351 165.878C610.396 163.908 614.017 162.217 617.531 160.347C618.097 160.045 618.262 158.959 618.51 158.198C619.571 154.962 621.918 153.137 624.949 153.238C628.062 153.339 630.562 155.388 631.128 158.881C632.19 165.363 633.003 171.868 633.888 178.373C636.706 199.051 638.994 219.786 639.289 240.667C639.313 242.783 639.277 244.988 638.64 246.97C638.251 248.201 636.753 249.836 635.61 249.948C634.242 250.093 632.131 249.153 631.388 248.056C630.102 246.152 629.241 243.813 628.888 241.562C626.411 225.675 624.1 209.766 621.764 193.857C620.668 186.423 619.618 178.977 618.462 170.916C615.609 172.954 613.026 174.678 610.573 176.559C601.009 183.881 594.652 181.888 592.341 170.39C589.475 156.115 587.423 141.684 584.357 127.454C582.553 119.035 579.77 110.772 576.88 102.61C574.191 95.0307 578.909 87.9213 587.435 88.19C590.855 88.302 594.617 89.1081 597.542 90.7315C603.886 94.2582 610.337 97.9192 615.738 102.577C625.314 110.828 634.135 119.863 643.263 128.573C643.711 128.999 644.101 129.503 644.443 130.018C646.27 132.828 645.162 135.089 641.742 134.787C637.414 134.407 632.815 134.115 628.935 132.492C621.623 129.424 614.712 125.483 607.684 121.822C605.172 120.535 602.801 118.99 599.782 117.198Z" fill="#0E3572"/>
<path d="M1517.53 435.362C1517.53 441.319 1517.6 446.894 1517.45 452.47C1517.42 453.209 1516.49 454.239 1515.71 454.608C1499.08 462.613 1486.75 474.929 1476.58 489.472C1472.87 494.79 1468.94 499.985 1465.13 505.247C1464.65 505.919 1464.2 506.635 1463.9 507.385C1462.81 510.218 1461.1 512.244 1457.55 511.774C1454.47 511.371 1451.53 508.505 1451.18 505.303C1450.81 501.978 1450.7 498.608 1450.64 495.26C1450.4 483.169 1450.23 471.077 1450.01 458.986C1450 458.493 1449.93 458.001 1449.85 457.116C1448.92 457.586 1448.2 457.889 1447.55 458.303C1446.39 459.031 1445.3 459.859 1444.13 460.576C1440.47 462.815 1436.63 464.449 1432.44 461.997C1428.29 459.557 1427.97 455.56 1428.44 451.462C1429.01 446.514 1429.78 441.587 1430.34 436.639C1430.52 435.139 1430.35 433.605 1430.34 432.082C1430.32 429.126 1428.54 427.951 1425.64 427.872C1423.07 427.794 1420.48 427.828 1417.95 427.525C1413.53 427.01 1409.93 425.118 1408.32 420.931C1406.76 416.833 1408.4 413.318 1411.24 410.284C1412.65 408.772 1414.4 407.552 1415.95 406.152C1419.3 403.163 1422.79 400.297 1425.93 397.117C1430.37 392.617 1432.03 387.254 1430.81 381.062C1429.91 376.461 1431.43 373.785 1434.88 373.035C1438.53 372.24 1441.83 374.323 1443.21 378.555C1446.04 387.198 1444.09 395.147 1438.41 402.133C1434.69 406.701 1430.27 410.754 1426.17 415.031C1425.33 415.904 1424.46 416.766 1423.28 417.964C1426.04 418.647 1428.28 419.218 1430.53 419.755C1436.56 421.211 1440.35 424.85 1441.14 430.671C1441.76 435.172 1441.62 439.774 1441.77 444.342C1441.83 445.954 1441.78 447.566 1441.78 449.727C1443.02 448.999 1443.94 448.439 1444.88 447.891C1446.7 446.827 1448.42 445.551 1450.37 444.756C1455.35 442.718 1460.04 444.565 1461.06 449.604C1462.15 454.944 1462.07 460.486 1462.63 465.938C1462.77 467.293 1463.11 469.499 1463.93 469.767C1466.07 470.473 1468.35 470.495 1470.07 468.077C1476.04 459.702 1482.79 451.966 1491.69 446.166C1499.43 441.128 1507.76 437.344 1517.53 435.362Z" fill="#0E3572"/>
<path d="M1131.27 47.6835C1118.82 32.0541 1106.46 16.5478 1094.1 1.03037C1094.31 0.728084 1094.54 0.436991 1094.75 0.134703C1100.88 0.134703 1107.02 0.0451358 1113.16 0.235465C1114.03 0.257857 1114.97 1.5006 1115.72 2.3179C1127.23 15.0476 1138.65 27.8333 1150.21 40.507C1153.08 43.653 1156.4 46.4184 1159.43 49.4301C1160.75 50.7512 1161.98 52.1955 1163.07 53.6957C1165.8 57.4799 1165.82 61.4209 1163.28 64.455C1160.61 67.6346 1156.08 68.4295 1151.59 66.9516C1147.47 65.5969 1143.28 64.2086 1139 63.6153C1122.95 61.3873 1108.25 66.056 1094.01 72.3368C1083.11 77.1399 1073.5 83.8126 1065.27 92.0975C1053.26 104.189 1049.12 118.788 1050.93 135.123C1051.15 137.139 1052.41 139.915 1049.68 140.766C1047.08 141.583 1045.56 139.131 1044.45 137.139C1043.66 135.717 1042.98 134.172 1042.65 132.604C1038.41 112.709 1041.37 94.5718 1057.1 79.547C1077.02 60.5476 1100.87 49.654 1129.21 47.997C1129.92 47.9299 1130.61 47.7731 1131.27 47.6835Z" fill="#0E3572"/>
<path d="M376.481 651.801C374.913 651.801 373.757 651.812 372.613 651.801C351.751 651.644 342.965 635.657 346.126 619.747C347.907 610.779 352.506 603.189 359.334 596.841C369.83 587.078 381.894 579.722 396.176 575.983C398.829 575.289 401.647 574.852 404.383 574.897C408.853 574.953 412.202 578.244 412.143 581.939C412.084 585.309 407.957 589.418 404.289 589.765C403.971 589.798 403.534 589.933 403.346 589.787C400.232 587.38 397.791 589.765 395.326 590.918C386.175 595.172 378.333 601.129 371.363 608.115C366.398 613.086 362.978 618.908 361.976 625.804C360.938 632.869 364.405 637.157 371.835 638.097C373.627 638.321 375.467 638.254 377.283 638.366C380.231 638.534 382.378 637.873 384.135 635.108C387.154 630.361 392.944 629.421 397.166 632.421C401.541 635.534 402.025 641.355 398.452 645.699C397.367 647.009 396.447 648.599 395.999 650.2C391.505 666.624 387.248 683.105 382.625 699.496C381.175 704.668 378.899 709.65 376.894 714.677C376.375 715.976 375.561 717.252 374.594 718.305C371.835 721.316 367.613 720.79 366.056 717.084C365.172 714.968 364.9 712.561 364.676 710.255C363.426 697.458 366.717 685.21 370.019 672.995C371.611 667.095 373.592 661.284 375.396 655.44C375.726 654.354 376.033 653.301 376.481 651.801Z" fill="#0E3572"/>
<path d="M1404.06 570.317C1405.12 570.217 1405.54 570.228 1405.94 570.127C1416.79 567.373 1427.64 564.619 1438.46 561.864C1438.49 561.573 1438.61 561.327 1438.52 561.193C1436.49 558.271 1435.64 555.236 1437.84 552.079C1440.05 548.9 1443.47 548.183 1447.16 548.418C1454.53 548.9 1461.89 549.672 1469.27 549.963C1472.3 550.086 1475.45 549.616 1478.39 548.844C1485.16 547.086 1490.58 551.15 1489.44 557.666C1486.9 572.209 1484.19 586.719 1481.48 601.218C1481.09 603.312 1480.44 605.383 1479.64 607.364C1478.55 610.051 1476.42 611.652 1473.28 611.731C1470.18 611.809 1467.74 610.455 1466.61 607.801C1465.62 605.495 1464.96 602.942 1464.79 600.457C1464 588.802 1465.5 577.315 1468.23 565.962C1468.47 564.988 1468.72 564.014 1468.99 562.906C1464.59 562.906 1460.46 562.861 1456.32 562.962C1455.77 562.973 1454.97 563.656 1454.74 564.204C1452.58 569.489 1447.96 571.818 1442.71 573.463C1432.55 576.654 1422.36 579.789 1412.24 583.092C1406.67 584.906 1401.18 586.921 1395.73 589.026C1391.56 590.627 1387.56 591.007 1384.02 587.951C1380.61 585.006 1380.64 581.2 1382.17 577.516C1386.5 567.115 1391.08 556.826 1395.47 546.448C1397.26 542.204 1398.88 537.894 1400.39 533.561C1401.91 529.206 1404.99 526.9 1409.03 527.404C1413.2 527.919 1416.03 531.143 1415.67 535.756C1415.44 538.857 1414.69 542.003 1413.64 544.959C1411.03 552.27 1408.1 559.491 1405.32 566.746C1404.89 567.787 1404.56 568.839 1404.06 570.317Z" fill="#0E3572"/>
<path d="M1469.47 177.846C1468.89 183.399 1468.43 188.964 1467.7 194.506C1467.23 198.088 1465.6 198.838 1461.86 197.887C1461 197.674 1459.75 197.853 1459.02 198.335C1440.58 210.348 1422.18 222.428 1403.78 234.508C1402.56 235.315 1401.41 236.266 1400.15 237.016C1394.48 240.431 1388.74 238.069 1387.65 231.799C1387.06 228.395 1387.01 224.902 1386.32 221.521C1386.04 220.144 1384.94 218.666 1383.77 217.759C1381.06 215.643 1380.4 212.665 1382.78 210.057C1384.37 208.299 1386.3 206.776 1388.19 205.31C1403.97 193.14 1419.68 180.858 1435.66 168.934C1440.41 165.385 1445.89 162.631 1451.25 159.91C1453.62 158.701 1456.51 158.097 1459.22 157.873C1464.34 157.458 1467.49 160.213 1468.12 165.049C1468.36 166.964 1468.66 168.878 1468.75 170.804C1468.86 173.133 1468.78 175.473 1468.78 177.813C1469.02 177.824 1469.25 177.835 1469.47 177.846ZM1401.48 220.726C1407.19 217.244 1412.64 214.054 1417.92 210.65C1430.08 202.824 1442.31 195.155 1455.93 189.714C1456.52 189.479 1457.37 188.773 1457.32 188.359C1457.01 184.765 1456.52 181.194 1456.02 177.107C1454.45 178.036 1453.36 178.63 1452.31 179.29C1437.64 188.65 1422.98 197.999 1408.32 207.381C1405.84 208.971 1403.35 210.56 1400.97 212.296C1400.34 212.755 1399.68 213.785 1399.79 214.434C1400.12 216.405 1400.81 218.319 1401.48 220.726Z" fill="#0E3572"/>
<path d="M333.39 0.0784059C329.593 11.4646 325.56 22.291 322.387 33.3525C318.731 46.0934 315.889 59.0358 312.564 71.8551C311.88 74.4973 310.924 77.1395 309.639 79.5691C307.516 83.566 303.554 85.4357 299.662 84.7527C295.77 84.0586 293.4 81.282 292.386 76.8149C292.115 75.6169 291.089 74.0047 290.004 73.6241C284.213 71.5864 278.352 69.6719 272.385 68.1605C269 67.2984 265.58 68.4068 263.363 71.0042C260.073 74.8444 257.113 78.9533 254.212 83.0734C253.504 84.081 253.292 85.6036 253.386 86.8464C253.563 89.0296 252.455 89.97 250.509 90.597C246.181 91.9965 241.157 90.1268 239.435 85.7268C238.444 83.1853 238.079 80.14 238.444 77.4418C240.249 64.1747 251.865 52.1728 264.849 49.8216C270.769 48.7468 276.595 49.497 282.315 51.042C287.22 52.3743 292.067 53.9305 297.292 55.4979C297.846 53.6506 298.388 51.8257 298.943 50.0008C303.684 34.3825 308.448 18.7755 313.118 3.13488C313.814 0.817333 314.899 -0.111924 317.588 0.0112307C322.835 0.25754 328.083 0.0784059 333.39 0.0784059Z" fill="#0E3572"/>
<path d="M731.794 252.903C728.15 251 726.298 248.19 726.628 244.674C726.923 241.506 727.796 238.259 729.093 235.315C731.747 229.291 736.181 224.443 741.523 220.39C782.115 189.546 830.844 207.381 850.019 241.674C854.442 249.578 855.951 257.874 851.422 266.215C850.09 268.656 848.05 270.973 845.774 272.675C842.755 274.937 839.641 273.548 838.804 269.955C838.438 268.376 838.226 266.741 838.167 265.118C837.931 259.139 835.254 254.202 831.315 249.69C819.381 236.031 804.451 227.153 785.983 223.917C776.596 222.271 767.397 223.201 758.599 226.783C750.462 230.097 743.068 234.598 736.782 240.532C733.657 243.476 730.638 246.667 732.23 251.493C732.301 251.784 732.006 252.198 731.794 252.903Z" fill="#0E3572"/>
<path d="M1301.34 570.463C1302.99 566.387 1304.66 562.368 1306.26 558.315C1308.52 552.549 1308.43 546.795 1306.19 541.029C1304.71 537.222 1301.98 534.726 1297.88 533.584C1285.38 530.102 1273.65 531.636 1263.01 538.834C1259.47 541.23 1255.7 543.671 1255.95 548.922C1256.08 551.654 1249.58 553.927 1246.25 552.695C1242.82 551.419 1240.37 548.149 1241 544.108C1241.56 540.581 1242.67 536.875 1244.58 533.841C1251.06 523.53 1261.44 518.626 1273.48 516.432C1275.26 516.107 1277.09 515.961 1278.91 515.838C1282.38 515.603 1284.38 512.737 1282.5 509.994C1276.57 501.373 1268.93 495.562 1257.19 499.436C1250.85 501.53 1245.27 505.628 1239.24 508.606C1237.69 509.367 1235.2 510.061 1234 509.401C1232.33 508.483 1230.62 506.344 1230.39 504.553C1229.74 499.302 1232.47 495.126 1236.62 491.834C1242.42 487.21 1249.33 485.038 1256.75 484.714C1261.09 484.523 1265.46 485.318 1269.84 485.542C1271.29 485.621 1272.76 485.296 1274.21 484.49C1274.41 484.557 1274.67 484.557 1274.82 484.691C1280.05 489.158 1285.68 493.29 1290.39 498.205C1295.54 503.556 1298.41 509.882 1293.76 517.327C1303.63 520.037 1312.94 523.16 1317.42 532.766C1320.29 538.913 1321.14 545.317 1319.22 551.833C1316.48 561.092 1308.13 571.694 1301.34 570.463Z" fill="#0E3572"/>
<path d="M1388.77 0.0786312C1397.03 0.0786312 1405.27 0.000260111 1413.53 0.13461C1415.6 0.168198 1417.82 0.582445 1419.68 1.39974C1428.03 5.0384 1435.68 9.79664 1441.85 16.2679C1444.81 19.3691 1447.14 23.1533 1449.02 26.9599C1450.08 29.0983 1450.17 31.9533 1449.82 34.3716C1449.25 38.514 1446.24 40.1374 1442.15 38.6596C1439.38 37.6632 1436.79 36.1405 1434.2 34.7298C1426.67 30.6545 1419.47 25.9075 1411.62 22.5151C1393.05 14.4877 1374.93 15.6633 1357.96 26.8479C1355.08 28.74 1352.32 30.9904 1350.09 33.5319C1348.57 35.2672 1347.71 37.7527 1347.23 40.0255C1346.64 42.7573 1345.89 43.485 1342.98 42.6677C1336.68 40.8988 1332.13 34.8194 1333.47 28.5273C1334.34 24.4856 1336.23 20.3655 1338.71 16.9508C1343.77 9.98697 1350.76 4.87046 1358.78 1.14224C1360.26 0.459291 1362.05 0.145806 1363.7 0.123415C1372.05 0.0338477 1380.41 0.0786312 1388.77 0.0786312Z" fill="#0E3572"/>
<path d="M16.0967 94.5266C16.191 81.8977 18.4435 69.739 23.9273 58.252C33.232 38.816 48.5629 25.784 70.3565 20.0294C73.3519 19.2456 76.7011 19.4696 79.8734 19.6039C81.0881 19.6599 82.4915 20.5668 83.376 21.4736C84.8501 22.9515 84.284 24.1047 82.2792 24.9108C79.8616 25.8848 77.2554 26.7469 75.2742 28.2919C69.9083 32.4904 64.6486 36.8456 59.672 41.4471C45.0132 55.0612 39.1875 72.3476 37.5482 91.1903C37.0765 96.5419 37.1708 101.961 37.3595 107.335C37.5718 113.347 39.5884 118.9 43.0084 123.983C43.9283 125.349 44.8717 126.726 45.6147 128.181C46.8529 130.611 47.1006 133.13 45.2491 135.38C43.4212 137.608 40.8031 138.123 38.0082 137.698C33.3263 136.981 29.753 134.451 26.7222 131.16C21.6866 125.685 19.1393 119.135 18.0543 112.093C17.1581 106.271 16.7335 100.382 16.0967 94.5266Z" fill="#0E3572"/>
<path d="M1120.27 135.862C1125.01 134.608 1129.54 132.974 1134.23 132.268C1140.87 131.272 1147.03 132.951 1152.12 137.284C1156.54 141.046 1157.56 146.397 1155.06 151.469C1150.47 160.795 1135.98 168.464 1125.24 167.244C1113.3 165.889 1104.39 157.157 1102.71 145.099C1101.15 133.948 1104.04 123.491 1108.49 113.336C1113.63 101.625 1120.7 91.1234 1131.44 83.3311C1134.44 81.1479 1138.3 79.5245 1142.01 78.8304C1146.48 77.9907 1150.27 80.8568 1151.39 84.585C1152.38 87.9102 1150.39 92.1982 1146.83 94.2471C1146.21 94.5941 1145.28 95.0308 1144.75 94.8292C1141.93 93.7208 1140.62 95.6018 1139.15 97.1692C1129.18 107.76 1123.41 120.289 1120.24 134.026C1120.15 134.418 1120.13 134.832 1120.12 135.235C1120.1 135.414 1120.2 135.605 1120.27 135.862ZM1141.13 148.782C1134.18 147.237 1128.21 148.782 1122.31 151.547C1126.79 157.448 1136.26 156.171 1141.13 148.782Z" fill="#0E3572"/>
<path d="M243.338 464.751C232.052 464.091 221.297 461.773 210.813 458.448C183.5 449.783 160.362 435.374 143.25 413.049C133.91 400.868 127.92 387.422 128.061 372.072C128.096 368.59 128.993 365.019 130.078 361.66C131.009 358.76 134.005 357.45 136.67 358.021C139.394 358.615 141.552 360.921 141.14 363.922C138.71 381.98 146.918 396.502 158.499 409.556C175.917 429.193 197.51 442.998 224.163 448.842C234.057 451.014 244.116 451.104 254.164 449.458C255.214 449.29 256.287 449.156 257.348 449.133C261.393 449.033 264.365 450.992 265.084 454.194C265.816 457.407 264.082 460.855 260.261 461.807C254.754 463.184 248.999 463.811 243.338 464.751Z" fill="#0E3572"/>
<path d="M610.242 0.179871C616.764 0.179871 622.837 0.179871 629.371 0.179871C629.371 1.445 629.394 2.62057 629.371 3.79614C629.088 17.3767 631.729 30.4983 636.541 43.228C643.204 60.8727 656.471 73.3001 672.356 83.5555C678.902 87.7875 685.871 91.4374 692.287 95.8262C694.917 97.6175 697.063 100.428 698.596 103.193C700.105 105.914 698.879 106.63 695.659 106.91C688.077 107.593 681.614 104.895 675.258 101.603C669.337 98.5356 663.323 95.6246 657.533 92.3666C633.003 78.5285 618.203 58.208 612.825 31.6067C610.962 22.3813 609.724 13.1447 610.066 3.75135C610.101 2.65416 610.172 1.55696 610.242 0.179871Z" fill="#0E3572"/>
<path d="M22.5496 391.497C17.0658 391.609 11.4641 389.056 7.0653 384.388C5.35531 382.574 3.69249 380.111 3.38587 377.782C1.07444 359.914 10.2376 344.62 29.4131 339.649C35.6398 338.037 41.7486 338.988 47.48 341.81C56.7965 346.378 60.1458 353.7 58.7188 363.541C56.431 379.417 40.4278 390.904 22.5496 391.497Z" fill="#0E3572"/>
<path d="M1142.77 543.918C1142.77 541.477 1142.54 539.014 1142.82 536.607C1143.34 532.095 1146.08 529.397 1150.71 528.02C1163.57 524.179 1176.37 520.115 1189.21 516.208C1191.75 515.435 1194.38 514.484 1196.96 514.484C1198.63 514.484 1201.1 515.738 1201.75 517.07C1202.39 518.413 1201.88 521.134 1200.76 522.209C1198.63 524.246 1195.91 525.971 1193.1 527.057C1183.88 530.628 1174.55 533.931 1165.19 537.144C1162.77 537.973 1162.39 538.958 1162.71 541.343C1163.97 550.915 1165.54 560.51 1165.75 570.127C1166.02 583.025 1165.31 595.945 1164.65 608.831C1164.49 611.854 1163.43 615.135 1161.73 617.676C1160.58 619.411 1157.71 620.744 1155.45 621.035C1152.69 621.382 1150.86 619.098 1149.88 616.702C1149.22 615.112 1148.69 613.399 1148.52 611.709C1146.35 589.127 1144.27 566.545 1142.16 543.962C1142.34 543.94 1142.56 543.929 1142.77 543.918Z" fill="#0E3572"/>
<path d="M731.593 0.0899025C734.494 0.0899025 737.985 -0.0220562 741.464 0.168274C742.277 0.213057 743.374 1.10873 743.751 1.87005C746.252 6.80742 748.61 11.8008 750.957 16.7941C751.511 17.9809 751.877 19.2572 752.419 20.7463C753.245 20.3208 753.905 20.0857 754.448 19.6939C763.092 13.5921 772.904 9.90868 783.187 7.22167C788.931 5.72142 793.66 7.22167 796.891 11.9575C800.724 17.589 804.32 23.3549 807.894 29.1432C809.344 31.4831 810.807 32.2332 813.826 31.3712C819.545 29.7366 825.477 28.7401 831.315 27.4638C832.341 27.2399 833.355 26.9824 833.791 26.8816C832.081 17.9921 830.418 9.34888 828.685 0.325016C834.546 0.325016 839.523 0.325016 845.172 0.325016C847.424 9.3153 849.842 18.5295 851.953 27.7997C852.33 29.4567 851.74 31.4719 851.092 33.1401C849.747 36.5884 846.587 37.5513 842.966 36.2973C841.374 35.7375 839.393 35.4129 837.801 35.7823C831.786 37.2042 825.831 38.8724 819.934 40.6637C818.166 41.2011 816.491 42.2871 815.017 43.4067C811.42 46.1161 807.658 46.4296 804.344 43.25C800.971 40.0368 798.082 36.3421 795.228 32.6699C792.693 29.4007 790.452 25.93 788.176 22.4816C787.008 20.7127 785.581 20.1753 783.612 21.1045C776.336 24.5081 768.741 27.419 761.877 31.4383C751.535 37.5065 745.709 35.9727 741.475 25.1127C738.256 16.7941 734.918 8.498 731.593 0.0899025Z" fill="#0E3572"/>
<path d="M1394.54 450.757C1394.22 462.692 1389.16 475.197 1378.03 485.139C1361.55 499.851 1336.73 498.608 1323.54 482.262C1321.02 479.127 1319.37 475.197 1318 471.413C1316.67 467.752 1318.15 464.449 1320.76 463.061C1323.33 461.706 1326.49 462.333 1329.48 465.043C1331.87 467.226 1333.99 469.667 1336.38 471.85C1347.66 482.24 1362.01 481.501 1371.41 469.532C1380.88 457.474 1382.37 444.129 1375.89 430.38C1374.41 427.212 1371.5 424.39 1368.61 422.118C1363.92 418.445 1362.58 414.482 1365.75 411.034C1368.84 407.664 1374.28 407.933 1378.28 411.65C1388.87 421.513 1394.53 434.265 1394.54 450.757Z" fill="#0E3572"/>
<path d="M634.489 536.069C629.347 535.476 625.278 532.621 624.181 528.456C623.061 524.179 625.314 519.723 629.925 517.641C651.671 507.833 673.465 498.115 695.223 488.33C704.999 483.93 714.669 479.329 724.505 475.063C726.922 474.011 729.835 473.451 732.477 473.529C735.685 473.63 737.996 475.679 738.88 478.724C739.777 481.78 738.704 484.355 736.227 486.382C735.26 487.166 734.14 487.804 733.008 488.375C710.565 499.627 688.135 510.912 665.634 522.052C659.372 525.153 652.874 527.807 646.506 530.706C644.878 531.445 643.38 532.475 641.741 533.192C639.371 534.222 636.918 535.106 634.489 536.069Z" fill="#0E3572"/>
<path d="M263.209 16.1779C267.231 17.1072 271.488 17.5438 275.214 19.1112C277.974 20.2756 280.627 22.526 282.314 24.9331C285.769 29.8705 283.658 35.8155 277.868 38.0658C275.25 39.0847 272.29 39.678 269.459 39.79C242.465 40.82 228.656 61.0174 222.099 77.9455C221.308 79.9831 222.287 82.6366 222.452 84.9989C222.511 85.7602 222.912 86.947 222.582 87.1709C221.957 87.6075 220.86 87.7083 220.035 87.5627C214.681 86.5999 211.461 83.2411 209.504 78.6508C207.027 72.8178 207.475 66.884 209.221 60.995C212.924 48.4444 219.905 37.7635 229.976 28.93C239.305 20.7346 250.508 17.0512 263.209 16.1779Z" fill="#0E3572"/>
<path d="M517.396 158.97C517.207 152.756 519.483 147.17 522.42 141.829C524.342 138.325 527.774 136.377 531.606 135.078C550.499 128.663 573.554 143.9 573.707 162.967C573.719 164.971 573.436 167.042 572.882 168.979C569.368 181.116 552.964 191.125 539.838 189.188C532.762 188.135 527.302 184.62 523.493 178.921C519.436 172.831 517.525 166.124 517.396 158.97ZM533.529 157.884C533.257 157.974 532.986 158.063 532.715 158.142C534.13 162.217 535.298 166.404 537.066 170.345C538.281 173.054 540.97 174.364 544.213 173.816C548.671 173.054 552.716 171.252 555.24 167.669C556.454 165.945 557.268 163.124 556.655 161.265C555.074 156.473 550.687 154.122 545.876 152.577C544.52 152.141 543.01 152.017 541.748 151.424C536.831 149.118 534.26 150.36 533.717 155.455C533.647 156.261 533.588 157.078 533.529 157.884Z" fill="#0E3572"/>
<path d="M537.149 72.1239C537.09 83.3085 534.166 92.7914 526.83 100.729C512.62 116.101 490.024 113.302 480.389 95.0306C472.842 80.7111 475.778 61.3758 487.276 49.7769C501.794 35.1439 524.024 38.8161 532.491 57.211C533.257 58.8679 534.165 60.4913 535.203 62.014C537.515 65.4063 537.703 69.0786 537.149 72.1239ZM487.89 78.4831C488.444 80.4536 489.01 84.4617 490.673 87.9996C495.897 99.1171 507.855 100.864 516.7 92.0749C525.509 83.3309 525.84 72.3702 522.75 62.1147C519.625 51.7474 507.159 47.2578 496.982 55.9794C490.649 61.4206 488.255 68.5748 487.89 78.4831Z" fill="#0E3572"/>
<path d="M766.04 271.925C766.925 267.481 767.785 262.398 769 257.404C769.837 253.956 773.411 251.437 777.491 251.616C780.31 251.739 783.199 252.456 785.852 253.43C794.945 256.755 803.967 260.248 812.941 263.831C815.878 265.006 818.885 266.327 821.326 268.197C826.373 272.071 825.442 277.915 819.746 280.871C818.366 281.587 817.21 282.696 815.937 283.603C809.887 287.935 803.931 292.391 797.74 296.523C795.794 297.821 793.247 298.459 790.876 299.03C779.708 301.751 770.604 296.623 768.045 285.954C766.995 281.621 766.748 277.12 766.04 271.925ZM783.765 272.563C784.661 276.963 785.263 280.736 786.277 284.397C786.489 285.17 788.223 286.155 789.166 286.066C795.358 285.539 800.606 282.774 806.266 279.315C798.577 277.008 791.607 274.926 783.765 272.563Z" fill="#0E3572"/>
<path d="M745.781 41.6038C754.673 41.8501 762.833 43.5967 770.086 48.2206C779.45 54.1992 780.995 63.1559 773.907 71.4744C768.152 78.2255 760.439 81.7074 751.359 82.3008C747.326 82.5695 743.257 82.5471 739.2 82.4911C729.683 82.3456 721.923 76.3782 720.544 68.2612C720.426 67.5558 720.272 66.8393 720.343 66.1452C721.44 55.9905 729.884 40.07 745.781 41.6038ZM748.163 68.3843C748.34 68.1828 748.517 67.9813 748.694 67.7798C749.637 67.6118 750.592 67.5223 751.512 67.2648C754.225 66.5034 757.22 65.5406 757.562 62.5737C757.916 59.506 754.979 58.2073 752.526 56.9534C751.783 56.5727 750.946 56.36 750.132 56.1473C747.668 55.4867 745.439 55.845 743.788 57.8154C742.113 59.8195 740.934 62.305 742.608 64.5106C743.894 66.1899 746.276 67.1192 748.163 68.3843Z" fill="#0E3572"/>
<path d="M1025.33 0.358459C1026.04 5.3854 1027.08 10.4795 1027.39 15.6072C1027.66 20.108 1024.15 22.9293 1018.05 23.9705C1014.99 24.4855 1011.95 25.0677 1008.87 25.3812C999.012 26.3777 990.002 29.6692 981.464 34.3267C980.167 35.0321 978.752 35.5359 977.372 36.0733C972.655 37.9206 969.73 36.0845 967.867 31.2591C967.253 29.6804 967.053 27.8443 967.147 26.1537C967.631 17.6449 968.268 9.15841 968.869 0.369655C987.384 0.358459 1006.13 0.358459 1025.33 0.358459Z" fill="#0E3572"/>
<path d="M1111.21 586.54C1111.21 594.601 1111.6 601.431 1111.06 608.193C1110.75 611.932 1109.14 615.661 1107.6 619.187C1106.4 621.953 1104.34 622.356 1102.44 620.027C1099.47 616.377 1096.09 612.537 1094.76 608.26C1089.62 591.791 1085.18 575.098 1084.44 557.789C1084.3 554.565 1084.61 551.262 1085.24 548.094C1086.2 543.313 1089.75 540.357 1094.35 539.876C1098.91 539.394 1103.01 541.611 1105.16 546.022C1108.91 553.748 1109.65 562.089 1110.35 570.407C1110.83 576.195 1110.98 581.995 1111.21 586.54Z" fill="#0E3572"/>
<path d="M1179.76 594.209C1179.76 584.458 1179.74 574.695 1179.78 564.943C1179.79 561.898 1179.75 558.819 1180.2 555.819C1180.77 551.967 1183.77 549.683 1187.44 549.773C1191.17 549.863 1193.83 552.258 1194.27 556.199C1196.97 580.707 1197.63 605.293 1197.19 629.902C1197.12 633.776 1195.9 637.717 1194.71 641.478C1193.54 645.162 1190.96 646.886 1188.03 646.606C1184.36 646.248 1182.94 643.706 1182.5 640.751C1181.72 635.522 1180.93 630.271 1180.8 625.009C1180.54 614.743 1180.72 604.476 1180.72 594.209C1180.41 594.209 1180.09 594.209 1179.76 594.209Z" fill="#0E3572"/>
<path d="M1127.93 202.343C1125.79 204.985 1124.03 207.135 1122.27 209.295C1117.61 214.972 1112.2 219.853 1105.55 223.369C1094.94 228.978 1086.6 225.809 1083.25 214.759C1080.82 206.754 1080.49 198.514 1081.21 190.251C1081.56 186.265 1083.97 184.149 1087.46 184.25C1090.81 184.351 1092.84 186.389 1093.2 190.419C1093.76 196.599 1093.91 202.813 1094.64 208.971C1095.54 216.449 1097.12 217.054 1103.76 213.068C1108.82 210.034 1112.98 206.161 1116.05 201.234C1117.57 198.794 1119.11 196.308 1121 194.125C1126.34 187.956 1133.44 188.281 1137.99 194.976C1140.02 197.943 1141.39 201.313 1143.22 204.414C1144.47 206.519 1145.88 208.579 1147.45 210.471C1148.83 212.139 1150.75 212.296 1152.6 211.064C1155.36 209.239 1157.78 207.191 1158.48 203.776C1159.06 200.954 1161.14 199.51 1163.69 199.936C1166.46 200.395 1167.84 202.22 1167.65 204.705C1167.45 207.56 1167.48 210.616 1163.97 212.217C1162.94 212.688 1162.38 214.087 1161.56 215.016C1154.37 223.156 1145.15 223.637 1137.51 215.923C1134.61 213.001 1132.49 209.385 1130.07 206.037C1129.36 205.052 1128.85 203.944 1127.93 202.343Z" fill="#0E3572"/>
<path d="M892.509 321.814C892.627 317.112 893.794 311.693 897.521 307.036C899.927 304.024 902.922 301.818 906.991 301.225C913.029 300.352 917.274 304.696 915.883 310.316C915.741 310.909 915.541 311.492 915.328 312.063C910.729 324.501 915.034 338.294 926.048 346.434C929.268 348.807 932.747 350.263 936.969 350.252C941.238 350.24 943.856 352.267 944.292 355.323C944.705 358.246 942.547 360.933 938.608 362.119C932.747 363.888 926.921 363.217 921.248 361.347C905.092 356.04 892.497 339.078 892.509 321.814Z" fill="#0E3572"/>
<path d="M549.733 0.213501C557.351 0.213501 564.379 0.213501 571.738 0.213501C571.514 2.04962 571.326 3.71781 571.102 5.38599C569.698 15.6638 570.795 25.852 571.903 36.0851C572.54 41.9069 572.387 47.8295 572.281 53.6962C572.245 55.6554 571.467 57.6931 570.653 59.5516C568.755 63.9292 564.096 65.4966 560.228 62.5297C557.516 60.4585 555.169 57.4916 553.742 54.4575C547.539 41.3583 545.982 27.4978 547.492 13.3015C547.964 8.97987 548.954 4.70304 549.733 0.213501Z" fill="#0E3572"/>
<path d="M1237.28 0.236023C1243.71 0.236023 1249.87 0.236023 1256.27 0.236023C1251.9 18.4629 1246.16 35.8053 1231.08 48.8037C1225.86 53.2932 1220.13 57.0662 1213.39 59.0591C1210.61 59.8764 1207.48 60.1003 1204.56 59.8764C1200.8 59.5853 1198.16 56.8535 1197.58 53.6515C1197.01 50.4607 1198.7 47.4154 1202.18 45.6688C1204.16 44.6724 1206.32 43.9895 1208.29 42.9594C1224.2 34.7081 1233.63 22.0904 1236.48 5.06144C1236.74 3.56119 1236.97 2.04975 1237.28 0.236023Z" fill="#0E3572"/>
<path d="M146.41 159.205C135.761 158.589 124.192 155.925 113.732 149.801C111.22 148.334 108.955 146.352 106.951 144.281C104.887 142.165 104.451 139.489 106.432 137.026C108.437 134.53 111.173 134.53 113.979 135.627C115.064 136.052 116.09 136.623 117.081 137.217C124.51 141.65 132.624 144.427 141.127 146.375C149.582 148.323 157.46 147.125 165.02 143.173C172.496 139.254 178.299 133.611 183.511 127.342C186.035 124.308 188.37 121.128 190.929 118.139C193.346 115.317 196 114.623 198.5 115.866C201.106 117.165 202.238 119.975 200.929 123.3C199.856 126.032 198.677 128.999 196.66 131.07C190.41 137.452 184.16 143.956 177.107 149.487C168.829 155.981 158.828 159.116 146.41 159.205Z" fill="#0E3572"/>
<path d="M1076.16 309.073C1083.45 308.278 1090.14 307.618 1096.8 306.8C1105.18 305.782 1113.56 304.584 1121.94 303.576C1124.16 303.307 1126.46 303.184 1128.65 303.442C1129.83 303.576 1131.67 304.561 1131.8 305.378C1131.98 306.476 1131.12 308.133 1130.15 308.894C1128.71 310.014 1126.86 310.909 1125.03 311.301C1106.87 315.197 1088.7 319.004 1070.5 322.71C1068.7 323.079 1066.62 322.844 1064.81 322.419C1059.89 321.277 1057.32 317.212 1058.81 312.633C1060.05 308.86 1061.89 305.278 1063.4 301.583C1066.57 293.813 1069.73 286.043 1072.84 278.251C1073.87 275.642 1075.27 273.459 1078.39 272.888C1083.37 271.981 1087.21 275.877 1085.82 281.106C1084 287.891 1081.52 294.507 1079.25 301.169C1078.39 303.654 1077.34 306.073 1076.16 309.073Z" fill="#0E3572"/>
<path d="M148.027 507.565C148.287 503.019 150.303 499.436 153.723 496.772C157.014 494.197 160.552 491.857 164.196 489.752C177.203 482.24 191.025 476.552 206.108 474.078C209.54 473.518 213.172 473.473 216.651 473.82C221.286 474.279 224.269 477.582 224.033 481.288C223.833 484.389 221.97 486.36 218.904 487.244C197.617 493.391 177.534 502.347 157.367 511.103C156.589 511.438 155.811 511.797 155.091 512.233C151.046 514.708 149.407 514.036 148.346 509.457C148.192 508.763 148.11 508.046 148.027 507.565Z" fill="#0E3572"/>
<path d="M1091.02 382.529C1088.91 381.981 1085.55 381.544 1082.6 380.268C1073.7 376.427 1070.91 366.732 1076.26 358.951C1078.27 356.006 1080.17 352.95 1082.52 350.24C1087.64 344.329 1094.52 342.627 1102.19 343.937C1114.76 346.087 1121.07 358.29 1115.29 369.284C1110.6 378.23 1102.22 381.656 1091.02 382.529ZM1096.6 361.167C1093.76 361.369 1091.39 361.235 1089.18 361.761C1086.6 362.388 1086.83 364.761 1087.4 366.485C1087.63 367.157 1089.88 367.84 1090.89 367.549C1093.72 366.698 1095.56 364.66 1096.6 361.167Z" fill="#0E3572"/>
<path d="M1213.42 145.961C1213.29 138.448 1214.66 131.16 1218.06 124.375C1219.6 121.296 1221.56 118.24 1224.02 115.81C1225.9 113.952 1228.73 112.496 1231.38 111.925C1236.37 110.85 1239.74 114.747 1238.88 119.382C1237.3 127.857 1235.49 136.355 1234.9 144.908C1234.48 150.976 1235.82 157.179 1236.61 163.292C1237.01 166.382 1238.53 168.991 1241.25 171.017C1243.63 172.797 1243.3 174.107 1240.49 175.103C1233.68 177.511 1227.62 176.156 1222.42 171.498C1215.99 165.744 1214.34 158.097 1213.46 150.215C1213.29 148.816 1213.42 147.382 1213.42 145.961Z" fill="#0E3572"/>
<path d="M540.311 440.076C540.676 449.324 539.591 458.359 537.032 467.282C536.513 469.095 535.57 469.711 534.214 468.827C532.433 467.662 530.334 466.252 529.603 464.483C527.409 459.221 525.463 453.824 524.072 448.327C521.1 436.672 518.623 424.917 515.77 413.228C514.366 407.451 516.029 403.118 520.864 401.193C525.805 399.233 531.773 401.025 534.131 406.13C536.337 410.899 537.87 416.094 538.742 421.256C539.78 427.447 539.827 433.795 540.311 440.076Z" fill="#0E3572"/>
<path d="M950.024 415.333C951.026 420.271 949.682 422.756 946.108 423.786C942.452 424.838 938.242 423.394 936.521 419.543C935.035 416.184 933.785 412.299 934.056 408.75C934.999 395.998 940.212 384.869 950.943 376.775C954.434 374.132 958.833 372.363 963.09 370.897C966.817 369.609 970.744 370.415 974.105 372.632C976.57 374.256 977.891 376.528 977.324 379.45C976.758 382.361 974.742 384.365 971.77 384.645C967.312 385.071 964.494 387.534 962.312 390.714C958.762 395.875 955.295 401.126 952.335 406.6C950.908 409.198 950.755 412.4 950.024 415.333Z" fill="#0E3572"/>
<path d="M188.511 0.291199C182.839 10.4123 180.763 21.1043 180.091 32.1546C179.832 36.3755 176.766 39.5439 172.756 40.4508C168.676 41.3688 164.064 39.9358 162.331 36.1851C156.883 24.4071 151.847 12.4499 146.54 0.291199C160.562 0.291199 174.301 0.291199 188.511 0.291199Z" fill="#0E3572"/>
<path d="M1114.74 278.408C1123.51 277.658 1131.8 276.963 1140.09 276.236C1142.86 275.989 1145.61 275.53 1148.38 275.418C1150.97 275.318 1154.57 274.612 1155.23 277.691C1155.91 280.86 1152.3 281.531 1149.8 282.125C1144.51 283.379 1139.15 284.319 1133.83 285.439C1125.48 287.196 1117.14 288.999 1108.81 290.801C1105.56 291.496 1102.55 291.193 1100.29 288.685C1098.03 286.189 1098.53 283.367 1099.82 280.658C1105.01 269.742 1110.22 258.848 1115.49 247.966C1116.11 246.701 1116.98 245.447 1118.04 244.507C1120.11 242.659 1122.64 242.29 1125.13 243.723C1127.53 245.1 1128.25 247.328 1127.44 249.802C1126.74 251.918 1125.74 253.956 1124.8 255.994C1121.87 262.308 1118.89 268.611 1115.96 274.926C1115.49 275.911 1115.22 276.975 1114.74 278.408Z" fill="#0E3572"/>
<path d="M1138.28 0.101066C1144.42 0.101066 1149.75 0.0114991 1155.07 0.190633C1155.93 0.224221 1157.05 1.29902 1157.53 2.16111C1159.67 6.02368 1161.41 10.0878 1163.65 13.8944C1169.17 23.2989 1174.89 32.6027 1180.51 41.9736C1181.24 43.2052 1182.26 44.5263 1182.3 45.825C1182.35 47.6947 1182.18 49.9898 1181.08 51.3781C1179.59 53.2814 1176.97 52.7888 1174.88 51.7364C1173.48 51.0311 1172.2 50.057 1171.01 49.0494C1163.39 42.6566 1157.37 35.0098 1152.23 26.7472C1148.15 20.1864 1144.3 13.4913 1140.55 6.75141C1139.49 4.8817 1139.12 2.67612 1138.28 0.101066Z" fill="#0E3572"/>
<path d="M886.659 244.193C885.987 253.396 883.11 261.166 876.446 267.212C874.571 268.914 871.753 270.257 869.206 270.604C864.724 271.209 862.094 267.201 864.076 263.305C865.609 260.282 867.496 257.427 868.97 254.381C872.46 247.205 872.201 240.163 867.614 233.445C864.819 229.347 861.776 225.407 859.052 221.275C857.813 219.383 855.478 216.83 857.778 215.05C859.464 213.752 862.684 214.076 865.231 214.054C866.399 214.043 867.72 214.759 868.734 215.465C879.194 222.731 885.586 232.281 886.659 244.193Z" fill="#0E3572"/>
<path d="M546.961 447.118C546.961 443.065 546.666 438.99 547.032 434.959C547.515 429.641 551.277 426.238 556.207 426.014C561.195 425.79 565.582 428.757 566.266 434.008C567.328 442.237 567.752 450.544 568.094 458.84C568.188 461.057 567.269 463.453 566.266 465.535C564.639 468.917 561.726 470.887 557.645 470.853C553.565 470.82 550.629 468.827 549.166 465.367C548.07 462.77 547.409 459.926 547.114 457.138C546.772 453.824 547.032 450.455 547.032 447.107C547.008 447.118 546.985 447.118 546.961 447.118Z" fill="#0E3572"/>
<path d="M1412.1 509.222C1410.15 508.673 1406.39 508.08 1403.06 506.591C1396.43 503.635 1394.08 496.447 1397.63 490.334C1399.36 487.345 1401.52 484.479 1403.97 481.971C1409.28 476.53 1417.04 476.183 1423.36 480.751C1430.2 485.699 1431.67 491.812 1427.51 498.608C1426.18 500.791 1424.62 502.885 1422.98 504.878C1420.62 507.744 1417.35 509.199 1412.1 509.222Z" fill="#0E3572"/>
<path d="M268.162 382.406C266.971 388.049 267.49 394.15 269.872 400.263C271.228 403.745 267.997 406.343 264.117 405.436C254.683 403.242 245.26 401.047 235.814 398.898C233.113 398.282 230.519 397.554 229.976 394.509C229.446 391.486 231.521 389.806 233.915 388.474C241.085 384.488 248.267 380.525 255.52 376.663C256.97 375.89 258.716 375.453 260.379 375.196C265.072 374.468 268.304 377.245 268.162 382.406Z" fill="#0E3572"/>
<path d="M1060.31 225.686C1066.57 225.653 1070.3 230.478 1068.4 235.74C1067.65 237.834 1066.41 239.782 1065.29 241.741C1061.16 248.985 1057.16 256.296 1052.75 263.372C1051.42 265.499 1049.22 267.604 1046.88 268.6C1042.74 270.358 1038.8 267.279 1039.1 262.957C1039.18 261.659 1039.53 260.326 1040.06 259.128C1044.1 249.937 1048.18 240.767 1052.3 231.609C1053.89 228.071 1056.55 225.787 1060.31 225.686Z" fill="#0E3572"/>
<path d="M1297.23 338.955C1303.65 338.272 1310.07 337.488 1316.49 336.962C1317.81 336.85 1319.72 337.309 1320.43 338.182C1321.12 339.022 1321.1 341.015 1320.51 342.045C1316.45 349.166 1314.89 356.991 1313.2 364.773C1312.62 367.415 1311.3 369.318 1308.53 370.001C1305.5 370.751 1302.86 369.822 1301.29 367.325C1299.66 364.728 1298.45 361.884 1297.16 359.096C1295.03 354.45 1293.06 349.748 1290.91 345.113C1289.01 341.015 1291.81 337.802 1297.13 338.082C1297.16 338.362 1297.2 338.653 1297.23 338.955Z" fill="#0E3572"/>
<path d="M1000.21 491.431C996.087 491.42 993.327 489.573 992.691 486.751C992.066 483.93 993.658 481.053 997.184 479.888C1002.73 478.041 1008.39 476.53 1014.05 474.996C1020.11 473.35 1026.19 471.771 1032.32 470.327C1034.03 469.924 1035.96 469.79 1037.68 470.103C1040.66 470.641 1042.6 472.533 1043.05 475.466C1043.47 478.254 1042.32 480.594 1039.73 481.87C1037.79 482.833 1035.53 483.325 1033.38 483.84C1023.22 486.281 1013.05 488.655 1002.88 491.028C1001.85 491.263 1000.78 491.342 1000.21 491.431Z" fill="#0E3572"/>
<path d="M550.004 93.8661C556.703 93.8997 562.682 97.4376 564.639 102.521C566.632 107.704 564.427 114.142 559.203 118.34C554.203 122.371 547.292 123.076 541.82 120.064C540.994 119.605 540.169 119.079 539.52 118.419C534.496 113.336 536.065 107.682 538.258 102.14C540.523 96.3964 544.379 93.8438 550.004 93.8661ZM547.292 110.268C547.646 110.447 547.988 110.626 548.341 110.794C549.049 109.865 550.264 108.958 550.275 108.018C550.287 107.368 548.636 106.708 547.304 105.756C547.292 107.738 547.292 109.003 547.292 110.268Z" fill="#0E3572"/>
<path d="M445.859 50.6614C451.992 50.639 454.35 54.0873 452.393 58.0954C451.897 59.1031 451.166 59.9987 450.6 60.984C447.227 66.8506 443.807 72.6949 440.553 78.6175C439.22 81.0358 437.604 82.9615 434.538 82.9167C431.649 82.8719 429.833 81.1589 428.842 78.6958C426.743 73.501 424.608 68.3173 422.674 63.0664C421.589 60.1219 422.78 57.0654 426.012 56.0466C432.993 53.841 440.163 52.184 445.859 50.6614Z" fill="#0E3572"/>
<path d="M1280.21 112.463C1281.76 105.017 1283.2 97.4489 1284.99 89.9701C1285.47 87.9772 1286.81 86.0515 1288.17 84.4058C1289.92 82.2897 1292.49 81.7971 1295.15 82.7488C1297.75 83.678 1298.93 85.7269 1298.8 88.2907C1298.69 90.5187 1298.37 92.7467 1297.91 94.9299C1295.44 106.876 1292.88 118.811 1290.42 130.757C1289.99 132.794 1288.67 133.242 1287.28 132.078C1285.74 130.779 1284.06 129.122 1283.53 127.331C1282.15 122.595 1281.34 117.702 1280.21 112.463Z" fill="#0E3572"/>
<path d="M470 153.91C469.776 157.336 468.396 159.709 465.318 160.963C462.358 162.183 458.738 161.456 456.615 158.892C455.176 157.168 454.091 155.141 453.1 153.137C450.164 147.17 447.192 141.214 444.574 135.123C443.678 133.041 443.348 130.555 443.501 128.294C443.819 123.625 448.737 121.33 452.888 123.838C454.551 124.834 456.214 126.267 457.11 127.89C461.367 135.604 465.377 143.43 469.398 151.256C469.847 152.152 469.847 153.238 470 153.91Z" fill="#0E3572"/>
<path d="M24.1641 19.044C27.5133 18.585 30.3083 18.1372 33.1268 17.8237C35.4146 17.5662 37.8558 17.4542 38.7639 20.0628C39.5894 22.414 38.0563 23.9814 36.0043 24.9442C28.2209 28.6389 19.9422 30.9004 11.3333 31.8409C7.64204 32.2439 5.07116 28.8516 6.41557 25.1122C9.46996 16.6145 13.7273 8.66545 20.4139 2.11587C23.1971 -0.604725 25.8859 1.08585 28.5629 2.37338C30.9097 3.49296 31.2753 5.41865 30.6974 7.54587C30.3083 9.0797 29.7186 10.6359 28.8931 12.013C27.5487 14.2858 25.9448 16.4242 24.1641 19.044Z" fill="#0E3572"/>
<path d="M282.738 320.157C281.512 329.64 280.321 339.123 279.012 348.595C278.787 350.184 278.21 351.763 277.573 353.263C276.665 355.379 275.049 356.902 272.466 356.768C269.695 356.622 268.292 354.775 267.749 352.446C267.313 350.576 267.018 348.606 267.112 346.703C267.596 337.052 268.186 327.412 268.834 317.772C268.94 316.283 269.365 314.738 269.99 313.361C271.216 310.685 273.469 309.196 276.618 309.532C279.766 309.868 281.63 311.805 282.219 314.649C282.585 316.418 282.467 318.287 282.573 320.112C282.632 320.135 282.691 320.146 282.738 320.157Z" fill="#0E3572"/>
<path d="M1323.92 34.0131C1323.57 34.6512 1322.97 35.9388 1322.21 37.1255C1318.65 42.6563 1314.97 48.1311 1311.48 53.6954C1309.92 56.1697 1308.05 57.8939 1304.83 57.4908C1301.73 57.1101 1300.39 55.0389 1299.59 52.4079C1298.32 48.2206 1296.9 44.0558 1295.55 39.8909C1294.46 36.5657 1295.64 33.8563 1298.98 32.7479C1304.62 30.867 1310.3 29.0757 1316.01 27.4075C1320.09 26.2208 1324.05 29.2436 1323.92 34.0131Z" fill="#0E3572"/>
<path d="M688.891 0.0784596C686.25 3.57157 683.915 6.44891 681.816 9.47179C677.995 14.9802 674.504 20.7236 670.482 26.0865C668.843 28.2696 666.414 30.3857 663.843 31.3261C662.192 31.9307 658.972 30.9007 657.687 29.5572C656.378 28.1913 655.529 25.0676 656.295 23.5002C659.798 16.3461 663.949 9.48299 667.817 2.48557C668.82 0.660645 670.188 -0.0446949 672.428 0.0224803C677.664 0.190418 682.901 0.0784596 688.891 0.0784596Z" fill="#0E3572"/>
<path d="M146.505 483.448C143.722 481.5 143.203 478.948 145.043 476.507C146.871 474.089 149.041 471.648 151.623 470.036C158.935 465.468 167.06 462.691 175.775 461.594C177.25 461.415 178.783 461.393 180.245 461.572C182.733 461.874 184.738 462.994 185.328 465.524C185.894 467.909 184.75 469.733 182.745 470.987C181.059 472.04 179.266 473.036 177.368 473.652C168.086 476.641 158.758 479.496 149.453 482.396C148.463 482.709 147.484 483.101 146.505 483.448Z" fill="#0E3572"/>
<path d="M185.163 234.329C183.193 236.86 181.648 239.155 179.761 241.181C177.261 243.879 173.971 244.238 171.483 242.402C169.101 240.644 168.818 237.565 170.575 234.732C172.674 231.34 174.726 227.925 176.589 224.421C179.019 219.876 185.705 219.069 189.208 223.033C192.911 227.231 196.59 231.441 200.305 235.628C202.923 238.595 203.135 241.271 200.847 243.152C198.666 244.943 196 244.45 193.253 241.842C190.623 239.345 187.934 236.904 185.163 234.329Z" fill="#0E3572"/>
<path d="M897.096 380.839C897.084 384.309 895.551 385.754 891.872 385.978C886.978 386.28 882.084 386.627 877.189 387.052C874.347 387.299 871.682 387.075 870.267 384.399C868.769 381.578 870.267 379.327 872.378 377.357C876.777 373.225 881.152 369.083 885.574 364.963C887.744 362.948 890.787 363.048 891.99 365.623C894.254 370.482 895.964 375.565 897.91 380.559C897.638 380.66 897.367 380.749 897.096 380.839Z" fill="#0E3572"/>
<path d="M1075.1 160.672C1070.48 160.616 1068.54 158.466 1069.45 155.343C1070.32 152.331 1071.65 149.42 1072.9 146.52C1073.93 144.113 1075.25 141.796 1076.29 139.389C1077.9 135.705 1083.34 134.765 1085.7 138.191C1088.59 142.423 1090.95 147.013 1093.19 151.603C1094.34 153.943 1093.21 156.339 1090.63 157.056C1085.1 158.589 1079.44 159.687 1075.1 160.672Z" fill="#0E3572"/>
<path d="M1171.77 0.0898221C1178.01 0.0898221 1183.14 -0.0109407 1188.26 0.179389C1189.27 0.212977 1190.72 1.14223 1191.14 2.01551C1194.07 8.08367 1196.98 14.163 1199.45 20.3991C1200.41 22.8398 1201.29 26.568 1198.34 27.8332C1195.13 29.2103 1192.7 26.221 1190.85 23.8251C1188.07 20.22 1185.59 16.4134 1182.72 12.8755C1180.38 9.98697 1177.61 7.42311 1175.11 4.64654C1174.04 3.47097 1173.22 2.10508 1171.77 0.0898221Z" fill="#0E3572"/>
<path d="M786.418 400.924C781.913 400.857 779.472 398.215 780.321 395.08C781.819 389.571 783.482 384.085 785.51 378.745C786.902 375.062 790.687 373.64 794.119 374.894C797.292 376.058 798.86 379.461 797.339 383.078C795.287 387.982 793.022 392.829 790.416 397.487C789.485 399.155 787.315 400.185 786.418 400.924Z" fill="#0E3572"/>
<path d="M695.86 65.2494C692.864 65.2047 690.435 64.1858 688.996 61.5548C687.345 58.5431 687.192 55.4531 689.126 52.5645C691.803 48.5788 695.907 46.6867 700.778 46.6755C705.495 46.6643 708.962 50.7396 707.842 55.2515C706.462 60.7823 702.57 65.1823 695.86 65.2494Z" fill="#0E3572"/>
<path d="M635.775 287.196C630.126 287.14 626.305 283.994 626.281 279.371C626.258 274.209 630.645 269.787 635.775 269.787C642.155 269.787 646.683 273.325 646.577 278.229C646.471 283.367 641.801 287.252 635.775 287.196Z" fill="#0E3572"/>
<path d="M488.173 133.063C488.102 126.625 491.003 124.006 498.256 123.961C502.903 123.927 506.617 127.409 506.641 131.832C506.676 137.004 501.464 142.4 496.334 142.49C491.628 142.568 488.232 138.639 488.173 133.063Z" fill="#0E3572"/>
<path d="M322.657 239.983C318.742 240.039 314.261 235.673 314.249 231.788C314.237 227.937 319.886 223.178 324.438 223.201C328.094 223.212 331.148 226.179 330.854 230.142C330.429 235.998 328.412 239.547 322.657 239.983Z" fill="#0E3572"/>
<path d="M462.205 31.4269C462.311 35.9836 458.915 39.7902 454.728 39.7902C449.834 39.8014 446.037 36.3643 445.942 31.8411C445.848 27.3628 449.244 23.9145 453.773 23.8697C458.337 23.8249 462.111 27.2172 462.205 31.4269Z" fill="#0E3572"/>
<path d="M978.209 448.226C982.667 448.148 986.028 450.79 986.193 454.485C986.382 458.829 982.089 463.039 977.301 463.218C972.891 463.374 969.341 460.083 969.341 455.806C969.329 452.011 973.669 448.305 978.209 448.226Z" fill="#0E3572"/>
<path d="M1040.36 0.0786046C1043.81 0.0786046 1046.47 0.0674088 1049.12 0.0898005C1049.95 0.100996 1050.78 0.179367 1052.18 0.257739C1051.82 4.51217 1051.73 8.64344 1051.05 12.6851C1050.56 15.6744 1047.88 16.8948 1044.93 17.1635C1042.79 17.365 1041.38 16.0999 1041.22 14.163C1040.82 9.5727 1040.64 4.9712 1040.36 0.0786046Z" fill="#0E3572"/>
<path d="M965.001 351.035C969.813 351.001 973.893 353.666 973.893 356.835C973.881 360.249 969.058 364.896 965.544 364.873C961.121 364.851 957.501 361.638 957.513 357.73C957.513 353.778 960.555 351.069 965.001 351.035Z" fill="#0E3572"/>
<path d="M1275.29 170.793C1275.31 175.182 1272.48 178.037 1268.08 178.048C1264.13 178.059 1260.52 174.633 1260.49 170.826C1260.45 167.3 1264.44 163.135 1267.83 163.146C1271.99 163.157 1275.26 166.527 1275.29 170.793Z" fill="#0E3572"/>
<path d="M1144.56 332.82C1144.24 338.149 1141.7 340.713 1136.93 340.522C1132.65 340.343 1129.09 337.287 1129.21 333.883C1129.34 330.11 1134.55 326.18 1139.05 326.46C1142.83 326.695 1144.8 328.957 1144.56 332.82Z" fill="#0E3572"/>
<path d="M498.775 184.486C498.846 180.5 500.497 178.843 503.611 178.552C504.637 178.451 505.651 178.182 506.641 177.902C510.639 176.772 514.036 179.671 513.198 183.534C512.149 188.382 504.424 190.89 500.615 187.497C499.554 186.557 499.082 185.012 498.775 184.486Z" fill="#0E3572"/>
<path d="M48.8002 13.2448C45.2741 13.1553 42.8683 11.1624 43.0334 8.53136C43.1867 6.19142 44.4721 4.80313 47.102 4.85911C49.9559 4.91509 52.8334 7.55732 52.7037 10.0428C52.574 12.5395 50.6753 13.0657 48.8002 13.2448Z" fill="#0E3572"/>
<path d="M648.911 304.573C646.399 304.528 644.383 302.468 644.406 299.982C644.418 297.43 646.116 295.537 648.263 295.672C650.775 295.817 653.452 298.46 653.346 300.665C653.228 302.871 651.246 304.617 648.911 304.573Z" fill="#0E3572"/>
<path d="M1292.47 168.598C1291.99 168.039 1290.5 166.908 1290.7 166.471C1291.47 164.814 1292.46 162.609 1293.96 162.06C1295.67 161.444 1297.76 162.765 1297.72 165.105C1297.66 167.837 1295.38 168.139 1292.47 168.598Z" fill="#0E3572"/>
<path d="M301.807 546.045C301.088 556.849 298.151 567.731 290.674 576.755C285.497 583.014 279.341 588.679 272.902 593.807C269.565 596.46 264.777 597.624 260.461 598.923C258.727 599.449 256.404 598.845 254.54 598.218C251.156 597.087 249.694 594.4 251.404 591.444C253.809 587.313 256.651 583.327 259.906 579.756C264.093 575.143 269.011 571.146 273.339 566.645C282.183 557.454 287.231 546.985 285.179 534.121C284.495 529.845 285.792 527.728 288.611 526.721C291.523 525.68 294.896 526.799 297.302 529.822C300.981 534.446 301.606 539.898 301.807 546.045Z" fill="#0E3572"/>
</g>
<defs>
<clipPath id="clip0_506_25065">
<rect width="1518" height="1001" fill="white"/>
</clipPath>
</defs>
</svg>
