<svg width="1798" height="343" viewBox="0 0 1798 343" fill="none" xmlns="http://www.w3.org/2000/svg">
<path d="M340.452 167.774L306.767 221.488L243.428 219.171L225.185 184.708L225.163 184.694L213.76 163.162L247.445 109.448L310.785 111.765L340.452 167.774Z" fill="#54D9EE"/>
<path d="M232.861 216.308L221.691 234.12L147.132 231.386L125.356 190.255C125.334 190.242 125.348 190.22 125.326 190.207L112.21 165.447L151.85 102.237L226.404 104.979L233.008 117.43L204.543 162.819L206.688 166.885C206.709 166.899 206.717 166.933 206.726 166.966L232.861 216.308Z" fill="#243AC0"/>
<g style="mix-blend-mode:screen" opacity="0.4">
<g style="mix-blend-mode:screen" opacity="0.4">
<path d="M331.705 167.449L222.559 163.464L251.574 117.197L306.147 119.189L331.705 167.449Z" fill="white"/>
</g>
</g>
<g style="mix-blend-mode:screen" opacity="0.2">
<g style="mix-blend-mode:screen" opacity="0.2">
<path d="M224.243 117.101L208.174 142.724L137.058 140.146L155.958 110.008L221.759 112.404L224.243 117.101Z" fill="white"/>
</g>
</g>
<g style="mix-blend-mode:multiply" opacity="0.3">
<g style="mix-blend-mode:multiply" opacity="0.3">
<path d="M232.841 216.308L221.671 234.12L147.111 231.386L125.335 190.255C129.483 196.8 133.491 203.473 137.444 210.138L143.333 220.2C145.06 223.166 146.753 226.141 148.432 229.138C148.468 229.128 148.49 229.141 148.524 229.133C154.303 229.169 160.081 229.204 165.847 229.355C172.05 229.475 178.286 229.591 184.492 229.803C190.698 230.014 196.919 230.154 203.132 230.403L220.133 231.137L229.918 216.105L224.399 204.93L218.335 192.334C214.354 183.95 210.401 175.521 206.713 166.956L232.841 216.308Z" fill="black"/>
</g>
</g>
<g style="mix-blend-mode:multiply" opacity="0.3">
<g style="mix-blend-mode:multiply" opacity="0.3">
<path d="M226.394 104.989C220.146 105.465 213.924 105.66 207.702 105.855C201.486 105.993 195.242 106.081 189.028 106.073C185.909 106.088 182.808 106.027 179.692 105.989L170.363 105.847C164.735 105.666 159.088 105.566 153.445 105.313C150.736 109.538 148.095 113.798 145.3 117.968L140.675 124.962L135.94 131.892C134.36 134.22 132.794 136.527 131.165 138.791L126.301 145.641C123.005 150.182 119.688 154.709 116.177 159.115L151.84 102.247L226.394 104.989Z" fill="black"/>
</g>
</g>
<path d="M353.623 263.17H106.031C103.071 263.17 100.672 261.177 100.672 258.72C100.672 256.263 103.071 254.271 106.031 254.271H353.623C356.583 254.271 358.981 256.263 358.981 258.72C358.981 261.177 356.583 263.17 353.623 263.17Z" fill="#256EE4"/>
<path d="M100.687 259.064L39.9457 99.1255C39.1475 96.8793 40.3828 94.6178 42.7205 94.0983C45.0391 93.5635 47.5669 94.954 48.3651 97.2002L109.107 257.154C109.905 259.401 108.67 261.662 106.332 262.182C104.013 262.716 101.485 261.311 100.687 259.064Z" fill="#256EE4"/>
<path d="M134.924 279.401C139.586 279.401 143.378 283.193 143.378 287.856C143.378 292.518 139.586 296.31 134.924 296.31C130.261 296.31 126.47 292.518 126.47 287.856C126.45 283.193 130.261 279.401 134.924 279.401ZM134.924 270.502C125.328 270.502 117.57 278.279 117.57 287.856C117.57 297.451 125.347 305.209 134.924 305.209C144.5 305.209 152.277 297.432 152.277 287.856C152.277 278.279 144.5 270.502 134.924 270.502Z" fill="#256EE4"/>
<path d="M324.691 279.401C329.354 279.401 333.146 283.193 333.146 287.856C333.146 292.518 329.354 296.31 324.691 296.31C320.029 296.31 316.237 292.518 316.237 287.856C316.237 283.193 320.029 279.401 324.691 279.401ZM324.691 270.502C315.096 270.502 307.338 278.279 307.338 287.856C307.338 297.451 315.115 305.209 324.691 305.209C334.287 305.209 342.045 297.432 342.045 287.856C342.045 278.279 334.287 270.502 324.691 270.502Z" fill="#256EE4"/>
<path d="M42.0198 101.088C41.865 101.088 41.6909 101.088 41.5361 101.069L4.97186 97.0644C2.53425 96.7936 0.754446 94.6074 1.02529 92.1505C1.29614 89.7129 3.48221 87.9524 5.93917 88.2039L42.5034 92.2085C44.941 92.4794 46.7208 94.6655 46.45 97.1224C46.1791 99.3859 44.2639 101.088 42.0198 101.088Z" fill="#256EE4"/>
<path d="M523.38 104.05C522.325 105.896 521.183 107.258 519.953 108.137C518.81 108.928 517.36 109.323 515.602 109.323C513.757 109.323 511.735 108.664 509.538 107.346C507.429 105.94 504.88 104.402 501.892 102.732C498.904 101.062 495.389 99.5683 491.346 98.25C487.392 96.8439 482.69 96.1408 477.241 96.1408C472.32 96.1408 468.013 96.756 464.322 97.9864C460.631 99.1289 457.511 100.755 454.963 102.864C452.502 104.973 450.656 107.522 449.426 110.51C448.195 113.41 447.58 116.618 447.58 120.133C447.58 124.615 448.811 128.35 451.271 131.338C453.82 134.326 457.16 136.875 461.29 138.984C465.421 141.093 470.122 142.983 475.395 144.653C480.669 146.322 486.073 148.124 491.61 150.057C497.147 151.903 502.552 154.1 507.825 156.649C513.098 159.109 517.799 162.273 521.93 166.14C526.06 169.919 529.356 174.577 531.817 180.114C534.365 185.65 535.64 192.373 535.64 200.283C535.64 208.896 534.146 216.981 531.158 224.539C528.258 232.009 523.951 238.556 518.239 244.181C512.614 249.718 505.715 254.112 497.542 257.363C489.369 260.527 480.009 262.109 469.463 262.109C463.399 262.109 457.423 261.494 451.535 260.264C445.647 259.121 439.978 257.451 434.53 255.254C429.169 253.057 424.115 250.421 419.37 247.345C414.624 244.269 410.405 240.841 406.714 237.062L417.129 220.057C418.007 218.826 419.15 217.816 420.556 217.025C421.962 216.146 423.456 215.707 425.038 215.707C427.235 215.707 429.608 216.629 432.157 218.475C434.705 220.233 437.737 222.21 441.253 224.407C444.768 226.604 448.855 228.626 453.512 230.471C458.258 232.229 463.927 233.108 470.518 233.108C480.625 233.108 488.446 230.735 493.983 225.989C499.52 221.155 502.288 214.257 502.288 205.292C502.288 200.283 501.014 196.196 498.465 193.033C496.004 189.869 492.709 187.232 488.578 185.123C484.448 182.926 479.746 181.08 474.473 179.586C469.2 178.092 463.839 176.467 458.39 174.709C452.941 172.951 447.58 170.842 442.307 168.381C437.034 165.92 432.332 162.713 428.202 158.758C424.071 154.803 420.732 149.882 418.183 143.993C415.722 138.017 414.492 130.679 414.492 121.979C414.492 115.036 415.854 108.269 418.579 101.677C421.391 95.0862 425.434 89.2419 430.707 84.1447C435.98 79.0474 442.483 74.9608 450.217 71.8849C457.951 68.809 466.827 67.271 476.846 67.271C488.095 67.271 498.465 69.0287 507.956 72.544C517.448 76.0594 525.533 80.9809 532.212 87.3085L523.38 104.05ZM648.054 176.818C648.054 172.6 647.439 168.645 646.208 164.954C645.066 161.175 643.308 157.879 640.935 155.067C638.563 152.255 635.531 150.057 631.839 148.476C628.236 146.806 624.018 145.971 619.184 145.971C609.781 145.971 602.354 148.651 596.906 154.012C591.545 159.373 588.117 166.975 586.623 176.818H648.054ZM585.964 196.46C586.491 203.403 587.722 209.423 589.655 214.52C591.589 219.53 594.137 223.704 597.301 227.044C600.465 230.295 604.2 232.756 608.506 234.426C612.901 236.008 617.734 236.799 623.007 236.799C628.28 236.799 632.806 236.184 636.585 234.953C640.452 233.723 643.792 232.361 646.604 230.867C649.504 229.373 652.009 228.01 654.118 226.78C656.315 225.55 658.424 224.934 660.446 224.934C663.17 224.934 665.191 225.945 666.51 227.966L675.869 239.831C672.266 244.049 668.223 247.608 663.741 250.509C659.259 253.321 654.557 255.606 649.636 257.363C644.802 259.033 639.837 260.22 634.74 260.923C629.73 261.626 624.853 261.977 620.107 261.977C610.703 261.977 601.959 260.439 593.874 257.363C585.788 254.2 578.758 249.586 572.782 243.522C566.806 237.37 562.104 229.812 558.676 220.848C555.249 211.796 553.535 201.338 553.535 189.473C553.535 180.246 555.029 171.589 558.017 163.504C561.005 155.33 565.268 148.256 570.804 142.28C576.429 136.216 583.24 131.426 591.237 127.911C599.322 124.395 608.418 122.638 618.525 122.638C627.05 122.638 634.915 124 642.122 126.724C649.328 129.449 655.524 133.447 660.709 138.72C665.894 143.906 669.937 150.321 672.837 157.967C675.825 165.525 677.319 174.182 677.319 183.937C677.319 188.858 676.792 192.198 675.737 193.955C674.683 195.625 672.661 196.46 669.673 196.46H585.964ZM751.189 189.078C755.232 189.078 758.747 188.551 761.735 187.496C764.723 186.353 767.184 184.815 769.117 182.882C771.139 180.949 772.633 178.62 773.599 175.895C774.654 173.171 775.181 170.183 775.181 166.931C775.181 160.252 773.16 154.979 769.117 151.112C765.163 147.157 759.186 145.18 751.189 145.18C743.192 145.18 737.172 147.157 733.129 151.112C729.174 154.979 727.197 160.252 727.197 166.931C727.197 170.095 727.68 173.039 728.647 175.763C729.701 178.488 731.195 180.861 733.129 182.882C735.15 184.815 737.655 186.353 740.643 187.496C743.719 188.551 747.234 189.078 751.189 189.078ZM787.968 266.064C787.968 263.427 787.177 261.274 785.595 259.605C784.014 257.935 781.86 256.66 779.136 255.782C776.412 254.815 773.204 254.112 769.513 253.672C765.91 253.233 762.043 252.925 757.912 252.75C753.869 252.486 749.651 252.266 745.257 252.09C740.951 251.915 736.732 251.563 732.602 251.036C728.998 253.057 726.054 255.43 723.769 258.154C721.572 260.879 720.474 264.043 720.474 267.646C720.474 270.019 721.045 272.216 722.187 274.237C723.418 276.346 725.307 278.148 727.856 279.642C730.492 281.136 733.876 282.279 738.006 283.069C742.137 283.948 747.19 284.388 753.166 284.388C759.23 284.388 764.459 283.904 768.854 282.938C773.248 282.059 776.851 280.784 779.663 279.115C782.563 277.533 784.673 275.599 785.991 273.314C787.309 271.117 787.968 268.7 787.968 266.064ZM820.397 129.361V141.489C820.397 145.356 818.069 147.729 813.411 148.607L801.283 150.848C803.128 155.506 804.051 160.604 804.051 166.14C804.051 172.819 802.689 178.883 799.964 184.332C797.328 189.693 793.637 194.263 788.891 198.042C784.145 201.821 778.521 204.765 772.017 206.874C765.602 208.896 758.659 209.906 751.189 209.906C748.552 209.906 746.004 209.774 743.543 209.511C741.082 209.247 738.666 208.896 736.293 208.456C732.074 211.005 729.965 213.861 729.965 217.025C729.965 219.749 731.195 221.771 733.656 223.089C736.205 224.319 739.544 225.198 743.675 225.725C747.805 226.253 752.507 226.604 757.78 226.78C763.053 226.868 768.458 227.131 773.995 227.571C779.531 228.01 784.936 228.801 790.209 229.944C795.482 230.998 800.184 232.712 804.315 235.085C808.445 237.458 811.741 240.71 814.202 244.84C816.75 248.883 818.025 254.112 818.025 260.527C818.025 266.503 816.531 272.304 813.542 277.928C810.642 283.553 806.38 288.562 800.755 292.956C795.219 297.351 788.364 300.866 780.191 303.502C772.105 306.227 762.878 307.589 752.507 307.589C742.313 307.589 733.436 306.578 725.878 304.557C718.32 302.624 712.037 299.987 707.027 296.648C702.018 293.396 698.283 289.617 695.822 285.311C693.362 281.004 692.131 276.522 692.131 271.864C692.131 265.537 694.021 260.264 697.8 256.045C701.667 251.739 706.94 248.311 713.619 245.763C710.015 243.917 707.159 241.457 705.05 238.381C702.941 235.305 701.886 231.262 701.886 226.253C701.886 224.231 702.238 222.166 702.941 220.057C703.732 217.86 704.83 215.707 706.236 213.597C707.731 211.488 709.576 209.511 711.773 207.665C713.97 205.732 716.563 204.018 719.551 202.524C712.696 198.833 707.291 193.911 703.336 187.76C699.469 181.608 697.536 174.401 697.536 166.14C697.536 159.461 698.854 153.441 701.491 148.08C704.215 142.631 707.95 138.017 712.696 134.238C717.53 130.372 723.198 127.427 729.701 125.406C736.293 123.385 743.455 122.374 751.189 122.374C756.989 122.374 762.438 122.989 767.535 124.22C772.633 125.362 777.29 127.076 781.509 129.361H820.397ZM957.58 124.747V260H937.675C933.368 260 930.644 258.023 929.502 254.068L927.261 243.258C921.724 248.883 915.616 253.453 908.937 256.968C902.258 260.395 894.392 262.109 885.34 262.109C877.958 262.109 871.41 260.879 865.698 258.418C860.073 255.869 855.328 252.31 851.461 247.74C847.594 243.17 844.65 237.765 842.629 231.526C840.695 225.198 839.728 218.255 839.728 210.697V124.747H872.289V210.697C872.289 218.958 874.179 225.374 877.958 229.944C881.825 234.426 887.581 236.667 895.227 236.667C900.852 236.667 906.125 235.437 911.046 232.976C915.968 230.427 920.625 226.956 925.02 222.562V124.747H957.58ZM1020.58 148.212C1024.8 140.127 1029.81 133.799 1035.61 129.229C1041.41 124.571 1048.26 122.242 1056.17 122.242C1062.41 122.242 1067.42 123.604 1071.2 126.329L1069.09 150.717C1068.65 152.299 1067.99 153.441 1067.12 154.144C1066.32 154.759 1065.23 155.067 1063.82 155.067C1062.5 155.067 1060.52 154.847 1057.89 154.408C1055.34 153.968 1052.83 153.749 1050.37 153.749C1046.77 153.749 1043.56 154.276 1040.75 155.331C1037.94 156.385 1035.39 157.923 1033.1 159.944C1030.91 161.878 1028.93 164.251 1027.17 167.063C1025.5 169.875 1023.92 173.083 1022.43 176.686V260H989.865V124.747H1008.98C1012.32 124.747 1014.65 125.362 1015.97 126.593C1017.29 127.735 1018.16 129.844 1018.6 132.92L1020.58 148.212ZM1157.87 202.26C1148.46 202.7 1140.55 203.535 1134.14 204.765C1127.72 205.908 1122.58 207.402 1118.71 209.247C1114.85 211.093 1112.08 213.246 1110.41 215.707C1108.74 218.167 1107.9 220.848 1107.9 223.748C1107.9 229.46 1109.57 233.547 1112.91 236.008C1116.34 238.468 1120.78 239.699 1126.23 239.699C1132.91 239.699 1138.66 238.512 1143.5 236.14C1148.42 233.679 1153.21 229.988 1157.87 225.066V202.26ZM1083.25 143.598C1098.81 129.361 1117.53 122.242 1139.41 122.242C1147.32 122.242 1154.4 123.561 1160.64 126.197C1166.87 128.746 1172.15 132.349 1176.45 137.007C1180.76 141.577 1184.01 147.069 1186.21 153.485C1188.49 159.9 1189.64 166.931 1189.64 174.577V260H1174.87C1171.8 260 1169.42 259.561 1167.75 258.682C1166.08 257.715 1164.77 255.826 1163.8 253.013L1160.9 243.258C1157.47 246.334 1154.13 249.058 1150.88 251.431C1147.63 253.716 1144.24 255.65 1140.73 257.232C1137.21 258.814 1133.44 260 1129.39 260.791C1125.44 261.67 1121.04 262.109 1116.21 262.109C1110.5 262.109 1105.22 261.362 1100.39 259.868C1095.56 258.286 1091.38 255.957 1087.87 252.881C1084.35 249.805 1081.63 245.983 1079.69 241.413C1077.76 236.843 1076.79 231.526 1076.79 225.462C1076.79 222.034 1077.37 218.651 1078.51 215.311C1079.65 211.884 1081.5 208.632 1084.04 205.556C1086.68 202.48 1090.06 199.58 1094.19 196.856C1098.33 194.131 1103.38 191.758 1109.35 189.737C1115.42 187.716 1122.45 186.09 1130.45 184.859C1138.44 183.541 1147.58 182.75 1157.87 182.487V174.577C1157.87 165.525 1155.93 158.846 1152.07 154.54C1148.2 150.145 1142.62 147.948 1135.32 147.948C1130.05 147.948 1125.66 148.563 1122.14 149.794C1118.71 151.024 1115.68 152.43 1113.05 154.012C1110.41 155.506 1107.99 156.868 1105.8 158.099C1103.69 159.329 1101.31 159.944 1098.68 159.944C1096.39 159.944 1094.46 159.373 1092.88 158.231C1091.29 157 1090.02 155.594 1089.05 154.012L1083.25 143.598ZM1429.31 69.3802V260H1398.07V136.875C1398.07 131.953 1398.34 126.636 1398.86 120.924L1341.25 229.153C1338.53 234.338 1334.36 236.931 1328.73 236.931H1323.72C1318.1 236.931 1313.92 234.338 1311.2 229.153L1252.93 120.529C1253.2 123.429 1253.41 126.285 1253.59 129.097C1253.77 131.909 1253.85 134.502 1253.85 136.875V260H1222.61V69.3802H1249.37C1250.95 69.3802 1252.32 69.4242 1253.46 69.5121C1254.6 69.5999 1255.61 69.8196 1256.49 70.1712C1257.46 70.5227 1258.29 71.094 1259 71.8849C1259.79 72.6759 1260.53 73.7305 1261.24 75.0487L1318.32 180.905C1319.81 183.717 1321.17 186.617 1322.4 189.605C1323.72 192.593 1325 195.669 1326.23 198.833C1327.46 195.581 1328.73 192.461 1330.05 189.473C1331.37 186.397 1332.77 183.453 1334.27 180.641L1390.56 75.0487C1391.26 73.7305 1392.01 72.6759 1392.8 71.8849C1393.59 71.094 1394.42 70.5227 1395.3 70.1712C1396.27 69.8196 1397.32 69.5999 1398.47 69.5121C1399.61 69.4242 1400.97 69.3802 1402.55 69.3802H1429.31ZM1534.81 202.26C1525.4 202.7 1517.49 203.535 1511.08 204.765C1504.66 205.908 1499.52 207.402 1495.65 209.247C1491.79 211.093 1489.02 213.246 1487.35 215.707C1485.68 218.167 1484.84 220.848 1484.84 223.748C1484.84 229.46 1486.51 233.547 1489.85 236.008C1493.28 238.468 1497.72 239.699 1503.17 239.699C1509.85 239.699 1515.6 238.512 1520.44 236.14C1525.36 233.679 1530.15 229.988 1534.81 225.066V202.26ZM1460.19 143.598C1475.75 129.361 1494.47 122.242 1516.35 122.242C1524.26 122.242 1531.33 123.561 1537.57 126.197C1543.81 128.746 1549.09 132.349 1553.39 137.007C1557.7 141.577 1560.95 147.069 1563.15 153.485C1565.43 159.9 1566.58 166.931 1566.58 174.577V260H1551.81C1548.73 260 1546.36 259.561 1544.69 258.682C1543.02 257.715 1541.7 255.826 1540.74 253.013L1537.84 243.258C1534.41 246.334 1531.07 249.058 1527.82 251.431C1524.57 253.716 1521.18 255.65 1517.67 257.232C1514.15 258.814 1510.37 260 1506.33 260.791C1502.38 261.67 1497.98 262.109 1493.15 262.109C1487.44 262.109 1482.16 261.362 1477.33 259.868C1472.5 258.286 1468.32 255.957 1464.81 252.881C1461.29 249.805 1458.57 245.983 1456.63 241.413C1454.7 236.843 1453.73 231.526 1453.73 225.462C1453.73 222.034 1454.3 218.651 1455.45 215.311C1456.59 211.884 1458.43 208.632 1460.98 205.556C1463.62 202.48 1467 199.58 1471.13 196.856C1475.26 194.131 1480.32 191.758 1486.29 189.737C1492.36 187.716 1499.39 186.09 1507.39 184.859C1515.38 183.541 1524.52 182.75 1534.81 182.487V174.577C1534.81 165.525 1532.87 158.846 1529.01 154.54C1525.14 150.145 1519.56 147.948 1512.26 147.948C1506.99 147.948 1502.6 148.563 1499.08 149.794C1495.65 151.024 1492.62 152.43 1489.98 154.012C1487.35 155.506 1484.93 156.868 1482.73 158.099C1480.63 159.329 1478.25 159.944 1475.62 159.944C1473.33 159.944 1471.4 159.373 1469.82 158.231C1468.23 157 1466.96 155.594 1465.99 154.012L1460.19 143.598ZM1627.96 148.212C1632.18 140.127 1637.18 133.799 1642.98 129.229C1648.79 124.571 1655.64 122.242 1663.55 122.242C1669.79 122.242 1674.8 123.604 1678.58 126.329L1676.47 150.717C1676.03 152.299 1675.37 153.441 1674.49 154.144C1673.7 154.759 1672.6 155.067 1671.2 155.067C1669.88 155.067 1667.9 154.847 1665.26 154.408C1662.71 153.968 1660.21 153.749 1657.75 153.749C1654.15 153.749 1650.94 154.276 1648.13 155.331C1645.31 156.385 1642.77 157.923 1640.48 159.944C1638.28 161.878 1636.31 164.251 1634.55 167.063C1632.88 169.875 1631.3 173.083 1629.8 176.686V260H1597.24V124.747H1616.36C1619.7 124.747 1622.02 125.362 1623.34 126.593C1624.66 127.735 1625.54 129.844 1625.98 132.92L1627.96 148.212ZM1740.68 262.109C1728.9 262.109 1719.85 258.814 1713.52 252.222C1707.28 245.543 1704.16 236.359 1704.16 224.671V149.135H1690.32C1688.56 149.135 1687.07 148.563 1685.84 147.421C1684.61 146.278 1683.99 144.565 1683.99 142.28V129.361L1705.75 125.802L1712.6 88.8904C1713.04 87.1327 1713.88 85.7705 1715.11 84.8038C1716.34 83.8371 1717.92 83.3537 1719.85 83.3537H1736.73V125.933H1772.85V149.135H1736.73V222.43C1736.73 226.648 1737.74 229.944 1739.76 232.317C1741.87 234.689 1744.72 235.876 1748.33 235.876C1750.35 235.876 1752.02 235.656 1753.34 235.217C1754.74 234.689 1755.93 234.162 1756.89 233.635C1757.95 233.108 1758.87 232.624 1759.66 232.185C1760.45 231.658 1761.24 231.394 1762.04 231.394C1763 231.394 1763.79 231.658 1764.41 232.185C1765.02 232.624 1765.68 233.327 1766.39 234.294L1776.14 250.113C1771.4 254.068 1765.95 257.056 1759.79 259.077C1753.64 261.099 1747.27 262.109 1740.68 262.109Z" fill="#256EE4"/>
</svg>
