<svg width="44" height="45" viewBox="0 0 44 45" fill="none" xmlns="http://www.w3.org/2000/svg">
<rect y="0.5" width="44" height="44" rx="5" fill="#0E3572"/>
<g clip-path="url(#clip0_506_25340)">
<path d="M25.875 30.2492H11.6667C10.2964 30.2492 8.98222 29.7048 8.01328 28.7359C7.04434 27.767 6.5 26.4528 6.5 25.0825V14.7492C6.5 13.0363 7.18043 11.3936 8.3916 10.1825C9.60277 8.97129 11.2455 8.29086 12.9583 8.29086H19.4167C20.2648 8.29086 21.1046 8.45791 21.8882 8.78247C22.6717 9.10703 23.3837 9.58275 23.9834 10.1825C24.5831 10.7822 25.0588 11.4941 25.3834 12.2777C25.708 13.0613 25.875 13.9011 25.875 14.7492V30.2492ZM37.5 21.2075V19.9159C37.5 19.0677 37.333 18.2279 37.0084 17.4444C36.6838 16.6608 36.2081 15.9488 35.6084 15.3491C35.0087 14.7494 34.2967 14.2737 33.5132 13.9491C32.7296 13.6246 31.8898 13.4575 31.0417 13.4575H28.4583V21.2075H37.5ZM28.4583 23.7909V30.2492H32.3333C33.7036 30.2492 35.0178 29.7048 35.9867 28.7359C36.9557 27.767 37.5 26.4528 37.5 25.0825V23.7909H28.4583ZM11.7416 32.8325C11.6943 33.0446 11.6692 33.2611 11.6667 33.4784C11.6667 34.3348 12.0069 35.1561 12.6125 35.7617C13.2181 36.3673 14.0394 36.7075 14.8958 36.7075C15.7523 36.7075 16.5736 36.3673 17.1792 35.7617C17.7848 35.1561 18.125 34.3348 18.125 33.4784C18.1225 33.2611 18.0974 33.0446 18.0501 32.8325H11.7416ZM25.9499 32.8325C25.9026 33.0446 25.8775 33.2611 25.875 33.4784C25.875 34.3348 26.2152 35.1561 26.8208 35.7617C27.4264 36.3673 28.2477 36.7075 29.1042 36.7075C29.9606 36.7075 30.7819 36.3673 31.3875 35.7617C31.9931 35.1561 32.3333 34.3348 32.3333 33.4784C32.3308 33.2611 32.3057 33.0446 32.2584 32.8325H25.9499Z" fill="white"/>
</g>
<defs>
<clipPath id="clip0_506_25340">
<rect width="31" height="31" fill="white" transform="translate(6.5 7)"/>
</clipPath>
</defs>
</svg>
