<svg width="24" height="25" viewBox="0 0 24 25" fill="none" xmlns="http://www.w3.org/2000/svg">
<path d="M22 0.5H17C16.4696 0.5 15.9609 0.710714 15.5858 1.08579C15.2107 1.46086 15 1.96957 15 2.5V9.448C15.0005 9.83399 15.1099 10.212 15.3156 10.5386C15.5213 10.8652 15.815 11.1271 16.163 11.2942C16.5109 11.4613 16.8989 11.5269 17.2824 11.4833C17.666 11.4398 18.0294 11.2889 18.331 11.048L19.5 10.113L20.669 11.049C20.9707 11.2899 21.3342 11.4408 21.7178 11.4844C22.1014 11.5279 22.4895 11.4622 22.8375 11.295C23.1855 11.1278 23.4792 10.8657 23.6848 10.539C23.8905 10.2122 23.9997 9.83407 24 9.448V2.5C24 1.96957 23.7893 1.46086 23.4142 1.08579C23.0391 0.710714 22.5304 0.5 22 0.5ZM21.919 9.487L20.125 8.052C19.9476 7.91 19.7272 7.83262 19.5 7.83262C19.2728 7.83262 19.0524 7.91 18.875 8.052L17 9.448V2.5H22L21.919 9.487ZM24 14.5V19.5C23.9984 20.8256 23.4711 22.0964 22.5338 23.0338C21.5964 23.9711 20.3256 24.4984 19 24.5H5C3.67441 24.4984 2.40356 23.9711 1.46622 23.0338C0.528882 22.0964 0.00158786 20.8256 0 19.5L0 8.5C0.00158786 7.17441 0.528882 5.90356 1.46622 4.96622C2.40356 4.02888 3.67441 3.50159 5 3.5H12C12.2652 3.5 12.5196 3.60536 12.7071 3.79289C12.8946 3.98043 13 4.23478 13 4.5C13 4.76522 12.8946 5.01957 12.7071 5.20711C12.5196 5.39464 12.2652 5.5 12 5.5H5C4.45621 5.5015 3.92312 5.65128 3.45812 5.93321C2.99311 6.21514 2.6138 6.61854 2.361 7.1L9.878 14.618C10.4499 15.163 11.2095 15.467 11.9995 15.467C12.7895 15.467 13.5491 15.163 14.121 14.618L14.979 13.781C15.0729 13.6891 15.184 13.6165 15.3059 13.5675C15.4278 13.5186 15.5582 13.4941 15.6896 13.4954C15.821 13.4968 15.9508 13.5241 16.0717 13.5757C16.1926 13.6272 16.3021 13.7021 16.394 13.796C16.4859 13.8899 16.5585 14.001 16.6075 14.1229C16.6564 14.2448 16.6809 14.3752 16.6796 14.5066C16.6782 14.638 16.6509 14.7678 16.5993 14.8887C16.5478 15.0096 16.4729 15.1191 16.379 15.211L15.53 16.04C14.5884 16.9678 13.3192 17.4872 11.9974 17.4857C10.6755 17.4842 9.40745 16.9619 8.468 16.032L2 9.571V19.5C2 20.2956 2.31607 21.0587 2.87868 21.6213C3.44129 22.1839 4.20435 22.5 5 22.5H19C19.7956 22.5 20.5587 22.1839 21.1213 21.6213C21.6839 21.0587 22 20.2956 22 19.5V14.5C22 14.2348 22.1054 13.9804 22.2929 13.7929C22.4804 13.6054 22.7348 13.5 23 13.5C23.2652 13.5 23.5196 13.6054 23.7071 13.7929C23.8946 13.9804 24 14.2348 24 14.5Z" fill="#141414"/>
</svg>
