<svg width="44" height="44" viewBox="0 0 44 44" fill="none" xmlns="http://www.w3.org/2000/svg">
<rect width="44" height="44" rx="5" fill="#17A9DE"/>
<g clip-path="url(#clip0_506_25358)">
<path d="M31.0417 11.6671H12.9583C11.2461 11.6691 9.6046 12.3502 8.39387 13.5609C7.18314 14.7717 6.50205 16.4132 6.5 18.1254L6.5 25.8754C6.50205 27.5876 7.18314 29.2291 8.39387 30.4399C9.6046 31.6506 11.2461 32.3317 12.9583 32.3337H31.0417C32.7539 32.3317 34.3954 31.6506 35.6061 30.4399C36.8169 29.2291 37.498 27.5876 37.5 25.8754V18.1254C37.498 16.4132 36.8169 14.7717 35.6061 13.5609C34.3954 12.3502 32.7539 11.6691 31.0417 11.6671ZM11.6667 28.4587C11.4112 28.4587 11.1615 28.383 10.9491 28.241C10.7366 28.0991 10.5711 27.8974 10.4733 27.6614C10.3756 27.4253 10.35 27.1656 10.3998 26.9151C10.4497 26.6645 10.5727 26.4344 10.7533 26.2537C10.934 26.0731 11.1641 25.9501 11.4147 25.9002C11.6652 25.8504 11.9249 25.876 12.161 25.9737C12.397 26.0715 12.5987 26.237 12.7406 26.4494C12.8826 26.6619 12.9583 26.9116 12.9583 27.1671C12.9583 27.5096 12.8222 27.8382 12.58 28.0804C12.3378 28.3226 12.0092 28.4587 11.6667 28.4587ZM11.6667 18.1254C11.4112 18.1254 11.1615 18.0496 10.9491 17.9077C10.7366 17.7658 10.5711 17.564 10.4733 17.328C10.3756 17.092 10.35 16.8323 10.3998 16.5817C10.4497 16.3312 10.5727 16.101 10.7533 15.9204C10.934 15.7397 11.1641 15.6167 11.4147 15.5669C11.6652 15.517 11.9249 15.5426 12.161 15.6404C12.397 15.7381 12.5987 15.9037 12.7406 16.1161C12.8826 16.3285 12.9583 16.5783 12.9583 16.8337C12.9583 17.1763 12.8222 17.5048 12.58 17.7471C12.3378 17.9893 12.0092 18.1254 11.6667 18.1254ZM22 27.1671C20.9781 27.1671 19.9792 26.864 19.1296 26.2963C18.2799 25.7286 17.6177 24.9217 17.2266 23.9776C16.8356 23.0335 16.7333 21.9947 16.9326 20.9924C17.132 19.9902 17.624 19.0696 18.3466 18.347C19.0692 17.6244 19.9898 17.1324 20.992 16.933C21.9943 16.7336 23.0331 16.836 23.9772 17.227C24.9213 17.6181 25.7282 18.2803 26.2959 19.1299C26.8636 19.9796 27.1667 20.9785 27.1667 22.0004C27.1667 23.3707 26.6223 24.6848 25.6534 25.6538C24.6844 26.6227 23.3703 27.1671 22 27.1671ZM32.3333 28.4587C32.0779 28.4587 31.8281 28.383 31.6157 28.241C31.4033 28.0991 31.2378 27.8974 31.14 27.6614C31.0422 27.4253 31.0166 27.1656 31.0665 26.9151C31.1163 26.6645 31.2393 26.4344 31.42 26.2537C31.6006 26.0731 31.8308 25.9501 32.0813 25.9002C32.3319 25.8504 32.5916 25.876 32.8276 25.9737C33.0637 26.0715 33.2654 26.237 33.4073 26.4494C33.5492 26.6619 33.625 26.9116 33.625 27.1671C33.625 27.5096 33.4889 27.8382 33.2467 28.0804C33.0044 28.3226 32.6759 28.4587 32.3333 28.4587ZM32.3333 18.1254C32.0779 18.1254 31.8281 18.0496 31.6157 17.9077C31.4033 17.7658 31.2378 17.564 31.14 17.328C31.0422 17.092 31.0166 16.8323 31.0665 16.5817C31.1163 16.3312 31.2393 16.101 31.42 15.9204C31.6006 15.7397 31.8308 15.6167 32.0813 15.5669C32.3319 15.517 32.5916 15.5426 32.8276 15.6404C33.0637 15.7381 33.2654 15.9037 33.4073 16.1161C33.5492 16.3285 33.625 16.5783 33.625 16.8337C33.625 17.1763 33.4889 17.5048 33.2467 17.7471C33.0044 17.9893 32.6759 18.1254 32.3333 18.1254ZM24.5833 22.0004C24.5833 22.5113 24.4318 23.0108 24.148 23.4356C23.8641 23.8604 23.4606 24.1916 22.9886 24.3871C22.5166 24.5826 21.9971 24.6338 21.496 24.5341C20.9949 24.4344 20.5346 24.1884 20.1733 23.8271C19.812 23.4658 19.566 23.0055 19.4663 22.5044C19.3666 22.0033 19.4178 21.4838 19.6133 21.0118C19.8088 20.5398 20.14 20.1363 20.5648 19.8524C20.9896 19.5686 21.4891 19.4171 22 19.4171C22.6851 19.4171 23.3422 19.6892 23.8267 20.1737C24.3112 20.6582 24.5833 21.3153 24.5833 22.0004Z" fill="white"/>
</g>
<defs>
<clipPath id="clip0_506_25358">
<rect width="31" height="31" fill="white" transform="translate(6.5 6.5)"/>
</clipPath>
</defs>
</svg>
