<svg width="44" height="45" viewBox="0 0 44 45" fill="none" xmlns="http://www.w3.org/2000/svg">
<rect y="0.5" width="44" height="44" rx="5" fill="#256EE4"/>
<g clip-path="url(#clip0_506_25346)">
<path d="M31.0417 10.875H12.9583C11.2461 10.877 9.6046 11.5581 8.39387 12.7689C7.18314 13.9796 6.50205 15.6211 6.5 17.3333H37.5C37.4979 15.6211 36.8169 13.9796 35.6061 12.7689C34.3954 11.5581 32.7539 10.877 31.0417 10.875Z" fill="white"/>
<path d="M6.5 27.6664C6.50205 29.3787 7.18314 31.0202 8.39387 32.2309C9.6046 33.4416 11.2461 34.1227 12.9583 34.1248H31.0417C32.7539 34.1227 34.3954 33.4416 35.6061 32.2309C36.8169 31.0202 37.4979 29.3787 37.5 27.6664V19.9165H6.5V27.6664ZM15.5417 27.0206C15.5417 27.4038 15.428 27.7784 15.2151 28.097C15.0022 28.4157 14.6996 28.664 14.3456 28.8106C13.9916 28.9573 13.602 28.9956 13.2262 28.9209C12.8503 28.8461 12.5051 28.6616 12.2341 28.3906C11.9632 28.1197 11.7787 27.7744 11.7039 27.3986C11.6291 27.0228 11.6675 26.6332 11.8141 26.2792C11.9608 25.9251 12.2091 25.6225 12.5277 25.4096C12.8464 25.1967 13.221 25.0831 13.6042 25.0831C14.118 25.0831 14.6108 25.2872 14.9742 25.6506C15.3375 26.0139 15.5417 26.5068 15.5417 27.0206Z" fill="white"/>
</g>
<defs>
<clipPath id="clip0_506_25346">
<rect width="31" height="31" fill="white" transform="translate(6.5 7)"/>
</clipPath>
</defs>
</svg>
