<svg width="288" height="418" viewBox="0 0 288 418" fill="none" xmlns="http://www.w3.org/2000/svg">
<path opacity="0.3" d="M104.697 277.156L104.758 277.586H105.192H164.982H165.399L165.474 277.174L171.861 241.752C203.714 235.288 232.554 224.431 253.459 205.874C274.456 187.234 287.405 160.863 287.405 123.509V122.337C287.405 83.223 272.988 52.7415 247.95 32.0479C222.924 11.3644 187.336 0.5 145.052 0.5C81.0022 0.5 35.1512 26.3636 1.06994 63.9705L0.764876 64.3071L1.07079 64.643L54.9983 123.846L55.3511 124.233L55.7215 123.863C82.6142 96.9702 110.629 83.5637 143.293 83.5637C160.226 83.5637 173.586 87.36 182.701 94.3772C191.799 101.381 196.721 111.632 196.721 124.682V125.854C196.721 133.54 194.945 140.481 191.154 146.62C187.361 152.761 181.533 158.128 173.385 162.638C157.076 171.667 131.526 177.231 94.6215 178.696L94.426 178.703L94.2877 178.842L91.3569 181.773L91.1803 181.949L91.2154 182.196L104.697 277.156ZM85.3487 416.594V417.094H85.8487H180.808H181.308V416.594V322.807V322.307H180.808H85.8487H85.3487V322.807V416.594Z" stroke="#256EE4"/>
</svg>
