<svg width="143" height="207" viewBox="0 0 143 207" fill="none" xmlns="http://www.w3.org/2000/svg">
<path opacity="0.3" d="M52.0019 137.402L52.032 137.615H52.2464H81.7782H81.9846L82.0213 137.411L85.1763 119.915C100.91 116.722 115.155 111.36 125.48 102.194C135.851 92.9869 142.247 79.9613 142.247 61.5113V60.9322C142.247 41.6126 135.126 26.5568 122.759 16.3356C110.398 6.1193 92.8197 0.753034 71.9343 0.753034C40.2981 0.753034 17.6508 13.5279 0.817001 32.1032L0.666322 32.2694L0.817424 32.4353L27.454 61.6776L27.6282 61.8689L27.8112 61.6859C41.0943 48.4028 54.932 41.7809 71.0657 41.7809C79.4294 41.7809 86.0283 43.656 90.5306 47.122C95.0241 50.5813 97.4553 55.645 97.4553 62.0904V62.6694C97.4553 66.466 96.5783 69.8942 94.7054 72.9264C92.832 75.9597 89.9534 78.6107 85.9292 80.8383C77.8734 85.2978 65.2532 88.0463 47.0251 88.7697L46.9286 88.7735L46.8603 88.8418L45.4126 90.2894L45.3254 90.3767L45.3428 90.4988L52.0019 137.402ZM42.445 206.275V206.522H42.692H89.5955H89.8424V206.275V159.951V159.704H89.5955H42.692H42.445V159.951V206.275Z" stroke="#256EE4" stroke-width="0.493932"/>
</svg>
