<svg width="44" height="45" viewBox="0 0 44 45" fill="none" xmlns="http://www.w3.org/2000/svg">
<rect y="0.5" width="44" height="44" rx="5" fill="#FE9B0E"/>
<g clip-path="url(#clip0_506_25352)">
<path d="M31.0417 12.167H12.9583C11.2461 12.169 9.6046 12.8501 8.39387 14.0609C7.18314 15.2716 6.50205 16.9131 6.5 18.6253L6.5 26.3753C6.50205 28.0875 7.18314 29.7291 8.39387 30.9398C9.6046 32.1505 11.2461 32.8316 12.9583 32.8337H31.0417C32.7539 32.8316 34.3954 32.1505 35.6061 30.9398C36.8169 29.7291 37.4979 28.0875 37.5 26.3753V18.6253C37.4979 16.9131 36.8169 15.2716 35.6061 14.0609C34.3954 12.8501 32.7539 12.169 31.0417 12.167ZM11.6667 28.9587C11.4112 28.9587 11.1615 28.8829 10.9491 28.741C10.7366 28.599 10.5711 28.3973 10.4733 28.1613C10.3756 27.9253 10.35 27.6656 10.3998 27.415C10.4497 27.1644 10.5727 26.9343 10.7533 26.7536C10.934 26.573 11.1641 26.45 11.4147 26.4001C11.6652 26.3503 11.9249 26.3759 12.161 26.4736C12.397 26.5714 12.5987 26.737 12.7406 26.9494C12.8826 27.1618 12.9583 27.4115 12.9583 27.667C12.9583 28.0096 12.8222 28.3381 12.58 28.5803C12.3378 28.8226 12.0092 28.9587 11.6667 28.9587ZM11.6667 18.6253C11.4112 18.6253 11.1615 18.5496 10.9491 18.4076C10.7366 18.2657 10.5711 18.064 10.4733 17.828C10.3756 17.5919 10.35 17.3322 10.3998 17.0817C10.4497 16.8311 10.5727 16.6009 10.7533 16.4203C10.934 16.2397 11.1641 16.1166 11.4147 16.0668C11.6652 16.017 11.9249 16.0425 12.161 16.1403C12.397 16.2381 12.5987 16.4036 12.7406 16.616C12.8826 16.8285 12.9583 17.0782 12.9583 17.3337C12.9583 17.6762 12.8222 18.0048 12.58 18.247C12.3378 18.4892 12.0092 18.6253 11.6667 18.6253ZM22 27.667C20.9781 27.667 19.9792 27.364 19.1296 26.7962C18.2799 26.2285 17.6177 25.4216 17.2266 24.4775C16.8356 23.5334 16.7333 22.4946 16.9326 21.4924C17.132 20.4901 17.624 19.5695 18.3466 18.8469C19.0692 18.1244 19.9898 17.6323 20.992 17.4329C21.9943 17.2336 23.0331 17.3359 23.9772 17.7269C24.9213 18.118 25.7282 18.7802 26.2959 19.6299C26.8636 20.4795 27.1667 21.4784 27.1667 22.5003C27.1667 23.8706 26.6223 25.1848 25.6534 26.1537C24.6844 27.1226 23.3703 27.667 22 27.667ZM32.3333 28.9587C32.0779 28.9587 31.8281 28.8829 31.6157 28.741C31.4033 28.599 31.2378 28.3973 31.14 28.1613C31.0422 27.9253 31.0166 27.6656 31.0665 27.415C31.1163 27.1644 31.2393 26.9343 31.42 26.7536C31.6006 26.573 31.8308 26.45 32.0813 26.4001C32.3319 26.3503 32.5916 26.3759 32.8276 26.4736C33.0637 26.5714 33.2654 26.737 33.4073 26.9494C33.5492 27.1618 33.625 27.4115 33.625 27.667C33.625 28.0096 33.4889 28.3381 33.2467 28.5803C33.0044 28.8226 32.6759 28.9587 32.3333 28.9587ZM32.3333 18.6253C32.0779 18.6253 31.8281 18.5496 31.6157 18.4076C31.4033 18.2657 31.2378 18.064 31.14 17.828C31.0422 17.5919 31.0166 17.3322 31.0665 17.0817C31.1163 16.8311 31.2393 16.6009 31.42 16.4203C31.6006 16.2397 31.8308 16.1166 32.0813 16.0668C32.3319 16.017 32.5916 16.0425 32.8276 16.1403C33.0637 16.2381 33.2654 16.4036 33.4073 16.616C33.5492 16.8285 33.625 17.0782 33.625 17.3337C33.625 17.6762 33.4889 18.0048 33.2467 18.247C33.0044 18.4892 32.6759 18.6253 32.3333 18.6253ZM24.5833 22.5003C24.5833 23.0113 24.4318 23.5107 24.148 23.9355C23.8641 24.3604 23.4606 24.6915 22.9886 24.887C22.5166 25.0825 21.9971 25.1337 21.496 25.034C20.9949 24.9343 20.5346 24.6883 20.1733 24.327C19.812 23.9657 19.566 23.5054 19.4663 23.0043C19.3666 22.5032 19.4178 21.9838 19.6133 21.5117C19.8088 21.0397 20.1399 20.6362 20.5648 20.3524C20.9896 20.0685 21.4891 19.917 22 19.917C22.6851 19.917 23.3422 20.1892 23.8267 20.6736C24.3112 21.1581 24.5833 21.8152 24.5833 22.5003Z" fill="white"/>
</g>
<defs>
<clipPath id="clip0_506_25352">
<rect width="31" height="31" fill="white" transform="translate(6.5 7)"/>
</clipPath>
</defs>
</svg>
