<svg width="23" height="19" viewBox="0 0 23 19" fill="none" xmlns="http://www.w3.org/2000/svg">
<path d="M7.72502 18.5652C5.23347 18.5652 2.91092 17.8405 0.956055 16.5902C2.6158 16.6976 5.54488 16.4404 7.36676 14.7026C4.62605 14.5768 3.39005 12.4748 3.22883 11.5765C3.4617 11.6664 4.57231 11.7741 5.19927 11.5226C2.04656 10.7321 1.56291 7.9654 1.67038 7.121C2.26152 7.53422 3.26465 7.67794 3.65874 7.64201C0.720988 5.54001 1.77786 2.37803 2.29734 1.69533C4.40558 4.61612 7.56518 6.25654 11.474 6.34779C11.4003 6.02455 11.3614 5.68803 11.3614 5.34239C11.3614 2.86183 13.3664 0.850937 15.8397 0.850937C17.1319 0.850937 18.2963 1.39989 19.1137 2.27797C19.9773 2.07561 21.2769 1.60192 21.9122 1.19229C21.592 2.3421 20.595 3.30128 19.9919 3.65678C19.9969 3.66888 19.987 3.64464 19.9919 3.65678C20.5217 3.57665 21.955 3.30118 22.5213 2.917C22.2412 3.56296 21.1842 4.63696 20.3168 5.23824C20.4782 12.356 15.0323 18.5652 7.72502 18.5652Z" fill="#141414"/>
</svg>
