<svg width="20" height="18" viewBox="0 0 20 18" fill="none" xmlns="http://www.w3.org/2000/svg">
<path d="M14.4004 0.933228C13.4995 0.947239 12.6183 1.19871 11.8458 1.66224C11.0732 2.12578 10.4366 2.78496 10.0004 3.57323C9.56407 2.78496 8.9275 2.12578 8.15495 1.66224C7.38239 1.19871 6.5012 0.947239 5.60036 0.933228C4.16431 0.99562 2.81132 1.62383 1.83698 2.68061C0.862645 3.7374 0.346157 5.13685 0.400357 6.57323C0.400357 10.2108 4.22916 14.1836 7.44036 16.8772C8.15733 17.4797 9.06384 17.81 10.0004 17.81C10.9369 17.81 11.8434 17.4797 12.5604 16.8772C15.7716 14.1836 19.6004 10.2108 19.6004 6.57323C19.6546 5.13685 19.1381 3.7374 18.1637 2.68061C17.1894 1.62383 15.8364 0.99562 14.4004 0.933228ZM11.5324 15.6532C11.1035 16.0143 10.561 16.2123 10.0004 16.2123C9.43975 16.2123 8.89717 16.0143 8.46836 15.6532C4.35796 12.2044 2.00036 8.89563 2.00036 6.57323C1.94567 5.561 2.29345 4.56821 2.96785 3.81139C3.64225 3.05456 4.58854 2.59511 5.60036 2.53323C6.61217 2.59511 7.55847 3.05456 8.23287 3.81139C8.90726 4.56821 9.25504 5.561 9.20036 6.57323C9.20036 6.7854 9.28464 6.98888 9.43467 7.13891C9.5847 7.28894 9.78818 7.37323 10.0004 7.37323C10.2125 7.37323 10.416 7.28894 10.566 7.13891C10.7161 6.98888 10.8004 6.7854 10.8004 6.57323C10.7457 5.561 11.0934 4.56821 11.7678 3.81139C12.4422 3.05456 13.3885 2.59511 14.4004 2.53323C15.4122 2.59511 16.3585 3.05456 17.0329 3.81139C17.7073 4.56821 18.055 5.561 18.0004 6.57323C18.0004 8.89563 15.6428 12.2044 11.5324 15.65V15.6532Z" fill="#141414"/>
</svg>
