<svg width="24" height="22" viewBox="0 0 24 22" fill="none" xmlns="http://www.w3.org/2000/svg">
<path d="M17.5009 0.416016C16.3749 0.433531 15.2734 0.747869 14.3077 1.32729C13.342 1.9067 12.5463 2.73068 12.0009 3.71602C11.4556 2.73068 10.6599 1.9067 9.69417 1.32729C8.72848 0.747869 7.62698 0.433531 6.50094 0.416016C4.70588 0.494006 3.01464 1.27927 1.79672 2.60025C0.578794 3.92123 -0.0668157 5.67054 0.000934853 7.46602C0.000934853 12.013 4.78693 16.979 8.80093 20.346C9.69715 21.0991 10.8303 21.512 12.0009 21.512C13.1716 21.512 14.3047 21.0991 15.2009 20.346C19.2149 16.979 24.0009 12.013 24.0009 7.46602C24.0687 5.67054 23.4231 3.92123 22.2052 2.60025C20.9872 1.27927 19.296 0.494006 17.5009 0.416016ZM13.9159 18.816C13.3799 19.2674 12.7017 19.5149 12.0009 19.5149C11.3002 19.5149 10.622 19.2674 10.0859 18.816C4.94793 14.505 2.00093 10.369 2.00093 7.46602C1.93258 6.20073 2.3673 4.95975 3.2103 4.01372C4.0533 3.06769 5.23617 2.49337 6.50094 2.41602C7.7657 2.49337 8.94857 3.06769 9.79157 4.01372C10.6346 4.95975 11.0693 6.20073 11.0009 7.46602C11.0009 7.73123 11.1063 7.98559 11.2938 8.17312C11.4814 8.36066 11.7357 8.46602 12.0009 8.46602C12.2662 8.46602 12.5205 8.36066 12.708 8.17312C12.8956 7.98559 13.0009 7.73123 13.0009 7.46602C12.9326 6.20073 13.3673 4.95975 14.2103 4.01372C15.0533 3.06769 16.2362 2.49337 17.5009 2.41602C18.7657 2.49337 19.9486 3.06769 20.7916 4.01372C21.6346 4.95975 22.0693 6.20073 22.0009 7.46602C22.0009 10.369 19.0539 14.505 13.9159 18.812V18.816Z" fill="#141414"/>
</svg>
